G04*
G04 #@! TF.GenerationSoftware,Altium Limited,Altium Designer,23.8.1 (32)*
G04*
G04 Layer_Physical_Order=2*
G04 Layer_Color=16711680*
%FSLAX44Y44*%
%MOMM*%
G71*
G04*
G04 #@! TF.SameCoordinates,9A5F4E38-F979-48D4-9C3D-4FC56E0EA2F6*
G04*
G04*
G04 #@! TF.FilePolarity,Positive*
G04*
G01*
G75*
%ADD19C,1.0000*%
%ADD26C,1.5500*%
%ADD27C,1.6000*%
%ADD33C,0.5000*%
%ADD34C,0.2540*%
%ADD35O,2.0000X3.0000*%
%ADD36C,1.8000*%
%ADD37C,0.2000*%
%ADD38O,3.0000X2.0000*%
%ADD39C,0.6000*%
G36*
X672393Y397892D02*
Y365760D01*
X594360D01*
X579120Y350520D01*
X508266D01*
Y397893D01*
X672393Y397892D01*
D02*
G37*
G36*
X503168Y397392D02*
Y371582D01*
X503087Y370760D01*
Y360760D01*
X503168Y359938D01*
Y350520D01*
Y274320D01*
X510595D01*
Y208418D01*
X510160Y206793D01*
Y204687D01*
X510705Y202652D01*
X511758Y200828D01*
X513248Y199338D01*
X515072Y198285D01*
X517107Y197740D01*
X519213D01*
X521248Y198285D01*
X523072Y199338D01*
X524562Y200828D01*
X525615Y202652D01*
X526160Y204687D01*
Y206793D01*
X525725Y208418D01*
Y274320D01*
X597454D01*
X597969Y273078D01*
X599171Y271511D01*
X610563Y260119D01*
X610563Y260119D01*
X612130Y258917D01*
X613954Y258161D01*
X615912Y257903D01*
X615912Y257903D01*
X639625D01*
X640135Y257393D01*
Y248159D01*
X638865Y247818D01*
X637432Y250300D01*
X635012Y252721D01*
X632048Y254432D01*
X628741Y255318D01*
X625318D01*
X622012Y254432D01*
X619048Y252721D01*
X616627Y250300D01*
X614916Y247336D01*
X614030Y244029D01*
Y240606D01*
X614916Y237300D01*
X616627Y234336D01*
X619048Y231915D01*
X622012Y230204D01*
X625318Y229318D01*
X628741D01*
X632048Y230204D01*
X635012Y231915D01*
X637432Y234336D01*
X638865Y236817D01*
X640135Y236477D01*
Y203793D01*
X638725Y202383D01*
X543952D01*
X542327Y202818D01*
X540221D01*
X538186Y202273D01*
X536362Y201220D01*
X534872Y199730D01*
X533819Y197906D01*
X533274Y195871D01*
Y193765D01*
X533819Y191730D01*
X534872Y189906D01*
X536362Y188416D01*
X538186Y187363D01*
X540221Y186818D01*
X542327D01*
X543093Y187023D01*
X543930Y185933D01*
X543217Y184698D01*
X542672Y182663D01*
Y180557D01*
X543217Y178522D01*
X544270Y176698D01*
X545760Y175208D01*
X547584Y174155D01*
X549619Y173610D01*
X551725D01*
X553760Y174155D01*
X554449Y174553D01*
X649478D01*
X651436Y174811D01*
X653260Y175567D01*
X654827Y176769D01*
X668289Y190231D01*
X669491Y191798D01*
X670247Y193622D01*
X670505Y195580D01*
X670505Y195580D01*
Y274320D01*
X671892D01*
Y79000D01*
X671892Y5608D01*
X615420D01*
X563898D01*
Y106202D01*
X579454Y121758D01*
X620210D01*
X620550Y120488D01*
X619048Y119621D01*
X616627Y117200D01*
X614916Y114236D01*
X614030Y110929D01*
Y107506D01*
X614916Y104200D01*
X616627Y101236D01*
X619048Y98815D01*
X622012Y97104D01*
X625318Y96218D01*
X628741D01*
X632048Y97104D01*
X635012Y98815D01*
X637432Y101236D01*
X639144Y104200D01*
X640030Y107506D01*
Y110929D01*
X639144Y114236D01*
X637432Y117200D01*
X635012Y119621D01*
X633273Y120625D01*
X633494Y121964D01*
X634411Y122146D01*
X636065Y123251D01*
X637170Y124905D01*
X637558Y126856D01*
Y154034D01*
X637170Y155985D01*
X636065Y157639D01*
X634411Y158744D01*
X632460Y159132D01*
X547862D01*
X389082Y317911D01*
Y347104D01*
X390352Y347320D01*
X391881Y344671D01*
X394255Y342297D01*
X397163Y340619D01*
X400405Y339750D01*
X403762D01*
X407005Y340619D01*
X409912Y342297D01*
X412286Y344671D01*
X413965Y347579D01*
X414834Y350821D01*
Y354178D01*
X413965Y357421D01*
X412286Y360328D01*
X409912Y362702D01*
X407005Y364381D01*
X403762Y365250D01*
X400405D01*
X397163Y364381D01*
X394255Y362702D01*
X391881Y360328D01*
X390203Y357421D01*
X389747Y355720D01*
X388371Y355493D01*
X387589Y356665D01*
X385935Y357770D01*
X383984Y358158D01*
X350520D01*
X348569Y357770D01*
X346915Y356665D01*
X345810Y355011D01*
X345422Y353060D01*
Y238760D01*
X345810Y236809D01*
X346915Y235155D01*
X420575Y161495D01*
X422229Y160390D01*
X424180Y160002D01*
X476026D01*
X511284Y124744D01*
X511284Y37212D01*
X375540Y37212D01*
Y72754D01*
X375152Y74705D01*
X374047Y76359D01*
X372393Y77464D01*
X371520Y77637D01*
X371102Y79015D01*
X372645Y80558D01*
X373507Y82051D01*
X374777D01*
X375639Y80558D01*
X378246Y77951D01*
X381438Y76108D01*
X384999Y75154D01*
X388685D01*
X392246Y76108D01*
X395438Y77951D01*
X398045Y80558D01*
X398907Y82051D01*
X400177D01*
X401039Y80558D01*
X403646Y77951D01*
X406838Y76108D01*
X410399Y75154D01*
X414085D01*
X417646Y76108D01*
X420838Y77951D01*
X423445Y80558D01*
X424307Y82051D01*
X425577D01*
X426439Y80558D01*
X429046Y77951D01*
X432238Y76108D01*
X435799Y75154D01*
X439485D01*
X443046Y76108D01*
X446238Y77951D01*
X448845Y80558D01*
X449707Y82051D01*
X450977D01*
X451839Y80558D01*
X454446Y77951D01*
X455939Y77089D01*
Y75819D01*
X454446Y74957D01*
X451839Y72350D01*
X449996Y69158D01*
X449042Y65597D01*
Y61911D01*
X449996Y58350D01*
X451839Y55158D01*
X454446Y52551D01*
X457638Y50708D01*
X461199Y49754D01*
X464885D01*
X468446Y50708D01*
X471638Y52551D01*
X474245Y55158D01*
X476088Y58350D01*
X477042Y61911D01*
Y65597D01*
X476088Y69158D01*
X474245Y72350D01*
X471638Y74957D01*
X470145Y75819D01*
Y77089D01*
X471638Y77951D01*
X474245Y80558D01*
X476088Y83750D01*
X477042Y87311D01*
Y90997D01*
X476088Y94558D01*
X474245Y97750D01*
X471638Y100357D01*
X470607Y100952D01*
Y116078D01*
X470349Y118036D01*
X469593Y119860D01*
X468391Y121427D01*
X444769Y145049D01*
X443202Y146251D01*
X441378Y147007D01*
X439420Y147265D01*
X333678D01*
X284425Y196518D01*
Y370840D01*
X284167Y372798D01*
X283411Y374622D01*
X282209Y376189D01*
X282209Y376189D01*
X274829Y383569D01*
X273262Y384771D01*
X271438Y385527D01*
X269480Y385784D01*
X255662D01*
X254037Y386220D01*
X251931D01*
X249896Y385675D01*
X248072Y384621D01*
X246582Y383132D01*
X245529Y381308D01*
X244984Y379273D01*
Y377167D01*
X245529Y375132D01*
X246363Y373687D01*
X246275Y373496D01*
X245479Y372679D01*
X244542Y373067D01*
X242584Y373325D01*
X198120D01*
X198120Y373325D01*
X196162Y373067D01*
X194338Y372311D01*
X192771Y371109D01*
X192771Y371109D01*
X184135Y362473D01*
X182933Y360906D01*
X182177Y359082D01*
X181919Y357124D01*
Y350418D01*
X181484Y348793D01*
Y346687D01*
X182029Y344652D01*
X183082Y342828D01*
X184572Y341338D01*
X186396Y340285D01*
X188431Y339740D01*
X190537D01*
X192572Y340285D01*
X193349Y340734D01*
X194619Y340001D01*
Y168656D01*
X194877Y166698D01*
X195633Y164874D01*
X196835Y163307D01*
X226877Y133265D01*
Y100952D01*
X225846Y100357D01*
X223239Y97750D01*
X221396Y94558D01*
X220442Y90997D01*
Y87311D01*
X221396Y83750D01*
X223239Y80558D01*
X225846Y77951D01*
X227339Y77089D01*
Y75819D01*
X225846Y74957D01*
X223239Y72350D01*
X221396Y69158D01*
X220442Y65597D01*
Y61911D01*
X221396Y58350D01*
X223239Y55158D01*
X225846Y52551D01*
X229038Y50708D01*
X232599Y49754D01*
X236285D01*
X239846Y50708D01*
X243038Y52551D01*
X245645Y55158D01*
X246507Y56651D01*
X247777D01*
X248639Y55158D01*
X251246Y52551D01*
X254438Y50708D01*
X257999Y49754D01*
X261685D01*
X265246Y50708D01*
X268438Y52551D01*
X271045Y55158D01*
X271907Y56651D01*
X273177D01*
X274039Y55158D01*
X276646Y52551D01*
X279838Y50708D01*
X283399Y49754D01*
X287085D01*
X290646Y50708D01*
X293838Y52551D01*
X295274Y53987D01*
X296544Y53461D01*
X296544Y5608D01*
X295274Y5608D01*
X5608Y5608D01*
X5608Y324000D01*
X5608Y397393D01*
X95420D01*
X503168Y397392D01*
D02*
G37*
G36*
X383984Y315800D02*
X545750Y154034D01*
X632460D01*
Y126856D01*
X577342D01*
X558800Y108314D01*
Y5608D01*
X301642Y5608D01*
X301642Y72754D01*
X370442D01*
Y32114D01*
X516382Y32114D01*
X516382Y126856D01*
X478138Y165100D01*
X424180D01*
X350520Y238760D01*
Y353060D01*
X383984D01*
Y315800D01*
D02*
G37*
%LPC*%
G36*
X553109Y383500D02*
X549291D01*
X545603Y382512D01*
X542297Y380603D01*
X539597Y377903D01*
X537688Y374597D01*
X536700Y370909D01*
Y367091D01*
X537688Y363403D01*
X539597Y360097D01*
X542297Y357397D01*
X545603Y355488D01*
X549291Y354500D01*
X553109D01*
X556797Y355488D01*
X560103Y357397D01*
X562803Y360097D01*
X564712Y363403D01*
X565700Y367091D01*
Y370909D01*
X564712Y374597D01*
X562803Y377903D01*
X560103Y380603D01*
X556797Y382512D01*
X553109Y383500D01*
D02*
G37*
G36*
X35424Y386500D02*
X31976D01*
X28595Y385828D01*
X25410Y384509D01*
X22544Y382593D01*
X20107Y380156D01*
X18192Y377290D01*
X16872Y374105D01*
X16200Y370724D01*
Y367277D01*
X16872Y363896D01*
X18192Y360711D01*
X20107Y357845D01*
X22544Y355407D01*
X25410Y353492D01*
X28595Y352173D01*
X31976Y351500D01*
X35424D01*
X38804Y352173D01*
X41989Y353492D01*
X44855Y355407D01*
X47293Y357845D01*
X49208Y360711D01*
X50527Y363896D01*
X51200Y367277D01*
Y370724D01*
X50527Y374105D01*
X49208Y377290D01*
X47293Y380156D01*
X44855Y382593D01*
X41989Y384509D01*
X38804Y385828D01*
X35424Y386500D01*
D02*
G37*
G36*
X169062Y365250D02*
X165705D01*
X162463Y364381D01*
X159555Y362702D01*
X157181Y360328D01*
X155503Y357421D01*
X154634Y354178D01*
Y350821D01*
X155503Y347579D01*
X157181Y344671D01*
X159555Y342297D01*
X162463Y340619D01*
X165705Y339750D01*
X169062D01*
X172305Y340619D01*
X175212Y342297D01*
X177586Y344671D01*
X179265Y347579D01*
X180134Y350821D01*
Y354178D01*
X179265Y357421D01*
X177586Y360328D01*
X175212Y362702D01*
X172305Y364381D01*
X169062Y365250D01*
D02*
G37*
G36*
X45466Y288452D02*
X42203Y288022D01*
X39162Y286763D01*
X36551Y284759D01*
X34547Y282148D01*
X33288Y279107D01*
X32858Y275844D01*
X33288Y272581D01*
X34547Y269540D01*
X36551Y266929D01*
X39162Y264925D01*
X42203Y263666D01*
X45466Y263236D01*
X48729Y263666D01*
X51770Y264925D01*
X54381Y266929D01*
X56385Y269540D01*
X57644Y272581D01*
X58074Y275844D01*
X57644Y279107D01*
X56385Y282148D01*
X54381Y284759D01*
X51770Y286763D01*
X48729Y288022D01*
X45466Y288452D01*
D02*
G37*
G36*
X536993Y228980D02*
X534887D01*
X532852Y228435D01*
X531028Y227382D01*
X529538Y225892D01*
X528485Y224068D01*
X527940Y222033D01*
Y219927D01*
X528485Y217892D01*
X529538Y216068D01*
X531028Y214578D01*
X532852Y213525D01*
X534887Y212980D01*
X536993D01*
X538618Y213415D01*
X618029D01*
X619214Y212731D01*
X621249Y212186D01*
X623355D01*
X625390Y212731D01*
X627214Y213784D01*
X628703Y215274D01*
X629757Y217098D01*
X630302Y219133D01*
Y221239D01*
X629757Y223274D01*
X628703Y225098D01*
X627214Y226587D01*
X625390Y227641D01*
X623593Y228122D01*
X623195Y228287D01*
X621237Y228545D01*
X538618D01*
X536993Y228980D01*
D02*
G37*
G36*
X139528Y91348D02*
X136265Y90918D01*
X133224Y89659D01*
X130613Y87655D01*
X128609Y85044D01*
X127350Y82003D01*
X126920Y78740D01*
X127350Y75477D01*
X128609Y72436D01*
X130613Y69825D01*
X133224Y67821D01*
X136265Y66562D01*
X139528Y66132D01*
X142791Y66562D01*
X145832Y67821D01*
X148443Y69825D01*
X150447Y72436D01*
X151706Y75477D01*
X152136Y78740D01*
X151706Y82003D01*
X150447Y85044D01*
X148443Y87655D01*
X145832Y89659D01*
X142791Y90918D01*
X139528Y91348D01*
D02*
G37*
G36*
X128209Y48500D02*
X124391D01*
X120703Y47512D01*
X117397Y45603D01*
X114697Y42903D01*
X112788Y39597D01*
X111800Y35909D01*
Y32091D01*
X112788Y28403D01*
X114697Y25097D01*
X117397Y22397D01*
X120703Y20488D01*
X124391Y19500D01*
X128209D01*
X131897Y20488D01*
X135203Y22397D01*
X137903Y25097D01*
X139812Y28403D01*
X140800Y32091D01*
Y35909D01*
X139812Y39597D01*
X137903Y42903D01*
X135203Y45603D01*
X131897Y47512D01*
X128209Y48500D01*
D02*
G37*
G36*
X582504Y43596D02*
X579241Y43166D01*
X576200Y41907D01*
X573589Y39903D01*
X571585Y37292D01*
X570326Y34251D01*
X569896Y30988D01*
X570326Y27725D01*
X571585Y24684D01*
X573589Y22073D01*
X576200Y20069D01*
X579241Y18810D01*
X582504Y18380D01*
X585767Y18810D01*
X588808Y20069D01*
X591419Y22073D01*
X593423Y24684D01*
X594682Y27725D01*
X595112Y30988D01*
X594682Y34251D01*
X593423Y37292D01*
X591419Y39903D01*
X588808Y41907D01*
X585767Y43166D01*
X582504Y43596D01*
D02*
G37*
G36*
X645424Y51500D02*
X641976D01*
X638596Y50827D01*
X635411Y49508D01*
X632545Y47593D01*
X630107Y45156D01*
X628192Y42289D01*
X626873Y39104D01*
X626200Y35724D01*
Y32276D01*
X626873Y28895D01*
X628192Y25710D01*
X630107Y22844D01*
X632545Y20407D01*
X635411Y18492D01*
X638596Y17172D01*
X641976Y16500D01*
X645424D01*
X648805Y17172D01*
X651990Y18492D01*
X654856Y20407D01*
X657293Y22844D01*
X659208Y25710D01*
X660528Y28895D01*
X661200Y32276D01*
Y35724D01*
X660528Y39104D01*
X659208Y42289D01*
X657293Y45156D01*
X654856Y47593D01*
X651990Y49508D01*
X648805Y50827D01*
X645424Y51500D01*
D02*
G37*
%LPD*%
D19*
X582504Y30988D02*
D03*
X139528Y78740D02*
D03*
X45466Y275844D02*
D03*
D26*
X167384Y352500D02*
D03*
X402084D02*
D03*
D27*
X627030Y109218D02*
D03*
Y242318D02*
D03*
D33*
X551451Y182118D02*
X649478D01*
X662940Y195580D01*
X541274Y194818D02*
X641858D01*
X541139D02*
X541274D01*
X641858D02*
X647700Y200660D01*
X621237Y220980D02*
X622029Y220188D01*
X535940Y220980D02*
X621237D01*
X622029Y220188D02*
X622300D01*
X518160Y205740D02*
Y365760D01*
X189484Y347740D02*
Y357124D01*
X198120Y365760D02*
X242584D01*
X189484Y357124D02*
X198120Y365760D01*
X242584D02*
X252984Y355360D01*
X604520Y276860D02*
Y328845D01*
X613495Y337820D02*
X637540D01*
X604520Y328845D02*
X613495Y337820D01*
X662940Y195580D02*
Y296475D01*
X637540Y299720D02*
X659695D01*
X662940Y296475D01*
X336042Y89154D02*
Y105918D01*
X252984Y188976D02*
X336042Y105918D01*
X331642Y124460D02*
X429260D01*
X330544Y139700D02*
X439420D01*
X265684Y190418D02*
Y347740D01*
Y190418D02*
X331642Y124460D01*
X252984Y188976D02*
Y355360D01*
X276860Y193384D02*
Y370840D01*
Y193384D02*
X330544Y139700D01*
X269480Y378220D02*
X276860Y370840D01*
X312420Y90932D02*
Y104140D01*
X240284Y176276D02*
Y347740D01*
Y176276D02*
X312420Y104140D01*
X227584Y173736D02*
X285242Y116078D01*
X227584Y173736D02*
Y347740D01*
X285242Y89154D02*
Y116078D01*
X214884Y171334D02*
X261620Y124598D01*
X214884Y171334D02*
Y347740D01*
X261620Y90932D02*
Y124598D01*
X234442Y89154D02*
Y136398D01*
X202184Y168656D02*
X234442Y136398D01*
X202184Y168656D02*
Y347740D01*
X604520Y276860D02*
X615912Y265468D01*
X642758D01*
X647700Y260526D01*
Y200660D02*
Y260526D01*
X439420Y139700D02*
X463042Y116078D01*
X429260Y124460D02*
X437642Y116078D01*
Y89154D02*
Y116078D01*
X463042Y89154D02*
Y116078D01*
X252984Y378220D02*
X269480D01*
X310642Y89154D02*
X312420Y90932D01*
X259842Y89154D02*
X261620Y90932D01*
D34*
X622300Y220188D02*
X622302Y220186D01*
D35*
X518160Y365760D02*
D03*
X492760D02*
D03*
D36*
X234442Y89154D02*
D03*
X259842D02*
D03*
X285242D02*
D03*
X310642D02*
D03*
X336042D02*
D03*
X361442D02*
D03*
X386842D02*
D03*
X412242D02*
D03*
X437642D02*
D03*
X463042D02*
D03*
X234442Y63754D02*
D03*
X259842D02*
D03*
X285242D02*
D03*
X310642D02*
D03*
X336042D02*
D03*
X361442D02*
D03*
X386842D02*
D03*
X412242D02*
D03*
X437642D02*
D03*
X463042D02*
D03*
D37*
X643700Y34000D02*
D03*
X33700Y369000D02*
D03*
D38*
X637540Y299720D02*
D03*
Y337820D02*
D03*
Y375920D02*
D03*
D39*
X550672Y181610D02*
D03*
X541274Y194818D02*
D03*
X535940Y220980D02*
D03*
X518160Y205740D02*
D03*
X622302Y220186D02*
D03*
X622270Y144018D02*
D03*
Y131318D02*
D03*
X265684Y347740D02*
D03*
X379984D02*
D03*
X367284D02*
D03*
X354584D02*
D03*
X341884D02*
D03*
X329184D02*
D03*
X316484D02*
D03*
X252984Y378220D02*
D03*
X240284Y347740D02*
D03*
X227584D02*
D03*
X214884D02*
D03*
X202184D02*
D03*
X189484D02*
D03*
M02*
