G04*
G04 #@! TF.GenerationSoftware,Altium Limited,Altium Designer,23.8.1 (32)*
G04*
G04 Layer_Color=2752767*
%FSLAX44Y44*%
%MOMM*%
G71*
G04*
G04 #@! TF.SameCoordinates,9A5F4E38-F979-48D4-9C3D-4FC56E0EA2F6*
G04*
G04*
G04 #@! TF.FilePolarity,Positive*
G04*
G01*
G75*
%ADD13C,0.1270*%
%ADD41C,0.1693*%
D13*
X513080Y360680D02*
X515620D01*
X518160Y363220D01*
X520700Y360680D01*
X523240D01*
Y363220D01*
X520700Y365760D01*
X523240Y368300D01*
Y370840D01*
X520700D01*
X518160Y368300D01*
X515620Y370840D01*
X513080D01*
Y368300D01*
X515620Y365760D01*
X513080Y363220D01*
Y360680D01*
X487680D02*
X490220D01*
X492760Y363220D01*
X495300Y360680D01*
X497840D01*
Y363220D01*
X495300Y365760D01*
X497840Y368300D01*
Y370840D01*
X495300D01*
X492760Y368300D01*
X490220Y370840D01*
X487680D01*
Y368300D01*
X490220Y365760D01*
X487680Y363220D01*
Y360680D01*
X167384Y347420D02*
X162304Y357580D01*
X172464D01*
X167384Y347420D01*
X402084D02*
X397004Y357580D01*
X407164D01*
X402084Y347420D01*
X621950Y104138D02*
Y114298D01*
X632110D01*
Y104138D01*
X621950D01*
Y237238D02*
Y247398D01*
X632110D01*
Y237238D01*
X621950D01*
X638620Y34000D02*
X643700Y39080D01*
X648780Y34000D01*
X643700Y28920D01*
X638620Y34000D01*
X28620Y369000D02*
X33700Y374080D01*
X38780Y369000D01*
X33700Y363920D01*
X28620Y369000D01*
X637540Y294640D02*
X640080Y297180D01*
X642620D01*
X640080Y299720D01*
X642620Y302260D01*
X640080D01*
X637540Y304800D01*
X635000Y302260D01*
X632460D01*
X635000Y299720D01*
X632460Y297180D01*
X635000D01*
X637540Y294640D01*
Y332740D02*
X640080Y335280D01*
X642620D01*
X640080Y337820D01*
X642620Y340360D01*
X640080D01*
X637540Y342900D01*
X635000Y340360D01*
X632460D01*
X635000Y337820D01*
X632460Y335280D01*
X635000D01*
X637540Y332740D01*
Y370840D02*
X640080Y373380D01*
X642620D01*
X640080Y375920D01*
X642620Y378460D01*
X640080D01*
X637540Y381000D01*
X635000Y378460D01*
X632460D01*
X635000Y375920D01*
X632460Y373380D01*
X635000D01*
X637540Y370840D01*
X546120Y363920D02*
X548660Y369000D01*
X546120Y374080D01*
X551200Y371540D01*
X556280Y374080D01*
X553740Y369000D01*
X556280Y363920D01*
X551200Y366460D01*
X546120Y363920D01*
X121220Y28920D02*
X123760Y34000D01*
X121220Y39080D01*
X126300Y36540D01*
X131380Y39080D01*
X128840Y34000D01*
X131380Y28920D01*
X126300Y31460D01*
X121220Y28920D01*
X548132Y179070D02*
Y176530D01*
X553212D01*
Y179070D01*
X555752D01*
Y184150D01*
X553212D01*
Y186690D01*
X548132D01*
Y184150D01*
X545592D01*
Y179070D01*
X548132D01*
X538734Y192278D02*
Y189738D01*
X543814D01*
Y192278D01*
X546354D01*
Y197358D01*
X543814D01*
Y199898D01*
X538734D01*
Y197358D01*
X536194D01*
Y192278D01*
X538734D01*
X533400Y218440D02*
Y215900D01*
X538480D01*
Y218440D01*
X541020D01*
Y223520D01*
X538480D01*
Y226060D01*
X533400D01*
Y223520D01*
X530860D01*
Y218440D01*
X533400D01*
X515620Y203200D02*
Y200660D01*
X520700D01*
Y203200D01*
X523240D01*
Y208280D01*
X520700D01*
Y210820D01*
X515620D01*
Y208280D01*
X513080D01*
Y203200D01*
X515620D01*
X619762Y217646D02*
Y215106D01*
X624842D01*
Y217646D01*
X627382D01*
Y222726D01*
X624842D01*
Y225266D01*
X619762D01*
Y222726D01*
X617222D01*
Y217646D01*
X619762D01*
X619730Y141478D02*
Y138938D01*
X624810D01*
Y141478D01*
X627350D01*
Y146558D01*
X624810D01*
Y149098D01*
X619730D01*
Y146558D01*
X617190D01*
Y141478D01*
X619730D01*
Y128778D02*
Y126238D01*
X624810D01*
Y128778D01*
X627350D01*
Y133858D01*
X624810D01*
Y136398D01*
X619730D01*
Y133858D01*
X617190D01*
Y128778D01*
X619730D01*
X263144Y345200D02*
Y342660D01*
X268224D01*
Y345200D01*
X270764D01*
Y350280D01*
X268224D01*
Y352820D01*
X263144D01*
Y350280D01*
X260604D01*
Y345200D01*
X263144D01*
X377444D02*
Y342660D01*
X382524D01*
Y345200D01*
X385064D01*
Y350280D01*
X382524D01*
Y352820D01*
X377444D01*
Y350280D01*
X374904D01*
Y345200D01*
X377444D01*
X364744D02*
Y342660D01*
X369824D01*
Y345200D01*
X372364D01*
Y350280D01*
X369824D01*
Y352820D01*
X364744D01*
Y350280D01*
X362204D01*
Y345200D01*
X364744D01*
X352044D02*
Y342660D01*
X357124D01*
Y345200D01*
X359664D01*
Y350280D01*
X357124D01*
Y352820D01*
X352044D01*
Y350280D01*
X349504D01*
Y345200D01*
X352044D01*
X339344D02*
Y342660D01*
X344424D01*
Y345200D01*
X346964D01*
Y350280D01*
X344424D01*
Y352820D01*
X339344D01*
Y350280D01*
X336804D01*
Y345200D01*
X339344D01*
X326644D02*
Y342660D01*
X331724D01*
Y345200D01*
X334264D01*
Y350280D01*
X331724D01*
Y352820D01*
X326644D01*
Y350280D01*
X324104D01*
Y345200D01*
X326644D01*
X313944D02*
Y342660D01*
X319024D01*
Y345200D01*
X321564D01*
Y350280D01*
X319024D01*
Y352820D01*
X313944D01*
Y350280D01*
X311404D01*
Y345200D01*
X313944D01*
X250444Y375680D02*
Y373140D01*
X255524D01*
Y375680D01*
X258064D01*
Y380760D01*
X255524D01*
Y383300D01*
X250444D01*
Y380760D01*
X247904D01*
Y375680D01*
X250444D01*
X237744Y345200D02*
Y342660D01*
X242824D01*
Y345200D01*
X245364D01*
Y350280D01*
X242824D01*
Y352820D01*
X237744D01*
Y350280D01*
X235204D01*
Y345200D01*
X237744D01*
X225044D02*
Y342660D01*
X230124D01*
Y345200D01*
X232664D01*
Y350280D01*
X230124D01*
Y352820D01*
X225044D01*
Y350280D01*
X222504D01*
Y345200D01*
X225044D01*
X212344D02*
Y342660D01*
X217424D01*
Y345200D01*
X219964D01*
Y350280D01*
X217424D01*
Y352820D01*
X212344D01*
Y350280D01*
X209804D01*
Y345200D01*
X212344D01*
X199644D02*
Y342660D01*
X204724D01*
Y345200D01*
X207264D01*
Y350280D01*
X204724D01*
Y352820D01*
X199644D01*
Y350280D01*
X197104D01*
Y345200D01*
X199644D01*
X186944D02*
Y342660D01*
X192024D01*
Y345200D01*
X194564D01*
Y350280D01*
X192024D01*
Y352820D01*
X186944D01*
Y350280D01*
X184404D01*
Y345200D01*
X186944D01*
D41*
X239522Y89154D02*
G03*
X239522Y89154I-5080J0D01*
G01*
X264922D02*
G03*
X264922Y89154I-5080J0D01*
G01*
X290322D02*
G03*
X290322Y89154I-5080J0D01*
G01*
X315722D02*
G03*
X315722Y89154I-5080J0D01*
G01*
X341122D02*
G03*
X341122Y89154I-5080J0D01*
G01*
X366522D02*
G03*
X366522Y89154I-5080J0D01*
G01*
X391922D02*
G03*
X391922Y89154I-5080J0D01*
G01*
X417322D02*
G03*
X417322Y89154I-5080J0D01*
G01*
X442722D02*
G03*
X442722Y89154I-5080J0D01*
G01*
X468122D02*
G03*
X468122Y89154I-5080J0D01*
G01*
X239522Y63754D02*
G03*
X239522Y63754I-5080J0D01*
G01*
X264922D02*
G03*
X264922Y63754I-5080J0D01*
G01*
X290322D02*
G03*
X290322Y63754I-5080J0D01*
G01*
X315722D02*
G03*
X315722Y63754I-5080J0D01*
G01*
X341122D02*
G03*
X341122Y63754I-5080J0D01*
G01*
X366522D02*
G03*
X366522Y63754I-5080J0D01*
G01*
X391922D02*
G03*
X391922Y63754I-5080J0D01*
G01*
X417322D02*
G03*
X417322Y63754I-5080J0D01*
G01*
X442722D02*
G03*
X442722Y63754I-5080J0D01*
G01*
X468122D02*
G03*
X468122Y63754I-5080J0D01*
G01*
M02*
