G04*
G04 #@! TF.GenerationSoftware,Altium Limited,Altium Designer,23.8.1 (32)*
G04*
G04 Layer_Color=65535*
%FSLAX44Y44*%
%MOMM*%
G71*
G04*
G04 #@! TF.SameCoordinates,372F65C9-6F4F-413F-B500-709901E0D80A*
G04*
G04*
G04 #@! TF.FilePolarity,Positive*
G04*
G01*
G75*
%ADD10C,0.5080*%
%ADD11C,0.1016*%
%ADD12C,0.1500*%
%ADD13C,0.1270*%
%ADD14C,0.1778*%
G36*
X318340Y198075D02*
X327230D01*
Y177755D01*
X318340Y168865D01*
Y198075D01*
D02*
G37*
G36*
X189484Y313514D02*
X185674Y309704D01*
X193294D01*
X189484Y313514D01*
D02*
G37*
G36*
X318340Y223475D02*
X327230Y232365D01*
Y204425D01*
X318340D01*
Y223475D01*
D02*
G37*
G36*
X328500Y204425D02*
X334850Y198075D01*
X347550D01*
X341200Y204425D01*
X328500D01*
D02*
G37*
G36*
X348820Y212045D02*
X357710Y220935D01*
Y195535D01*
X348820Y186645D01*
Y212045D01*
D02*
G37*
G36*
X584068Y216750D02*
X587536Y220218D01*
X584068Y223686D01*
Y216750D01*
D02*
G37*
G36*
X569062Y234737D02*
X569168Y234727D01*
X569274D01*
X569400Y234705D01*
X569665Y234674D01*
X569961Y234610D01*
X570277Y234536D01*
X570584Y234431D01*
X570594D01*
X570616Y234420D01*
X570658Y234399D01*
X570721Y234378D01*
X570785Y234346D01*
X570869Y234304D01*
X571049Y234219D01*
X571260Y234103D01*
X571482Y233966D01*
X571704Y233807D01*
X571915Y233628D01*
X571926Y233617D01*
X571936Y233606D01*
X572000Y233543D01*
X572095Y233437D01*
X572222Y233300D01*
X572349Y233141D01*
X572496Y232941D01*
X572634Y232729D01*
X572761Y232497D01*
Y232486D01*
X572771Y232465D01*
X572792Y232434D01*
X572813Y232381D01*
X572835Y232317D01*
X572866Y232243D01*
X572909Y232159D01*
X572940Y232064D01*
X572982Y231958D01*
X573025Y231842D01*
X573099Y231578D01*
X573183Y231271D01*
X573257Y230944D01*
Y230923D01*
X573268Y230870D01*
X573278Y230764D01*
X573289Y230627D01*
X573310Y230447D01*
Y230341D01*
X573321Y230225D01*
Y230098D01*
X573331Y229961D01*
Y225586D01*
X573088D01*
Y225946D01*
X573078Y226020D01*
Y226104D01*
X573035Y226305D01*
X573014Y226400D01*
X572972Y226485D01*
X572961Y226495D01*
X572951Y226516D01*
X572919Y226559D01*
X572877Y226601D01*
X572771Y226707D01*
X572634Y226802D01*
X572623D01*
X572602Y226812D01*
X572549Y226823D01*
X572475Y226833D01*
X572359Y226844D01*
X572285Y226854D01*
X572211D01*
X572116D01*
X572021Y226865D01*
X571905D01*
X571778D01*
X565787D01*
X565776D01*
X565755D01*
X565723D01*
X565671D01*
X565554D01*
X565417Y226854D01*
X565269Y226844D01*
X565132Y226833D01*
X565005Y226812D01*
X564963Y226802D01*
X564920Y226791D01*
X564910D01*
X564889Y226780D01*
X564857Y226759D01*
X564815Y226728D01*
X564762Y226685D01*
X564720Y226633D01*
X564667Y226569D01*
X564614Y226485D01*
X564603Y226474D01*
X564593Y226442D01*
X564572Y226390D01*
X564540Y226326D01*
X564519Y226242D01*
X564498Y226136D01*
X564487Y226020D01*
X564477Y225882D01*
Y225586D01*
X564234D01*
Y229813D01*
X564244Y229929D01*
Y230067D01*
X564255Y230225D01*
X564265Y230405D01*
X564286Y230595D01*
X564308Y230796D01*
X564339Y231007D01*
X564424Y231451D01*
X564529Y231874D01*
X564603Y232085D01*
X564677Y232275D01*
X564688Y232286D01*
X564698Y232328D01*
X564730Y232391D01*
X564783Y232476D01*
X564836Y232582D01*
X564910Y232698D01*
X564994Y232824D01*
X565089Y232962D01*
X565195Y233110D01*
X565322Y233258D01*
X565459Y233416D01*
X565607Y233564D01*
X565766Y233712D01*
X565935Y233860D01*
X566125Y233987D01*
X566326Y234114D01*
X566336Y234124D01*
X566379Y234145D01*
X566431Y234177D01*
X566516Y234209D01*
X566622Y234262D01*
X566748Y234314D01*
X566886Y234367D01*
X567044Y234431D01*
X567224Y234494D01*
X567414Y234547D01*
X567625Y234600D01*
X567837Y234653D01*
X568069Y234684D01*
X568312Y234716D01*
X568566Y234737D01*
X568819Y234748D01*
X568830D01*
X568862D01*
X568914D01*
X568978D01*
X569062Y234737D01*
D02*
G37*
G36*
X573331Y222670D02*
X569189Y219743D01*
Y219152D01*
X571746D01*
X571757D01*
X571778D01*
X571820D01*
X571862D01*
X571989D01*
X572137Y219162D01*
X572296Y219173D01*
X572454Y219183D01*
X572581Y219204D01*
X572634Y219226D01*
X572676Y219236D01*
X572687D01*
X572708Y219257D01*
X572739Y219278D01*
X572782Y219310D01*
X572835Y219352D01*
X572887Y219405D01*
X572940Y219479D01*
X572982Y219553D01*
Y219564D01*
X573004Y219595D01*
X573014Y219659D01*
X573035Y219743D01*
X573056Y219860D01*
X573067Y220007D01*
X573088Y220198D01*
Y220409D01*
X573331D01*
Y215760D01*
X573088D01*
Y215865D01*
X573078Y215971D01*
Y216098D01*
X573056Y216235D01*
X573035Y216383D01*
X573014Y216510D01*
X572972Y216605D01*
X572961Y216616D01*
X572951Y216637D01*
X572930Y216679D01*
X572887Y216732D01*
X572803Y216838D01*
X572739Y216880D01*
X572676Y216922D01*
X572665D01*
X572634Y216933D01*
X572581Y216954D01*
X572486Y216975D01*
X572370Y216985D01*
X572285Y216996D01*
X572201Y217007D01*
X572105D01*
X572000Y217017D01*
X571873D01*
X571746D01*
X565818D01*
X565808D01*
X565787D01*
X565745D01*
X565702D01*
X565575D01*
X565428Y217007D01*
X565269Y216996D01*
X565121Y216975D01*
X564994Y216954D01*
X564941Y216943D01*
X564899Y216922D01*
X564889D01*
X564868Y216901D01*
X564836Y216880D01*
X564794Y216848D01*
X564741Y216806D01*
X564688Y216742D01*
X564635Y216679D01*
X564593Y216595D01*
X564582Y216584D01*
X564572Y216552D01*
X564551Y216489D01*
X564529Y216404D01*
X564508Y216299D01*
X564498Y216151D01*
X564477Y215971D01*
Y215760D01*
X564234D01*
Y220250D01*
X564244Y220377D01*
Y220536D01*
X564255Y220715D01*
X564265Y220895D01*
X564286Y221286D01*
X564329Y221688D01*
X564360Y221878D01*
X564392Y222068D01*
X564424Y222237D01*
X564466Y222385D01*
Y222395D01*
X564477Y222417D01*
X564487Y222459D01*
X564508Y222512D01*
X564540Y222575D01*
X564572Y222660D01*
X564656Y222829D01*
X564772Y223029D01*
X564920Y223241D01*
X565100Y223452D01*
X565311Y223642D01*
X565322Y223653D01*
X565343Y223664D01*
X565375Y223685D01*
X565417Y223716D01*
X565480Y223759D01*
X565544Y223801D01*
X565628Y223843D01*
X565723Y223885D01*
X565935Y223970D01*
X566178Y224054D01*
X566452Y224107D01*
X566600Y224128D01*
X566748D01*
X566759D01*
X566791D01*
X566843D01*
X566917Y224118D01*
X567002Y224107D01*
X567097Y224086D01*
X567213Y224065D01*
X567329Y224033D01*
X567456Y224002D01*
X567594Y223949D01*
X567731Y223896D01*
X567868Y223822D01*
X568006Y223737D01*
X568143Y223642D01*
X568280Y223526D01*
X568407Y223399D01*
X568428Y223378D01*
X568450Y223347D01*
X568481Y223315D01*
X568555Y223209D01*
X568640Y223061D01*
X568745Y222882D01*
X568851Y222660D01*
X568957Y222395D01*
X569041Y222100D01*
X572116Y224287D01*
X572127D01*
X572137Y224308D01*
X572169Y224329D01*
X572211Y224361D01*
X572317Y224435D01*
X572433Y224530D01*
X572560Y224625D01*
X572687Y224731D01*
X572792Y224826D01*
X572835Y224868D01*
X572866Y224900D01*
X572877Y224910D01*
X572898Y224953D01*
X572930Y225005D01*
X572972Y225079D01*
X573014Y225175D01*
X573046Y225291D01*
X573078Y225407D01*
X573088Y225544D01*
X573331D01*
Y222670D01*
D02*
G37*
G36*
Y210920D02*
X573088D01*
Y211185D01*
X573078Y211280D01*
X573067Y211396D01*
X573025Y211639D01*
X572993Y211755D01*
X572940Y211850D01*
Y211861D01*
X572919Y211871D01*
X572866Y211924D01*
X572771Y211977D01*
X572708Y211988D01*
X572634Y211998D01*
X572623D01*
X572613D01*
X572560D01*
X572486Y211977D01*
X572391Y211956D01*
X572370Y211945D01*
X572349D01*
X572306Y211924D01*
X572243Y211903D01*
X572148Y211861D01*
X572032Y211819D01*
X571884Y211755D01*
X570742Y211259D01*
Y208067D01*
X571630Y207677D01*
X571651Y207666D01*
X571704Y207645D01*
X571788Y207613D01*
X571884Y207581D01*
X572010Y207550D01*
X572127Y207518D01*
X572253Y207497D01*
X572370Y207486D01*
X572391D01*
X572433D01*
X572496Y207507D01*
X572581Y207529D01*
X572676Y207560D01*
X572771Y207613D01*
X572856Y207687D01*
X572930Y207793D01*
Y207803D01*
X572951Y207835D01*
X572961Y207888D01*
X572993Y207972D01*
X573014Y208089D01*
X573046Y208247D01*
X573056Y208342D01*
X573067Y208448D01*
X573078Y208564D01*
X573088Y208691D01*
X573331D01*
Y205658D01*
X573088D01*
Y205679D01*
X573067Y205743D01*
X573046Y205827D01*
X573014Y205944D01*
X572961Y206070D01*
X572887Y206208D01*
X572803Y206335D01*
X572687Y206461D01*
X572665Y206472D01*
X572613Y206514D01*
X572581Y206546D01*
X572528Y206588D01*
X572465Y206630D01*
X572391Y206683D01*
X572306Y206736D01*
X572201Y206789D01*
X572095Y206852D01*
X571968Y206926D01*
X571820Y207000D01*
X571672Y207074D01*
X571503Y207159D01*
X571313Y207243D01*
X564043Y210498D01*
Y210625D01*
X571514Y213900D01*
X571524Y213911D01*
X571556Y213921D01*
X571609Y213942D01*
X571683Y213985D01*
X571767Y214016D01*
X571862Y214069D01*
X572074Y214175D01*
X572306Y214302D01*
X572528Y214428D01*
X572623Y214492D01*
X572718Y214555D01*
X572792Y214619D01*
X572856Y214671D01*
X572866Y214682D01*
X572887Y214714D01*
X572919Y214767D01*
X572961Y214841D01*
X573004Y214936D01*
X573035Y215041D01*
X573067Y215168D01*
X573088Y215316D01*
X573331D01*
Y210920D01*
D02*
G37*
G36*
X568925Y205067D02*
X569041D01*
X569200Y205046D01*
X569369Y205024D01*
X569570Y204993D01*
X569781Y204950D01*
X570013Y204897D01*
X570256Y204834D01*
X570510Y204750D01*
X570764Y204655D01*
X571028Y204538D01*
X571292Y204401D01*
X571545Y204242D01*
X571799Y204063D01*
X571820Y204052D01*
X571873Y203999D01*
X571958Y203925D01*
X572074Y203820D01*
X572201Y203672D01*
X572349Y203513D01*
X572507Y203313D01*
X572665Y203091D01*
X572824Y202826D01*
X572982Y202552D01*
X573130Y202235D01*
X573257Y201897D01*
X573373Y201527D01*
X573458Y201136D01*
X573511Y200713D01*
X573532Y200269D01*
Y200164D01*
X573521Y200100D01*
Y200037D01*
X573511Y199868D01*
X573479Y199657D01*
X573447Y199424D01*
X573395Y199160D01*
X573321Y198875D01*
X573236Y198579D01*
X573130Y198262D01*
X572993Y197955D01*
X572835Y197638D01*
X572644Y197321D01*
X572422Y197026D01*
X572169Y196740D01*
X571873Y196476D01*
X571862Y196465D01*
X571810Y196434D01*
X571736Y196381D01*
X571641Y196307D01*
X571514Y196233D01*
X571366Y196138D01*
X571186Y196043D01*
X570996Y195948D01*
X570774Y195853D01*
X570531Y195758D01*
X570277Y195662D01*
X570003Y195588D01*
X569717Y195515D01*
X569411Y195462D01*
X569084Y195430D01*
X568756Y195420D01*
X568745D01*
X568735D01*
X568703D01*
X568671D01*
X568555Y195430D01*
X568418Y195441D01*
X568249Y195462D01*
X568048Y195493D01*
X567826Y195536D01*
X567573Y195588D01*
X567319Y195662D01*
X567044Y195758D01*
X566769Y195863D01*
X566484Y196001D01*
X566199Y196159D01*
X565914Y196339D01*
X565649Y196550D01*
X565385Y196793D01*
X565375Y196814D01*
X565322Y196856D01*
X565258Y196931D01*
X565174Y197036D01*
X565068Y197174D01*
X564963Y197332D01*
X564836Y197522D01*
X564720Y197733D01*
X564593Y197966D01*
X564477Y198230D01*
X564371Y198505D01*
X564276Y198801D01*
X564202Y199118D01*
X564138Y199456D01*
X564107Y199815D01*
Y200396D01*
X564117Y200544D01*
X564128Y200734D01*
X564160Y200946D01*
X564191Y201178D01*
X564234Y201442D01*
X564308Y201717D01*
X564381Y202002D01*
X564487Y202288D01*
X564614Y202584D01*
X564762Y202879D01*
X564941Y203175D01*
X565153Y203450D01*
X565385Y203714D01*
X565396Y203725D01*
X565449Y203778D01*
X565523Y203841D01*
X565628Y203925D01*
X565755Y204031D01*
X565914Y204147D01*
X566104Y204274D01*
X566305Y204401D01*
X566537Y204528D01*
X566801Y204644D01*
X567076Y204760D01*
X567372Y204866D01*
X567689Y204950D01*
X568027Y205014D01*
X568386Y205067D01*
X568756Y205077D01*
X568777D01*
X568830D01*
X568925Y205067D01*
D02*
G37*
G36*
X570996Y194384D02*
X571081Y194373D01*
X571186Y194352D01*
X571302Y194321D01*
X571419Y194289D01*
X571556Y194247D01*
X571693Y194194D01*
X571831Y194120D01*
X571979Y194046D01*
X572116Y193951D01*
X572264Y193834D01*
X572401Y193708D01*
X572528Y193560D01*
X572539Y193549D01*
X572560Y193517D01*
X572602Y193454D01*
X572655Y193370D01*
X572718Y193264D01*
X572782Y193137D01*
X572856Y192989D01*
X572930Y192820D01*
X573004Y192619D01*
X573078Y192397D01*
X573141Y192165D01*
X573204Y191901D01*
X573257Y191616D01*
X573299Y191309D01*
X573321Y190971D01*
X573331Y190622D01*
Y186005D01*
X573088D01*
Y186110D01*
X573078Y186216D01*
Y186343D01*
X573056Y186480D01*
X573035Y186628D01*
X573014Y186755D01*
X572972Y186850D01*
X572961Y186861D01*
X572951Y186892D01*
X572930Y186924D01*
X572887Y186977D01*
X572803Y187083D01*
X572739Y187125D01*
X572676Y187167D01*
X572665D01*
X572634Y187178D01*
X572581Y187199D01*
X572486Y187220D01*
X572359Y187230D01*
X572285Y187241D01*
X572201Y187252D01*
X572105D01*
X571989Y187262D01*
X571873D01*
X571736D01*
X565829D01*
X565818D01*
X565797D01*
X565755D01*
X565713D01*
X565586D01*
X565438Y187252D01*
X565280Y187241D01*
X565121Y187220D01*
X564994Y187199D01*
X564941Y187188D01*
X564899Y187167D01*
X564889D01*
X564868Y187146D01*
X564836Y187125D01*
X564794Y187093D01*
X564741Y187051D01*
X564688Y186998D01*
X564635Y186935D01*
X564593Y186850D01*
X564582Y186840D01*
X564572Y186808D01*
X564551Y186744D01*
X564529Y186660D01*
X564508Y186544D01*
X564498Y186396D01*
X564477Y186216D01*
Y186005D01*
X564234D01*
Y190612D01*
X564244Y190739D01*
Y190886D01*
X564255Y191045D01*
X564265Y191225D01*
X564308Y191584D01*
X564350Y191954D01*
X564381Y192123D01*
X564424Y192292D01*
X564466Y192440D01*
X564519Y192567D01*
Y192577D01*
X564529Y192598D01*
X564551Y192630D01*
X564572Y192672D01*
X564635Y192799D01*
X564730Y192947D01*
X564846Y193105D01*
X564984Y193285D01*
X565153Y193444D01*
X565354Y193602D01*
X565364D01*
X565375Y193623D01*
X565406Y193634D01*
X565449Y193665D01*
X565565Y193718D01*
X565702Y193792D01*
X565882Y193866D01*
X566083Y193919D01*
X566294Y193961D01*
X566526Y193982D01*
X566537D01*
X566558D01*
X566590D01*
X566632Y193972D01*
X566696D01*
X566759Y193961D01*
X566917Y193919D01*
X567097Y193866D01*
X567298Y193782D01*
X567499Y193655D01*
X567604Y193581D01*
X567699Y193496D01*
X567710Y193486D01*
X567720Y193475D01*
X567752Y193444D01*
X567784Y193401D01*
X567826Y193349D01*
X567879Y193285D01*
X567932Y193200D01*
X567995Y193105D01*
X568059Y193000D01*
X568122Y192873D01*
X568185Y192736D01*
X568259Y192588D01*
X568323Y192419D01*
X568386Y192228D01*
X568450Y192028D01*
X568513Y191806D01*
Y191816D01*
X568523Y191859D01*
X568545Y191933D01*
X568566Y192017D01*
X568597Y192123D01*
X568629Y192250D01*
X568671Y192376D01*
X568714Y192524D01*
X568819Y192820D01*
X568946Y193127D01*
X569010Y193264D01*
X569084Y193401D01*
X569157Y193528D01*
X569242Y193634D01*
X569253Y193644D01*
X569274Y193665D01*
X569305Y193708D01*
X569348Y193750D01*
X569411Y193813D01*
X569485Y193877D01*
X569570Y193940D01*
X569665Y194014D01*
X569781Y194088D01*
X569897Y194151D01*
X570024Y194215D01*
X570172Y194278D01*
X570320Y194321D01*
X570478Y194363D01*
X570647Y194384D01*
X570827Y194394D01*
X570838D01*
X570869D01*
X570922D01*
X570996Y194384D01*
D02*
G37*
G36*
X573331Y179549D02*
X569189Y176622D01*
Y176030D01*
X571746D01*
X571757D01*
X571778D01*
X571820D01*
X571862D01*
X571989D01*
X572137Y176041D01*
X572296Y176051D01*
X572454Y176062D01*
X572581Y176083D01*
X572634Y176104D01*
X572676Y176115D01*
X572687D01*
X572708Y176136D01*
X572739Y176157D01*
X572782Y176189D01*
X572835Y176231D01*
X572887Y176284D01*
X572940Y176358D01*
X572982Y176432D01*
Y176442D01*
X573004Y176474D01*
X573014Y176537D01*
X573035Y176622D01*
X573056Y176738D01*
X573067Y176886D01*
X573088Y177076D01*
Y177288D01*
X573331D01*
Y172638D01*
X573088D01*
Y172744D01*
X573078Y172850D01*
Y172976D01*
X573056Y173114D01*
X573035Y173262D01*
X573014Y173389D01*
X572972Y173484D01*
X572961Y173494D01*
X572951Y173515D01*
X572930Y173558D01*
X572887Y173610D01*
X572803Y173716D01*
X572739Y173758D01*
X572676Y173801D01*
X572665D01*
X572634Y173811D01*
X572581Y173832D01*
X572486Y173853D01*
X572370Y173864D01*
X572285Y173875D01*
X572201Y173885D01*
X572105D01*
X572000Y173896D01*
X571873D01*
X571746D01*
X565818D01*
X565808D01*
X565787D01*
X565745D01*
X565702D01*
X565575D01*
X565428Y173885D01*
X565269Y173875D01*
X565121Y173853D01*
X564994Y173832D01*
X564941Y173822D01*
X564899Y173801D01*
X564889D01*
X564868Y173780D01*
X564836Y173758D01*
X564794Y173727D01*
X564741Y173684D01*
X564688Y173621D01*
X564635Y173558D01*
X564593Y173473D01*
X564582Y173463D01*
X564572Y173431D01*
X564551Y173367D01*
X564529Y173283D01*
X564508Y173177D01*
X564498Y173029D01*
X564477Y172850D01*
Y172638D01*
X564234D01*
Y177129D01*
X564244Y177256D01*
Y177414D01*
X564255Y177594D01*
X564265Y177774D01*
X564286Y178165D01*
X564329Y178566D01*
X564360Y178756D01*
X564392Y178946D01*
X564424Y179116D01*
X564466Y179263D01*
Y179274D01*
X564477Y179295D01*
X564487Y179337D01*
X564508Y179390D01*
X564540Y179454D01*
X564572Y179538D01*
X564656Y179707D01*
X564772Y179908D01*
X564920Y180119D01*
X565100Y180331D01*
X565311Y180521D01*
X565322Y180531D01*
X565343Y180542D01*
X565375Y180563D01*
X565417Y180595D01*
X565480Y180637D01*
X565544Y180679D01*
X565628Y180722D01*
X565723Y180764D01*
X565935Y180848D01*
X566178Y180933D01*
X566452Y180986D01*
X566600Y181007D01*
X566748D01*
X566759D01*
X566791D01*
X566843D01*
X566917Y180996D01*
X567002Y180986D01*
X567097Y180965D01*
X567213Y180944D01*
X567329Y180912D01*
X567456Y180880D01*
X567594Y180827D01*
X567731Y180774D01*
X567868Y180700D01*
X568006Y180616D01*
X568143Y180521D01*
X568280Y180405D01*
X568407Y180278D01*
X568428Y180257D01*
X568450Y180225D01*
X568481Y180193D01*
X568555Y180088D01*
X568640Y179940D01*
X568745Y179760D01*
X568851Y179538D01*
X568957Y179274D01*
X569041Y178978D01*
X572116Y181165D01*
X572127D01*
X572137Y181187D01*
X572169Y181208D01*
X572211Y181239D01*
X572317Y181313D01*
X572433Y181408D01*
X572560Y181504D01*
X572687Y181609D01*
X572792Y181704D01*
X572835Y181747D01*
X572866Y181778D01*
X572877Y181789D01*
X572898Y181831D01*
X572930Y181884D01*
X572972Y181958D01*
X573014Y182053D01*
X573046Y182169D01*
X573078Y182285D01*
X573088Y182423D01*
X573331D01*
Y179549D01*
D02*
G37*
G36*
Y171339D02*
Y163477D01*
X573088D01*
Y163836D01*
X573078Y163911D01*
X573067Y163995D01*
X573056Y164101D01*
X573025Y164206D01*
X572993Y164312D01*
X572951Y164407D01*
Y164418D01*
X572930Y164439D01*
X572909Y164471D01*
X572877Y164513D01*
X572835Y164555D01*
X572782Y164597D01*
X572708Y164639D01*
X572634Y164682D01*
X572623D01*
X572592Y164692D01*
X572539Y164703D01*
X572465Y164724D01*
X572349Y164735D01*
X572201Y164745D01*
X572116D01*
X572010Y164756D01*
X571905D01*
X571778D01*
X565787D01*
X565776D01*
X565755D01*
X565734D01*
X565692D01*
X565586D01*
X565459D01*
X565332Y164745D01*
X565216Y164735D01*
X565111Y164724D01*
X565068D01*
X565037Y164713D01*
X565026D01*
X564994Y164703D01*
X564952Y164682D01*
X564899Y164661D01*
X564772Y164587D01*
X564720Y164534D01*
X564667Y164471D01*
X564656Y164460D01*
X564635Y164428D01*
X564603Y164365D01*
X564572Y164291D01*
X564540Y164185D01*
X564508Y164069D01*
X564487Y163932D01*
X564477Y163773D01*
Y163477D01*
X564234D01*
Y171096D01*
X566928D01*
Y170853D01*
X566917D01*
X566886Y170842D01*
X566833Y170832D01*
X566769Y170821D01*
X566685Y170800D01*
X566590Y170768D01*
X566379Y170705D01*
X566157Y170631D01*
X565924Y170536D01*
X565702Y170419D01*
X565607Y170356D01*
X565523Y170293D01*
X565502Y170271D01*
X565449Y170229D01*
X565375Y170145D01*
X565280Y170039D01*
X565174Y169902D01*
X565068Y169722D01*
X564973Y169532D01*
X564889Y169299D01*
X564878Y169278D01*
X564868Y169225D01*
X564857Y169183D01*
X564846Y169130D01*
X564836Y169067D01*
X564825Y168982D01*
X564815Y168898D01*
X564804Y168792D01*
X564794Y168676D01*
X564783Y168549D01*
X564772Y168412D01*
X564762Y168253D01*
Y166943D01*
X568460D01*
Y167207D01*
X568450Y167260D01*
X568439Y167334D01*
X568428Y167418D01*
X568397Y167609D01*
X568333Y167810D01*
X568228Y168021D01*
X568175Y168116D01*
X568101Y168211D01*
X568016Y168306D01*
X567921Y168380D01*
X567911D01*
X567900Y168401D01*
X567868Y168422D01*
X567816Y168444D01*
X567763Y168475D01*
X567699Y168507D01*
X567615Y168549D01*
X567520Y168591D01*
X567414Y168634D01*
X567287Y168676D01*
X567160Y168718D01*
X567012Y168760D01*
X566865Y168803D01*
X566685Y168834D01*
X566505Y168866D01*
X566315Y168887D01*
Y169130D01*
X571081D01*
Y168887D01*
X571070D01*
X571049D01*
X571007Y168877D01*
X570954Y168866D01*
X570890Y168855D01*
X570806Y168845D01*
X570637Y168813D01*
X570436Y168760D01*
X570225Y168708D01*
X570013Y168634D01*
X569813Y168539D01*
X569802D01*
X569791Y168528D01*
X569728Y168496D01*
X569644Y168444D01*
X569538Y168370D01*
X569432Y168285D01*
X569327Y168179D01*
X569221Y168063D01*
X569147Y167936D01*
X569136Y167915D01*
X569115Y167873D01*
X569094Y167788D01*
X569052Y167683D01*
X569020Y167545D01*
X568999Y167366D01*
X568978Y167176D01*
X568967Y166943D01*
X571535D01*
X571545D01*
X571567D01*
X571609D01*
X571651D01*
X571778D01*
X571926Y166954D01*
X572084D01*
X572243Y166975D01*
X572370Y166985D01*
X572412Y166996D01*
X572454Y167006D01*
X572465D01*
X572475Y167017D01*
X572549Y167059D01*
X572634Y167133D01*
X572718Y167239D01*
Y167249D01*
X572739Y167271D01*
X572750Y167313D01*
X572771Y167376D01*
X572792Y167461D01*
X572803Y167556D01*
X572824Y167672D01*
Y168475D01*
X572813Y168560D01*
X572803Y168665D01*
X572792Y168792D01*
X572771Y168930D01*
X572750Y169088D01*
X572687Y169405D01*
X572581Y169754D01*
X572507Y169912D01*
X572433Y170081D01*
X572349Y170240D01*
X572243Y170388D01*
X572232Y170398D01*
X572211Y170419D01*
X572179Y170462D01*
X572127Y170515D01*
X572074Y170578D01*
X571989Y170652D01*
X571905Y170726D01*
X571799Y170821D01*
X571672Y170905D01*
X571545Y171000D01*
X571398Y171085D01*
X571239Y171180D01*
X571059Y171265D01*
X570869Y171349D01*
X570668Y171434D01*
X570447Y171497D01*
Y171751D01*
X573331Y171339D01*
D02*
G37*
G36*
X564477Y163034D02*
X564498Y162970D01*
X564529Y162875D01*
X564572Y162759D01*
X564646Y162621D01*
X564741Y162473D01*
X564857Y162315D01*
X565015Y162167D01*
X565037Y162156D01*
X565058Y162135D01*
X565089Y162114D01*
X565132Y162083D01*
X565185Y162051D01*
X565248Y162008D01*
X565332Y161956D01*
X565428Y161903D01*
X565544Y161840D01*
X565671Y161765D01*
X565818Y161691D01*
X565977Y161618D01*
X566167Y161523D01*
X566368Y161427D01*
X566590Y161332D01*
X573532Y158205D01*
Y157983D01*
X566305Y154866D01*
X566294Y154855D01*
X566252Y154845D01*
X566178Y154813D01*
X566093Y154770D01*
X565998Y154728D01*
X565882Y154675D01*
X565618Y154559D01*
X565354Y154432D01*
X565227Y154369D01*
X565100Y154316D01*
X564994Y154253D01*
X564899Y154200D01*
X564825Y154158D01*
X564772Y154115D01*
X564762Y154105D01*
X564730Y154073D01*
X564698Y154031D01*
X564646Y153957D01*
X564593Y153862D01*
X564551Y153735D01*
X564508Y153576D01*
X564477Y153397D01*
X564234D01*
Y157740D01*
X564477D01*
Y157507D01*
X564487Y157402D01*
X564498Y157275D01*
X564519Y157148D01*
X564540Y157011D01*
X564582Y156884D01*
X564635Y156789D01*
Y156778D01*
X564656Y156768D01*
X564709Y156715D01*
X564804Y156662D01*
X564857Y156651D01*
X564931Y156641D01*
X564952D01*
X565005Y156651D01*
X565100Y156662D01*
X565216Y156694D01*
X565227D01*
X565248Y156704D01*
X565301Y156725D01*
X565385Y156757D01*
X565502Y156810D01*
X565575Y156831D01*
X565649Y156863D01*
X565745Y156905D01*
X565850Y156947D01*
X565966Y157000D01*
X566093Y157053D01*
X570626Y158987D01*
X566590Y160783D01*
X566579D01*
X566558Y160793D01*
X566516Y160814D01*
X566474Y160836D01*
X566347Y160889D01*
X566199Y160952D01*
X566030Y161026D01*
X565871Y161089D01*
X565734Y161142D01*
X565671Y161163D01*
X565618Y161184D01*
X565607D01*
X565575Y161195D01*
X565523Y161206D01*
X565470Y161227D01*
X565332Y161248D01*
X565185Y161258D01*
X565174D01*
X565153D01*
X565111D01*
X565068Y161248D01*
X564952Y161216D01*
X564836Y161153D01*
X564825D01*
X564804Y161131D01*
X564741Y161079D01*
X564667Y160973D01*
X564593Y160836D01*
X564582Y160825D01*
X564572Y160783D01*
X564551Y160719D01*
X564529Y160635D01*
X564508Y160529D01*
X564498Y160392D01*
X564477Y160244D01*
Y160075D01*
X564234D01*
Y163055D01*
X564477D01*
Y163034D01*
D02*
G37*
G36*
X573331Y148209D02*
X573088D01*
Y148568D01*
X573078Y148642D01*
X573067Y148727D01*
X573056Y148832D01*
X573025Y148938D01*
X572993Y149044D01*
X572951Y149139D01*
Y149149D01*
X572930Y149170D01*
X572909Y149202D01*
X572877Y149244D01*
X572835Y149287D01*
X572782Y149329D01*
X572708Y149371D01*
X572634Y149413D01*
X572623D01*
X572592Y149424D01*
X572539Y149434D01*
X572465Y149456D01*
X572349Y149466D01*
X572201Y149477D01*
X572116D01*
X572010Y149487D01*
X571905D01*
X571778D01*
X565787D01*
X565776D01*
X565755D01*
X565723D01*
X565671D01*
X565554D01*
X565417Y149477D01*
X565269Y149466D01*
X565132Y149456D01*
X565005Y149434D01*
X564963Y149424D01*
X564920Y149413D01*
X564910D01*
X564889Y149403D01*
X564857Y149382D01*
X564815Y149350D01*
X564762Y149308D01*
X564720Y149255D01*
X564667Y149192D01*
X564614Y149107D01*
X564603Y149096D01*
X564593Y149065D01*
X564572Y149012D01*
X564540Y148948D01*
X564519Y148864D01*
X564498Y148758D01*
X564487Y148642D01*
X564477Y148505D01*
Y148209D01*
X564234D01*
Y152953D01*
X564477D01*
Y152583D01*
X564487Y152509D01*
X564498Y152425D01*
X564508Y152319D01*
X564540Y152213D01*
X564572Y152108D01*
X564624Y152013D01*
Y152002D01*
X564646Y151981D01*
X564698Y151918D01*
X564741Y151875D01*
X564794Y151823D01*
X564868Y151780D01*
X564941Y151738D01*
X564952D01*
X564973Y151727D01*
X565026Y151717D01*
X565111Y151706D01*
X565227Y151696D01*
X565364Y151685D01*
X565459D01*
X565554Y151675D01*
X565671D01*
X565787D01*
X571778D01*
X571788D01*
X571810D01*
X571841D01*
X571894D01*
X572010D01*
X572158Y151685D01*
X572306Y151696D01*
X572454Y151706D01*
X572570Y151727D01*
X572623Y151738D01*
X572665Y151749D01*
X572676D01*
X572697Y151759D01*
X572729Y151780D01*
X572761Y151812D01*
X572813Y151854D01*
X572866Y151907D01*
X572909Y151970D01*
X572961Y152044D01*
Y152055D01*
X572982Y152087D01*
X573004Y152140D01*
X573025Y152203D01*
X573046Y152287D01*
X573067Y152393D01*
X573078Y152509D01*
X573088Y152647D01*
Y152953D01*
X573331D01*
Y148209D01*
D02*
G37*
G36*
Y145197D02*
X569189Y142270D01*
Y141679D01*
X571746D01*
X571757D01*
X571778D01*
X571820D01*
X571862D01*
X571989D01*
X572137Y141689D01*
X572296Y141700D01*
X572454Y141711D01*
X572581Y141732D01*
X572634Y141753D01*
X572676Y141763D01*
X572687D01*
X572708Y141784D01*
X572739Y141806D01*
X572782Y141837D01*
X572835Y141880D01*
X572887Y141932D01*
X572940Y142006D01*
X572982Y142080D01*
Y142091D01*
X573004Y142123D01*
X573014Y142186D01*
X573035Y142270D01*
X573056Y142387D01*
X573067Y142535D01*
X573088Y142725D01*
Y142936D01*
X573331D01*
Y138287D01*
X573088D01*
Y138393D01*
X573078Y138498D01*
Y138625D01*
X573056Y138762D01*
X573035Y138910D01*
X573014Y139037D01*
X572972Y139132D01*
X572961Y139143D01*
X572951Y139164D01*
X572930Y139206D01*
X572887Y139259D01*
X572803Y139365D01*
X572739Y139407D01*
X572676Y139449D01*
X572665D01*
X572634Y139460D01*
X572581Y139481D01*
X572486Y139502D01*
X572370Y139513D01*
X572285Y139523D01*
X572201Y139534D01*
X572105D01*
X572000Y139544D01*
X571873D01*
X571746D01*
X565818D01*
X565808D01*
X565787D01*
X565745D01*
X565702D01*
X565575D01*
X565428Y139534D01*
X565269Y139523D01*
X565121Y139502D01*
X564994Y139481D01*
X564941Y139470D01*
X564899Y139449D01*
X564889D01*
X564868Y139428D01*
X564836Y139407D01*
X564794Y139375D01*
X564741Y139333D01*
X564688Y139270D01*
X564635Y139206D01*
X564593Y139122D01*
X564582Y139111D01*
X564572Y139079D01*
X564551Y139016D01*
X564529Y138932D01*
X564508Y138826D01*
X564498Y138678D01*
X564477Y138498D01*
Y138287D01*
X564234D01*
Y142778D01*
X564244Y142905D01*
Y143063D01*
X564255Y143243D01*
X564265Y143422D01*
X564286Y143813D01*
X564329Y144215D01*
X564360Y144405D01*
X564392Y144595D01*
X564424Y144764D01*
X564466Y144912D01*
Y144923D01*
X564477Y144944D01*
X564487Y144986D01*
X564508Y145039D01*
X564540Y145102D01*
X564572Y145187D01*
X564656Y145356D01*
X564772Y145557D01*
X564920Y145768D01*
X565100Y145979D01*
X565311Y146170D01*
X565322Y146180D01*
X565343Y146191D01*
X565375Y146212D01*
X565417Y146243D01*
X565480Y146286D01*
X565544Y146328D01*
X565628Y146370D01*
X565723Y146412D01*
X565935Y146497D01*
X566178Y146582D01*
X566452Y146634D01*
X566600Y146656D01*
X566748D01*
X566759D01*
X566791D01*
X566843D01*
X566917Y146645D01*
X567002Y146634D01*
X567097Y146613D01*
X567213Y146592D01*
X567329Y146560D01*
X567456Y146529D01*
X567594Y146476D01*
X567731Y146423D01*
X567868Y146349D01*
X568006Y146265D01*
X568143Y146170D01*
X568280Y146053D01*
X568407Y145927D01*
X568428Y145905D01*
X568450Y145874D01*
X568481Y145842D01*
X568555Y145736D01*
X568640Y145588D01*
X568745Y145409D01*
X568851Y145187D01*
X568957Y144923D01*
X569041Y144627D01*
X572116Y146814D01*
X572127D01*
X572137Y146835D01*
X572169Y146856D01*
X572211Y146888D01*
X572317Y146962D01*
X572433Y147057D01*
X572560Y147152D01*
X572687Y147258D01*
X572792Y147353D01*
X572835Y147395D01*
X572866Y147427D01*
X572877Y147437D01*
X572898Y147480D01*
X572930Y147533D01*
X572972Y147606D01*
X573014Y147702D01*
X573046Y147818D01*
X573078Y147934D01*
X573088Y148071D01*
X573331D01*
Y145197D01*
D02*
G37*
G36*
X569062Y137421D02*
X569168Y137410D01*
X569274D01*
X569400Y137389D01*
X569665Y137357D01*
X569961Y137294D01*
X570277Y137220D01*
X570584Y137114D01*
X570594D01*
X570616Y137104D01*
X570658Y137082D01*
X570721Y137061D01*
X570785Y137029D01*
X570869Y136987D01*
X571049Y136903D01*
X571260Y136786D01*
X571482Y136649D01*
X571704Y136491D01*
X571915Y136311D01*
X571926Y136300D01*
X571936Y136290D01*
X572000Y136227D01*
X572095Y136121D01*
X572222Y135983D01*
X572349Y135825D01*
X572496Y135624D01*
X572634Y135413D01*
X572761Y135180D01*
Y135170D01*
X572771Y135149D01*
X572792Y135117D01*
X572813Y135064D01*
X572835Y135001D01*
X572866Y134927D01*
X572909Y134842D01*
X572940Y134747D01*
X572982Y134642D01*
X573025Y134525D01*
X573099Y134261D01*
X573183Y133955D01*
X573257Y133627D01*
Y133606D01*
X573268Y133553D01*
X573278Y133448D01*
X573289Y133310D01*
X573310Y133131D01*
Y133025D01*
X573321Y132909D01*
Y132782D01*
X573331Y132645D01*
Y128270D01*
X573088D01*
Y128629D01*
X573078Y128703D01*
Y128788D01*
X573035Y128989D01*
X573014Y129084D01*
X572972Y129168D01*
X572961Y129179D01*
X572951Y129200D01*
X572919Y129242D01*
X572877Y129284D01*
X572771Y129390D01*
X572634Y129485D01*
X572623D01*
X572602Y129496D01*
X572549Y129506D01*
X572475Y129517D01*
X572359Y129527D01*
X572285Y129538D01*
X572211D01*
X572116D01*
X572021Y129549D01*
X571905D01*
X571778D01*
X565787D01*
X565776D01*
X565755D01*
X565723D01*
X565671D01*
X565554D01*
X565417Y129538D01*
X565269Y129527D01*
X565132Y129517D01*
X565005Y129496D01*
X564963Y129485D01*
X564920Y129475D01*
X564910D01*
X564889Y129464D01*
X564857Y129443D01*
X564815Y129411D01*
X564762Y129369D01*
X564720Y129316D01*
X564667Y129253D01*
X564614Y129168D01*
X564603Y129158D01*
X564593Y129126D01*
X564572Y129073D01*
X564540Y129010D01*
X564519Y128925D01*
X564498Y128820D01*
X564487Y128703D01*
X564477Y128566D01*
Y128270D01*
X564234D01*
Y132497D01*
X564244Y132613D01*
Y132750D01*
X564255Y132909D01*
X564265Y133088D01*
X564286Y133279D01*
X564308Y133479D01*
X564339Y133691D01*
X564424Y134134D01*
X564529Y134557D01*
X564603Y134768D01*
X564677Y134958D01*
X564688Y134969D01*
X564698Y135011D01*
X564730Y135075D01*
X564783Y135159D01*
X564836Y135265D01*
X564910Y135381D01*
X564994Y135508D01*
X565089Y135645D01*
X565195Y135793D01*
X565322Y135941D01*
X565459Y136100D01*
X565607Y136248D01*
X565766Y136396D01*
X565935Y136544D01*
X566125Y136670D01*
X566326Y136797D01*
X566336Y136808D01*
X566379Y136829D01*
X566431Y136861D01*
X566516Y136892D01*
X566622Y136945D01*
X566748Y136998D01*
X566886Y137051D01*
X567044Y137114D01*
X567224Y137177D01*
X567414Y137230D01*
X567625Y137283D01*
X567837Y137336D01*
X568069Y137368D01*
X568312Y137399D01*
X568566Y137421D01*
X568819Y137431D01*
X568830D01*
X568862D01*
X568914D01*
X568978D01*
X569062Y137421D01*
D02*
G37*
G36*
X518405Y334337D02*
X518521D01*
X518679Y334316D01*
X518848Y334295D01*
X519049Y334263D01*
X519260Y334221D01*
X519493Y334168D01*
X519736Y334105D01*
X519990Y334020D01*
X520243Y333925D01*
X520507Y333809D01*
X520771Y333671D01*
X521025Y333513D01*
X521279Y333333D01*
X521300Y333323D01*
X521353Y333270D01*
X521437Y333196D01*
X521553Y333090D01*
X521680Y332942D01*
X521828Y332784D01*
X521987Y332583D01*
X522145Y332361D01*
X522304Y332097D01*
X522462Y331822D01*
X522610Y331505D01*
X522737Y331167D01*
X522853Y330797D01*
X522938Y330406D01*
X522990Y329984D01*
X523012Y329540D01*
Y329434D01*
X523001Y329371D01*
Y329308D01*
X522990Y329138D01*
X522959Y328927D01*
X522927Y328695D01*
X522874Y328430D01*
X522800Y328145D01*
X522716Y327849D01*
X522610Y327532D01*
X522473Y327226D01*
X522314Y326909D01*
X522124Y326592D01*
X521902Y326296D01*
X521648Y326011D01*
X521353Y325747D01*
X521342Y325736D01*
X521289Y325704D01*
X521215Y325652D01*
X521120Y325578D01*
X520993Y325504D01*
X520845Y325409D01*
X520666Y325313D01*
X520476Y325218D01*
X520254Y325123D01*
X520011Y325028D01*
X519757Y324933D01*
X519482Y324859D01*
X519197Y324785D01*
X518891Y324732D01*
X518563Y324701D01*
X518236Y324690D01*
X518225D01*
X518214D01*
X518183D01*
X518151D01*
X518035Y324701D01*
X517897Y324711D01*
X517728Y324732D01*
X517528Y324764D01*
X517306Y324806D01*
X517052Y324859D01*
X516799Y324933D01*
X516524Y325028D01*
X516249Y325134D01*
X515964Y325271D01*
X515678Y325430D01*
X515393Y325609D01*
X515129Y325821D01*
X514865Y326064D01*
X514854Y326085D01*
X514801Y326127D01*
X514738Y326201D01*
X514654Y326307D01*
X514548Y326444D01*
X514442Y326603D01*
X514315Y326793D01*
X514199Y327004D01*
X514072Y327237D01*
X513956Y327501D01*
X513851Y327775D01*
X513755Y328071D01*
X513681Y328388D01*
X513618Y328726D01*
X513586Y329086D01*
Y329667D01*
X513597Y329815D01*
X513607Y330005D01*
X513639Y330216D01*
X513671Y330449D01*
X513713Y330713D01*
X513787Y330988D01*
X513861Y331273D01*
X513967Y331558D01*
X514094Y331854D01*
X514241Y332150D01*
X514421Y332446D01*
X514632Y332720D01*
X514865Y332985D01*
X514875Y332995D01*
X514928Y333048D01*
X515002Y333111D01*
X515108Y333196D01*
X515235Y333302D01*
X515393Y333418D01*
X515583Y333545D01*
X515784Y333671D01*
X516017Y333798D01*
X516281Y333914D01*
X516555Y334031D01*
X516851Y334136D01*
X517168Y334221D01*
X517506Y334284D01*
X517866Y334337D01*
X518236Y334348D01*
X518257D01*
X518310D01*
X518405Y334337D01*
D02*
G37*
G36*
X520349Y323591D02*
X520433D01*
X520528Y323570D01*
X520645Y323559D01*
X520771Y323528D01*
X520909Y323485D01*
X521057Y323443D01*
X521215Y323380D01*
X521374Y323306D01*
X521543Y323221D01*
X521712Y323116D01*
X521881Y322999D01*
X522039Y322862D01*
X522198Y322704D01*
X522209Y322693D01*
X522230Y322661D01*
X522272Y322608D01*
X522325Y322545D01*
X522388Y322461D01*
X522452Y322355D01*
X522525Y322228D01*
X522599Y322091D01*
X522684Y321932D01*
X522758Y321763D01*
X522821Y321573D01*
X522885Y321372D01*
X522938Y321161D01*
X522980Y320939D01*
X523001Y320696D01*
X523012Y320442D01*
Y320368D01*
X523001Y320284D01*
Y320178D01*
X522990Y320051D01*
X522969Y319914D01*
X522916Y319629D01*
Y319608D01*
X522895Y319565D01*
X522874Y319481D01*
X522842Y319365D01*
X522800Y319227D01*
X522747Y319058D01*
X522684Y318878D01*
X522599Y318667D01*
X522589Y318657D01*
X522578Y318614D01*
X522557Y318551D01*
X522525Y318477D01*
X522483Y318297D01*
X522473Y318213D01*
X522462Y318128D01*
Y318097D01*
X522473Y318065D01*
X522483Y318023D01*
X522515Y317906D01*
X522557Y317832D01*
X522599Y317759D01*
X522610Y317748D01*
X522621Y317727D01*
X522652Y317695D01*
X522705Y317653D01*
X522758Y317600D01*
X522832Y317547D01*
X522916Y317494D01*
X523012Y317452D01*
Y317209D01*
X519577D01*
Y317452D01*
X519599D01*
X519641Y317463D01*
X519715Y317484D01*
X519821Y317515D01*
X519937Y317547D01*
X520074Y317589D01*
X520233Y317642D01*
X520402Y317706D01*
X520581Y317780D01*
X520761Y317864D01*
X520941Y317959D01*
X521131Y318054D01*
X521310Y318171D01*
X521479Y318297D01*
X521648Y318445D01*
X521796Y318593D01*
X521807Y318604D01*
X521828Y318636D01*
X521870Y318678D01*
X521913Y318741D01*
X521965Y318815D01*
X522029Y318910D01*
X522103Y319016D01*
X522166Y319143D01*
X522240Y319270D01*
X522314Y319407D01*
X522430Y319713D01*
X522473Y319882D01*
X522515Y320051D01*
X522536Y320231D01*
X522547Y320411D01*
Y320485D01*
X522536Y320537D01*
Y320601D01*
X522525Y320675D01*
X522494Y320844D01*
X522452Y321045D01*
X522378Y321245D01*
X522282Y321436D01*
X522145Y321615D01*
Y321626D01*
X522124Y321636D01*
X522071Y321689D01*
X521987Y321763D01*
X521870Y321848D01*
X521733Y321922D01*
X521575Y321996D01*
X521384Y322048D01*
X521289Y322070D01*
X521194D01*
X521184D01*
X521141D01*
X521078Y322059D01*
X520993Y322048D01*
X520898Y322027D01*
X520793Y321996D01*
X520687Y321953D01*
X520571Y321890D01*
X520560Y321879D01*
X520518Y321858D01*
X520454Y321816D01*
X520381Y321763D01*
X520296Y321689D01*
X520201Y321594D01*
X520095Y321488D01*
X520000Y321362D01*
X519990Y321340D01*
X519947Y321298D01*
X519894Y321203D01*
X519810Y321076D01*
X519757Y321002D01*
X519704Y320907D01*
X519651Y320802D01*
X519588Y320696D01*
X519514Y320569D01*
X519451Y320432D01*
X519366Y320284D01*
X519292Y320125D01*
X519282Y320115D01*
X519260Y320073D01*
X519229Y320009D01*
X519187Y319925D01*
X519134Y319819D01*
X519081Y319703D01*
X519007Y319576D01*
X518933Y319438D01*
X518774Y319143D01*
X518595Y318847D01*
X518510Y318699D01*
X518426Y318561D01*
X518341Y318445D01*
X518257Y318329D01*
X518246Y318319D01*
X518236Y318308D01*
X518183Y318244D01*
X518088Y318139D01*
X517971Y318023D01*
X517834Y317896D01*
X517665Y317759D01*
X517485Y317621D01*
X517295Y317505D01*
X517285D01*
X517274Y317494D01*
X517242Y317484D01*
X517200Y317463D01*
X517094Y317410D01*
X516946Y317367D01*
X516777Y317315D01*
X516577Y317262D01*
X516365Y317230D01*
X516133Y317220D01*
X516122D01*
X516080D01*
X516027Y317230D01*
X515953D01*
X515858Y317241D01*
X515752Y317262D01*
X515626Y317283D01*
X515488Y317315D01*
X515351Y317357D01*
X515203Y317410D01*
X515045Y317473D01*
X514897Y317558D01*
X514738Y317642D01*
X514580Y317748D01*
X514432Y317875D01*
X514284Y318012D01*
X514273Y318023D01*
X514252Y318054D01*
X514210Y318097D01*
X514168Y318160D01*
X514104Y318234D01*
X514041Y318329D01*
X513967Y318445D01*
X513893Y318561D01*
X513829Y318709D01*
X513755Y318857D01*
X513692Y319026D01*
X513629Y319206D01*
X513586Y319396D01*
X513544Y319597D01*
X513523Y319808D01*
X513512Y320030D01*
Y320104D01*
X513523Y320189D01*
Y320305D01*
X513544Y320442D01*
X513565Y320580D01*
X513586Y320738D01*
X513629Y320897D01*
Y320907D01*
X513639Y320950D01*
X513660Y321023D01*
X513692Y321108D01*
X513734Y321224D01*
X513787Y321351D01*
X513851Y321499D01*
X513924Y321657D01*
Y321668D01*
X513935Y321679D01*
X513956Y321731D01*
X513988Y321816D01*
X514030Y321911D01*
X514104Y322122D01*
X514125Y322217D01*
X514136Y322302D01*
Y322334D01*
X514125Y322397D01*
X514094Y322482D01*
X514030Y322566D01*
X514020D01*
X514009Y322587D01*
X513977Y322608D01*
X513924Y322630D01*
X513861Y322661D01*
X513766Y322693D01*
X513650Y322735D01*
X513512Y322767D01*
Y322968D01*
X516545Y323042D01*
Y322767D01*
X516534D01*
X516492Y322756D01*
X516439Y322746D01*
X516355Y322725D01*
X516260Y322693D01*
X516154Y322661D01*
X516027Y322619D01*
X515890Y322566D01*
X515605Y322439D01*
X515446Y322365D01*
X515298Y322270D01*
X515140Y322175D01*
X514992Y322059D01*
X514854Y321932D01*
X514717Y321795D01*
X514706Y321784D01*
X514685Y321763D01*
X514654Y321721D01*
X514611Y321657D01*
X514558Y321594D01*
X514495Y321510D01*
X514432Y321414D01*
X514368Y321309D01*
X514241Y321055D01*
X514125Y320780D01*
X514083Y320633D01*
X514051Y320474D01*
X514030Y320316D01*
X514020Y320146D01*
Y320083D01*
X514030Y320030D01*
X514041Y319903D01*
X514062Y319755D01*
X514115Y319576D01*
X514178Y319396D01*
X514263Y319217D01*
X514389Y319058D01*
X514411Y319037D01*
X514453Y318995D01*
X514527Y318931D01*
X514632Y318857D01*
X514759Y318783D01*
X514897Y318720D01*
X515066Y318678D01*
X515235Y318657D01*
X515245D01*
X515288D01*
X515340Y318667D01*
X515414Y318678D01*
X515488Y318688D01*
X515583Y318720D01*
X515678Y318752D01*
X515763Y318794D01*
X515774Y318804D01*
X515816Y318826D01*
X515879Y318878D01*
X515964Y318942D01*
X516059Y319026D01*
X516165Y319143D01*
X516270Y319270D01*
X516386Y319417D01*
X516397Y319438D01*
X516429Y319481D01*
X516450Y319523D01*
X516482Y319576D01*
X516524Y319639D01*
X516566Y319724D01*
X516619Y319808D01*
X516672Y319914D01*
X516735Y320030D01*
X516809Y320168D01*
X516883Y320326D01*
X516978Y320495D01*
X517063Y320685D01*
X517168Y320886D01*
X517179Y320907D01*
X517200Y320960D01*
X517242Y321034D01*
X517306Y321150D01*
X517369Y321277D01*
X517454Y321425D01*
X517549Y321584D01*
X517644Y321763D01*
X517876Y322122D01*
X518119Y322482D01*
X518257Y322640D01*
X518383Y322799D01*
X518521Y322936D01*
X518648Y323052D01*
X518658Y323063D01*
X518679Y323073D01*
X518722Y323105D01*
X518774Y323137D01*
X518838Y323179D01*
X518912Y323221D01*
X519007Y323274D01*
X519113Y323327D01*
X519345Y323433D01*
X519620Y323517D01*
X519916Y323581D01*
X520074Y323591D01*
X520243Y323602D01*
X520254D01*
X520296D01*
X520349Y323591D01*
D02*
G37*
G36*
X522811Y311440D02*
X522568D01*
Y311799D01*
X522557Y311873D01*
X522547Y311957D01*
X522536Y312063D01*
X522504Y312169D01*
X522473Y312274D01*
X522430Y312370D01*
Y312380D01*
X522409Y312401D01*
X522388Y312433D01*
X522356Y312475D01*
X522314Y312518D01*
X522261Y312560D01*
X522187Y312602D01*
X522113Y312644D01*
X522103D01*
X522071Y312655D01*
X522018Y312666D01*
X521944Y312687D01*
X521828Y312697D01*
X521680Y312708D01*
X521596D01*
X521490Y312718D01*
X521384D01*
X521258D01*
X515266D01*
X515256D01*
X515235D01*
X515203D01*
X515150D01*
X515034D01*
X514897Y312708D01*
X514749Y312697D01*
X514611Y312687D01*
X514484Y312666D01*
X514442Y312655D01*
X514400Y312644D01*
X514389D01*
X514368Y312634D01*
X514337Y312613D01*
X514294Y312581D01*
X514241Y312539D01*
X514199Y312486D01*
X514146Y312422D01*
X514094Y312338D01*
X514083Y312327D01*
X514072Y312296D01*
X514051Y312243D01*
X514020Y312179D01*
X513998Y312095D01*
X513977Y311989D01*
X513967Y311873D01*
X513956Y311736D01*
Y311440D01*
X513713D01*
Y316184D01*
X513956D01*
Y315814D01*
X513967Y315740D01*
X513977Y315656D01*
X513988Y315550D01*
X514020Y315444D01*
X514051Y315339D01*
X514104Y315244D01*
Y315233D01*
X514125Y315212D01*
X514178Y315149D01*
X514220Y315106D01*
X514273Y315054D01*
X514347Y315011D01*
X514421Y314969D01*
X514432D01*
X514453Y314958D01*
X514506Y314948D01*
X514590Y314937D01*
X514706Y314927D01*
X514844Y314916D01*
X514939D01*
X515034Y314905D01*
X515150D01*
X515266D01*
X521258D01*
X521268D01*
X521289D01*
X521321D01*
X521374D01*
X521490D01*
X521638Y314916D01*
X521786Y314927D01*
X521934Y314937D01*
X522050Y314958D01*
X522103Y314969D01*
X522145Y314979D01*
X522156D01*
X522177Y314990D01*
X522209Y315011D01*
X522240Y315043D01*
X522293Y315085D01*
X522346Y315138D01*
X522388Y315201D01*
X522441Y315275D01*
Y315286D01*
X522462Y315318D01*
X522483Y315371D01*
X522504Y315434D01*
X522525Y315518D01*
X522547Y315624D01*
X522557Y315740D01*
X522568Y315878D01*
Y316184D01*
X522811D01*
Y311440D01*
D02*
G37*
G36*
X525780Y304170D02*
X524913D01*
Y311292D01*
X525780D01*
Y304170D01*
D02*
G37*
G36*
X518542Y303705D02*
X518648Y303695D01*
X518753D01*
X518880Y303673D01*
X519144Y303642D01*
X519440Y303578D01*
X519757Y303504D01*
X520064Y303399D01*
X520074D01*
X520095Y303388D01*
X520137Y303367D01*
X520201Y303346D01*
X520264Y303314D01*
X520349Y303272D01*
X520528Y303187D01*
X520740Y303071D01*
X520962Y302934D01*
X521184Y302775D01*
X521395Y302596D01*
X521405Y302585D01*
X521416Y302575D01*
X521479Y302511D01*
X521575Y302405D01*
X521701Y302268D01*
X521828Y302110D01*
X521976Y301909D01*
X522113Y301698D01*
X522240Y301465D01*
Y301455D01*
X522251Y301433D01*
X522272Y301402D01*
X522293Y301349D01*
X522314Y301285D01*
X522346Y301211D01*
X522388Y301127D01*
X522420Y301032D01*
X522462Y300926D01*
X522504Y300810D01*
X522578Y300546D01*
X522663Y300239D01*
X522737Y299912D01*
Y299891D01*
X522747Y299838D01*
X522758Y299732D01*
X522769Y299595D01*
X522790Y299415D01*
Y299310D01*
X522800Y299193D01*
Y299067D01*
X522811Y298929D01*
Y294555D01*
X522568D01*
Y294914D01*
X522557Y294988D01*
Y295072D01*
X522515Y295273D01*
X522494Y295368D01*
X522452Y295453D01*
X522441Y295463D01*
X522430Y295485D01*
X522399Y295527D01*
X522356Y295569D01*
X522251Y295675D01*
X522113Y295770D01*
X522103D01*
X522082Y295780D01*
X522029Y295791D01*
X521955Y295802D01*
X521839Y295812D01*
X521765Y295823D01*
X521691D01*
X521596D01*
X521501Y295833D01*
X521384D01*
X521258D01*
X515266D01*
X515256D01*
X515235D01*
X515203D01*
X515150D01*
X515034D01*
X514897Y295823D01*
X514749Y295812D01*
X514611Y295802D01*
X514484Y295780D01*
X514442Y295770D01*
X514400Y295759D01*
X514389D01*
X514368Y295749D01*
X514337Y295728D01*
X514294Y295696D01*
X514241Y295654D01*
X514199Y295601D01*
X514146Y295537D01*
X514094Y295453D01*
X514083Y295442D01*
X514072Y295410D01*
X514051Y295358D01*
X514020Y295294D01*
X513998Y295210D01*
X513977Y295104D01*
X513967Y294988D01*
X513956Y294851D01*
Y294555D01*
X513713D01*
Y298781D01*
X513724Y298897D01*
Y299035D01*
X513734Y299193D01*
X513745Y299373D01*
X513766Y299563D01*
X513787Y299764D01*
X513819Y299975D01*
X513903Y300419D01*
X514009Y300842D01*
X514083Y301053D01*
X514157Y301243D01*
X514168Y301254D01*
X514178Y301296D01*
X514210Y301359D01*
X514263Y301444D01*
X514315Y301550D01*
X514389Y301666D01*
X514474Y301793D01*
X514569Y301930D01*
X514675Y302078D01*
X514801Y302226D01*
X514939Y302384D01*
X515087Y302532D01*
X515245Y302680D01*
X515414Y302828D01*
X515605Y302955D01*
X515805Y303082D01*
X515816Y303092D01*
X515858Y303113D01*
X515911Y303145D01*
X515995Y303177D01*
X516101Y303230D01*
X516228Y303283D01*
X516365Y303335D01*
X516524Y303399D01*
X516703Y303462D01*
X516894Y303515D01*
X517105Y303568D01*
X517316Y303621D01*
X517549Y303652D01*
X517792Y303684D01*
X518045Y303705D01*
X518299Y303716D01*
X518310D01*
X518341D01*
X518394D01*
X518457D01*
X518542Y303705D01*
D02*
G37*
G36*
X513956Y294016D02*
X513967Y293984D01*
Y293942D01*
X513988Y293847D01*
X514009Y293720D01*
X514041Y293593D01*
X514072Y293466D01*
X514115Y293350D01*
X514157Y293255D01*
Y293244D01*
X514178Y293223D01*
X514210Y293181D01*
X514252Y293139D01*
X514305Y293097D01*
X514368Y293044D01*
X514442Y292991D01*
X514537Y292949D01*
X514548D01*
X514590Y292927D01*
X514654Y292917D01*
X514749Y292896D01*
X514875Y292875D01*
X515034Y292864D01*
X515224Y292843D01*
X515446D01*
X523012D01*
Y292610D01*
X515435Y286471D01*
X521226D01*
X521236D01*
X521258D01*
X521300D01*
X521353Y286482D01*
X521416D01*
X521490Y286493D01*
X521659Y286514D01*
X521839Y286556D01*
X522008Y286619D01*
X522166Y286704D01*
X522240Y286757D01*
X522293Y286820D01*
X522304Y286841D01*
X522335Y286883D01*
X522378Y286957D01*
X522430Y287063D01*
X522483Y287179D01*
X522525Y287317D01*
X522557Y287475D01*
X522568Y287644D01*
Y287866D01*
X522811D01*
Y284643D01*
X522568D01*
Y284770D01*
X522547Y284897D01*
X522525Y285056D01*
X522494Y285224D01*
X522441Y285404D01*
X522367Y285563D01*
X522314Y285626D01*
X522261Y285689D01*
X522251Y285700D01*
X522198Y285732D01*
X522124Y285784D01*
X522018Y285837D01*
X521870Y285890D01*
X521691Y285943D01*
X521479Y285975D01*
X521226Y285985D01*
X514812D01*
X514569Y285784D01*
X514548Y285774D01*
X514506Y285732D01*
X514453Y285679D01*
X514379Y285616D01*
X514220Y285446D01*
X514146Y285362D01*
X514094Y285277D01*
X514083Y285267D01*
X514072Y285235D01*
X514051Y285182D01*
X514030Y285119D01*
X514009Y285024D01*
X513988Y284907D01*
X513967Y284781D01*
X513956Y284633D01*
X513713D01*
Y287856D01*
X519345Y292346D01*
X515446D01*
X515435D01*
X515414D01*
X515372D01*
X515309D01*
X515245Y292336D01*
X515171D01*
X515002Y292315D01*
X514812Y292283D01*
X514632Y292241D01*
X514474Y292188D01*
X514400Y292146D01*
X514337Y292103D01*
X514315Y292093D01*
X514273Y292040D01*
X514210Y291966D01*
X514146Y291850D01*
X514072Y291702D01*
X514009Y291522D01*
X513967Y291300D01*
X513956Y291036D01*
X513713D01*
Y294037D01*
X513956D01*
Y294016D01*
D02*
G37*
G36*
X519229Y284295D02*
X519239Y284231D01*
X519250Y284147D01*
X519260Y284041D01*
X519313Y283809D01*
X519334Y283692D01*
X519377Y283608D01*
Y283597D01*
X519398Y283576D01*
X519419Y283534D01*
X519451Y283492D01*
X519504Y283449D01*
X519556Y283396D01*
X519630Y283344D01*
X519715Y283301D01*
X519725D01*
X519747Y283291D01*
X519778Y283280D01*
X519842D01*
X519926Y283270D01*
X520032Y283259D01*
X520169Y283249D01*
X520338D01*
X522230D01*
Y283238D01*
X522251Y283206D01*
X522272Y283164D01*
X522293Y283101D01*
X522325Y283016D01*
X522367Y282921D01*
X522409Y282815D01*
X522452Y282689D01*
X522494Y282562D01*
X522547Y282424D01*
X522642Y282107D01*
X522726Y281780D01*
X522811Y281431D01*
Y281421D01*
X522821Y281389D01*
X522832Y281336D01*
X522842Y281273D01*
X522853Y281178D01*
X522874Y281082D01*
X522895Y280966D01*
X522906Y280840D01*
X522927Y280692D01*
X522948Y280544D01*
X522980Y280205D01*
X523001Y279857D01*
X523012Y279476D01*
Y279350D01*
X523001Y279265D01*
Y279149D01*
X522990Y279022D01*
X522980Y278874D01*
X522969Y278716D01*
X522927Y278377D01*
X522864Y278018D01*
X522779Y277659D01*
X522663Y277321D01*
Y277310D01*
X522642Y277279D01*
X522631Y277236D01*
X522599Y277183D01*
X522568Y277110D01*
X522525Y277014D01*
X522473Y276919D01*
X522420Y276814D01*
X522282Y276581D01*
X522124Y276328D01*
X521944Y276074D01*
X521744Y275820D01*
X521733Y275810D01*
X521722Y275789D01*
X521691Y275757D01*
X521638Y275715D01*
X521585Y275662D01*
X521522Y275599D01*
X521363Y275451D01*
X521173Y275282D01*
X520962Y275112D01*
X520719Y274943D01*
X520454Y274795D01*
X520444D01*
X520412Y274774D01*
X520359Y274753D01*
X520296Y274722D01*
X520201Y274690D01*
X520106Y274648D01*
X519979Y274605D01*
X519852Y274563D01*
X519704Y274510D01*
X519546Y274468D01*
X519377Y274426D01*
X519197Y274394D01*
X518806Y274341D01*
X518595Y274331D01*
X518383Y274320D01*
X518373D01*
X518362D01*
X518331D01*
X518288D01*
X518183Y274331D01*
X518045Y274341D01*
X517866Y274362D01*
X517665Y274394D01*
X517433Y274436D01*
X517189Y274500D01*
X516925Y274574D01*
X516640Y274669D01*
X516355Y274785D01*
X516069Y274922D01*
X515774Y275091D01*
X515478Y275282D01*
X515203Y275503D01*
X514928Y275757D01*
X514907Y275778D01*
X514865Y275820D01*
X514801Y275905D01*
X514706Y276021D01*
X514601Y276159D01*
X514484Y276328D01*
X514347Y276528D01*
X514220Y276761D01*
X514083Y277004D01*
X513956Y277279D01*
X513840Y277585D01*
X513734Y277902D01*
X513639Y278251D01*
X513576Y278610D01*
X513523Y279001D01*
X513512Y279402D01*
Y279571D01*
X513523Y279646D01*
Y279804D01*
X513544Y279994D01*
X513565Y280205D01*
X513586Y280406D01*
X513629Y280618D01*
Y280628D01*
X513639Y280670D01*
X513660Y280744D01*
X513681Y280850D01*
X513724Y280977D01*
X513777Y281146D01*
X513851Y281336D01*
X513935Y281569D01*
Y281579D01*
X513946Y281600D01*
X513956Y281632D01*
X513977Y281674D01*
X514009Y281790D01*
X514051Y281917D01*
X514104Y282055D01*
X514136Y282181D01*
X514168Y282287D01*
X514178Y282329D01*
Y282393D01*
X514168Y282424D01*
X514157Y282467D01*
X514115Y282583D01*
X514083Y282636D01*
X514041Y282699D01*
X514030Y282710D01*
X514009Y282731D01*
X513977Y282763D01*
X513924Y282805D01*
X513851Y282847D01*
X513755Y282900D01*
X513650Y282953D01*
X513512Y283006D01*
Y283249D01*
X516714D01*
Y283006D01*
X516703D01*
X516661Y282984D01*
X516587Y282963D01*
X516503Y282921D01*
X516386Y282868D01*
X516270Y282815D01*
X516122Y282741D01*
X515974Y282668D01*
X515657Y282477D01*
X515330Y282245D01*
X515013Y281970D01*
X514865Y281812D01*
X514728Y281653D01*
X514717Y281642D01*
X514696Y281611D01*
X514664Y281569D01*
X514622Y281495D01*
X514569Y281410D01*
X514506Y281315D01*
X514453Y281199D01*
X514379Y281072D01*
X514315Y280935D01*
X514263Y280776D01*
X514146Y280448D01*
X514104Y280269D01*
X514072Y280079D01*
X514051Y279888D01*
X514041Y279688D01*
Y279593D01*
X514051Y279519D01*
X514062Y279434D01*
X514072Y279328D01*
X514094Y279212D01*
X514115Y279096D01*
X514178Y278821D01*
X514284Y278536D01*
X514347Y278399D01*
X514432Y278251D01*
X514516Y278113D01*
X514622Y277987D01*
X514632Y277976D01*
X514643Y277955D01*
X514685Y277923D01*
X514728Y277881D01*
X514780Y277817D01*
X514854Y277754D01*
X514939Y277691D01*
X515034Y277617D01*
X515140Y277532D01*
X515266Y277458D01*
X515393Y277374D01*
X515531Y277300D01*
X515689Y277215D01*
X515858Y277152D01*
X516027Y277088D01*
X516217Y277025D01*
X516228D01*
X516260Y277014D01*
X516323Y277004D01*
X516397Y276983D01*
X516492Y276962D01*
X516598Y276930D01*
X516725Y276909D01*
X516862Y276888D01*
X517010Y276856D01*
X517179Y276835D01*
X517528Y276782D01*
X517908Y276750D01*
X518310Y276740D01*
X518320D01*
X518362D01*
X518436D01*
X518531D01*
X518648Y276750D01*
X518774Y276761D01*
X518922D01*
X519091Y276782D01*
X519260Y276793D01*
X519440Y276814D01*
X519831Y276866D01*
X520222Y276940D01*
X520602Y277046D01*
X520613D01*
X520645Y277057D01*
X520698Y277078D01*
X520761Y277110D01*
X520845Y277141D01*
X520941Y277183D01*
X521152Y277289D01*
X521384Y277426D01*
X521627Y277606D01*
X521849Y277807D01*
X521955Y277923D01*
X522050Y278050D01*
Y278060D01*
X522071Y278082D01*
X522092Y278124D01*
X522124Y278177D01*
X522156Y278240D01*
X522198Y278314D01*
X522230Y278409D01*
X522272Y278515D01*
X522314Y278620D01*
X522356Y278747D01*
X522430Y279022D01*
X522483Y279339D01*
X522494Y279508D01*
X522504Y279677D01*
Y279804D01*
X522494Y279888D01*
Y279984D01*
X522473Y280100D01*
X522441Y280343D01*
Y280364D01*
X522430Y280406D01*
X522409Y280470D01*
X522388Y280565D01*
X522356Y280670D01*
X522325Y280797D01*
X522230Y281061D01*
X520338D01*
X520328D01*
X520317D01*
X520254D01*
X520159D01*
X520053Y281051D01*
X519937Y281040D01*
X519821Y281030D01*
X519725Y281008D01*
X519651Y280987D01*
X519641D01*
X519620Y280977D01*
X519599Y280956D01*
X519556Y280924D01*
X519514Y280882D01*
X519461Y280829D01*
X519419Y280765D01*
X519366Y280681D01*
X519356Y280670D01*
X519345Y280639D01*
X519324Y280586D01*
X519292Y280522D01*
X519271Y280438D01*
X519250Y280343D01*
X519239Y280237D01*
X519229Y280121D01*
Y279888D01*
X518986D01*
Y284316D01*
X519229D01*
Y284295D01*
D02*
G37*
G36*
X488290Y334185D02*
X488396Y334175D01*
X488502D01*
X488629Y334154D01*
X488893Y334122D01*
X489188Y334058D01*
X489506Y333984D01*
X489812Y333879D01*
X489823D01*
X489844Y333868D01*
X489886Y333847D01*
X489949Y333826D01*
X490013Y333794D01*
X490097Y333752D01*
X490277Y333667D01*
X490488Y333551D01*
X490710Y333414D01*
X490932Y333255D01*
X491143Y333076D01*
X491154Y333065D01*
X491164Y333055D01*
X491228Y332991D01*
X491323Y332886D01*
X491450Y332748D01*
X491576Y332590D01*
X491724Y332389D01*
X491862Y332178D01*
X491989Y331945D01*
Y331935D01*
X491999Y331913D01*
X492020Y331882D01*
X492041Y331829D01*
X492063Y331766D01*
X492094Y331692D01*
X492136Y331607D01*
X492168Y331512D01*
X492211Y331406D01*
X492253Y331290D01*
X492327Y331026D01*
X492411Y330719D01*
X492485Y330392D01*
Y330371D01*
X492496Y330318D01*
X492506Y330212D01*
X492517Y330075D01*
X492538Y329895D01*
Y329790D01*
X492549Y329673D01*
Y329547D01*
X492559Y329409D01*
Y325035D01*
X492316D01*
Y325394D01*
X492306Y325468D01*
Y325552D01*
X492263Y325753D01*
X492242Y325848D01*
X492200Y325933D01*
X492189Y325943D01*
X492179Y325965D01*
X492147Y326007D01*
X492105Y326049D01*
X491999Y326155D01*
X491862Y326250D01*
X491851D01*
X491830Y326260D01*
X491777Y326271D01*
X491703Y326282D01*
X491587Y326292D01*
X491513Y326303D01*
X491439D01*
X491344D01*
X491249Y326313D01*
X491133D01*
X491006D01*
X485015D01*
X485004D01*
X484983D01*
X484951D01*
X484898D01*
X484782D01*
X484645Y326303D01*
X484497Y326292D01*
X484360Y326282D01*
X484233Y326260D01*
X484191Y326250D01*
X484148Y326239D01*
X484138D01*
X484117Y326229D01*
X484085Y326208D01*
X484043Y326176D01*
X483990Y326134D01*
X483948Y326081D01*
X483895Y326017D01*
X483842Y325933D01*
X483831Y325922D01*
X483821Y325891D01*
X483800Y325838D01*
X483768Y325774D01*
X483747Y325690D01*
X483726Y325584D01*
X483715Y325468D01*
X483704Y325331D01*
Y325035D01*
X483461D01*
Y329261D01*
X483472Y329377D01*
Y329515D01*
X483483Y329673D01*
X483493Y329853D01*
X483514Y330043D01*
X483535Y330244D01*
X483567Y330455D01*
X483652Y330899D01*
X483757Y331322D01*
X483831Y331533D01*
X483905Y331723D01*
X483916Y331734D01*
X483926Y331776D01*
X483958Y331839D01*
X484011Y331924D01*
X484064Y332030D01*
X484138Y332146D01*
X484222Y332273D01*
X484317Y332410D01*
X484423Y332558D01*
X484550Y332706D01*
X484687Y332864D01*
X484835Y333012D01*
X484994Y333160D01*
X485163Y333308D01*
X485353Y333435D01*
X485554Y333562D01*
X485564Y333572D01*
X485606Y333593D01*
X485659Y333625D01*
X485744Y333657D01*
X485849Y333710D01*
X485976Y333763D01*
X486114Y333815D01*
X486272Y333879D01*
X486452Y333942D01*
X486642Y333995D01*
X486853Y334048D01*
X487065Y334101D01*
X487297Y334132D01*
X487540Y334164D01*
X487794Y334185D01*
X488047Y334196D01*
X488058D01*
X488090D01*
X488142D01*
X488206D01*
X488290Y334185D01*
D02*
G37*
G36*
X483704Y324496D02*
X483715Y324464D01*
Y324422D01*
X483736Y324327D01*
X483757Y324200D01*
X483789Y324073D01*
X483821Y323946D01*
X483863Y323830D01*
X483905Y323735D01*
Y323724D01*
X483926Y323703D01*
X483958Y323661D01*
X484000Y323619D01*
X484053Y323577D01*
X484117Y323524D01*
X484191Y323471D01*
X484286Y323429D01*
X484296D01*
X484338Y323407D01*
X484402Y323397D01*
X484497Y323376D01*
X484624Y323355D01*
X484782Y323344D01*
X484972Y323323D01*
X485194D01*
X492760D01*
Y323090D01*
X485184Y316951D01*
X490974D01*
X490985D01*
X491006D01*
X491048D01*
X491101Y316962D01*
X491164D01*
X491238Y316973D01*
X491407Y316994D01*
X491587Y317036D01*
X491756Y317099D01*
X491915Y317184D01*
X491989Y317237D01*
X492041Y317300D01*
X492052Y317321D01*
X492084Y317363D01*
X492126Y317437D01*
X492179Y317543D01*
X492232Y317659D01*
X492274Y317797D01*
X492306Y317955D01*
X492316Y318124D01*
Y318346D01*
X492559D01*
Y315123D01*
X492316D01*
Y315250D01*
X492295Y315377D01*
X492274Y315536D01*
X492242Y315704D01*
X492189Y315884D01*
X492115Y316043D01*
X492063Y316106D01*
X492010Y316169D01*
X491999Y316180D01*
X491946Y316212D01*
X491872Y316264D01*
X491767Y316317D01*
X491619Y316370D01*
X491439Y316423D01*
X491228Y316455D01*
X490974Y316465D01*
X484560D01*
X484317Y316264D01*
X484296Y316254D01*
X484254Y316212D01*
X484201Y316159D01*
X484127Y316096D01*
X483969Y315926D01*
X483895Y315842D01*
X483842Y315757D01*
X483831Y315747D01*
X483821Y315715D01*
X483800Y315662D01*
X483778Y315599D01*
X483757Y315504D01*
X483736Y315387D01*
X483715Y315261D01*
X483704Y315113D01*
X483461D01*
Y318336D01*
X489093Y322826D01*
X485194D01*
X485184D01*
X485163D01*
X485120D01*
X485057D01*
X484994Y322816D01*
X484920D01*
X484751Y322795D01*
X484560Y322763D01*
X484381Y322721D01*
X484222Y322668D01*
X484148Y322626D01*
X484085Y322583D01*
X484064Y322573D01*
X484021Y322520D01*
X483958Y322446D01*
X483895Y322330D01*
X483821Y322182D01*
X483757Y322002D01*
X483715Y321780D01*
X483704Y321516D01*
X483461D01*
Y324517D01*
X483704D01*
Y324496D01*
D02*
G37*
G36*
X488977Y314775D02*
X488988Y314711D01*
X488998Y314627D01*
X489009Y314521D01*
X489062Y314289D01*
X489083Y314172D01*
X489125Y314088D01*
Y314077D01*
X489146Y314056D01*
X489167Y314014D01*
X489199Y313972D01*
X489252Y313929D01*
X489305Y313876D01*
X489379Y313824D01*
X489463Y313781D01*
X489474D01*
X489495Y313771D01*
X489527Y313760D01*
X489590D01*
X489675Y313750D01*
X489780Y313739D01*
X489918Y313729D01*
X490087D01*
X491978D01*
Y313718D01*
X491999Y313686D01*
X492020Y313644D01*
X492041Y313581D01*
X492073Y313496D01*
X492115Y313401D01*
X492158Y313295D01*
X492200Y313169D01*
X492242Y313042D01*
X492295Y312904D01*
X492390Y312587D01*
X492475Y312260D01*
X492559Y311911D01*
Y311901D01*
X492570Y311869D01*
X492580Y311816D01*
X492591Y311753D01*
X492602Y311658D01*
X492623Y311562D01*
X492644Y311446D01*
X492654Y311320D01*
X492675Y311171D01*
X492697Y311024D01*
X492728Y310686D01*
X492749Y310337D01*
X492760Y309956D01*
Y309830D01*
X492749Y309745D01*
Y309629D01*
X492739Y309502D01*
X492728Y309354D01*
X492718Y309196D01*
X492675Y308857D01*
X492612Y308498D01*
X492528Y308139D01*
X492411Y307801D01*
Y307790D01*
X492390Y307759D01*
X492380Y307716D01*
X492348Y307663D01*
X492316Y307589D01*
X492274Y307494D01*
X492221Y307399D01*
X492168Y307294D01*
X492031Y307061D01*
X491872Y306808D01*
X491693Y306554D01*
X491492Y306300D01*
X491481Y306290D01*
X491471Y306269D01*
X491439Y306237D01*
X491386Y306195D01*
X491334Y306142D01*
X491270Y306078D01*
X491112Y305931D01*
X490921Y305762D01*
X490710Y305592D01*
X490467Y305423D01*
X490203Y305275D01*
X490192D01*
X490161Y305254D01*
X490108Y305233D01*
X490044Y305201D01*
X489949Y305170D01*
X489854Y305128D01*
X489727Y305085D01*
X489601Y305043D01*
X489453Y304990D01*
X489294Y304948D01*
X489125Y304906D01*
X488946Y304874D01*
X488554Y304821D01*
X488343Y304811D01*
X488132Y304800D01*
X488121D01*
X488111D01*
X488079D01*
X488037D01*
X487931Y304811D01*
X487794Y304821D01*
X487614Y304842D01*
X487413Y304874D01*
X487181Y304916D01*
X486938Y304980D01*
X486674Y305054D01*
X486388Y305149D01*
X486103Y305265D01*
X485818Y305402D01*
X485522Y305571D01*
X485226Y305762D01*
X484951Y305983D01*
X484677Y306237D01*
X484655Y306258D01*
X484613Y306300D01*
X484550Y306385D01*
X484455Y306501D01*
X484349Y306639D01*
X484233Y306808D01*
X484095Y307008D01*
X483969Y307241D01*
X483831Y307484D01*
X483704Y307759D01*
X483588Y308065D01*
X483483Y308382D01*
X483388Y308731D01*
X483324Y309090D01*
X483271Y309481D01*
X483261Y309882D01*
Y310051D01*
X483271Y310126D01*
Y310284D01*
X483293Y310474D01*
X483314Y310686D01*
X483335Y310886D01*
X483377Y311098D01*
Y311108D01*
X483388Y311150D01*
X483409Y311224D01*
X483430Y311330D01*
X483472Y311457D01*
X483525Y311626D01*
X483599Y311816D01*
X483683Y312049D01*
Y312059D01*
X483694Y312080D01*
X483704Y312112D01*
X483726Y312154D01*
X483757Y312270D01*
X483800Y312397D01*
X483853Y312535D01*
X483884Y312661D01*
X483916Y312767D01*
X483926Y312809D01*
Y312873D01*
X483916Y312904D01*
X483905Y312947D01*
X483863Y313063D01*
X483831Y313116D01*
X483789Y313179D01*
X483778Y313190D01*
X483757Y313211D01*
X483726Y313243D01*
X483673Y313285D01*
X483599Y313327D01*
X483504Y313380D01*
X483398Y313433D01*
X483261Y313486D01*
Y313729D01*
X486462D01*
Y313486D01*
X486452D01*
X486409Y313464D01*
X486336Y313443D01*
X486251Y313401D01*
X486135Y313348D01*
X486019Y313295D01*
X485871Y313221D01*
X485723Y313148D01*
X485406Y312957D01*
X485078Y312725D01*
X484761Y312450D01*
X484613Y312292D01*
X484476Y312133D01*
X484465Y312122D01*
X484444Y312091D01*
X484412Y312049D01*
X484370Y311975D01*
X484317Y311890D01*
X484254Y311795D01*
X484201Y311679D01*
X484127Y311552D01*
X484064Y311415D01*
X484011Y311256D01*
X483895Y310928D01*
X483853Y310749D01*
X483821Y310559D01*
X483800Y310368D01*
X483789Y310168D01*
Y310073D01*
X483800Y309999D01*
X483810Y309914D01*
X483821Y309809D01*
X483842Y309692D01*
X483863Y309576D01*
X483926Y309301D01*
X484032Y309016D01*
X484095Y308879D01*
X484180Y308731D01*
X484265Y308593D01*
X484370Y308466D01*
X484381Y308456D01*
X484391Y308435D01*
X484434Y308403D01*
X484476Y308361D01*
X484529Y308298D01*
X484603Y308234D01*
X484687Y308171D01*
X484782Y308097D01*
X484888Y308012D01*
X485015Y307938D01*
X485142Y307854D01*
X485279Y307780D01*
X485437Y307695D01*
X485606Y307632D01*
X485776Y307568D01*
X485966Y307505D01*
X485976D01*
X486008Y307494D01*
X486071Y307484D01*
X486145Y307463D01*
X486241Y307442D01*
X486346Y307410D01*
X486473Y307389D01*
X486610Y307368D01*
X486758Y307336D01*
X486927Y307315D01*
X487276Y307262D01*
X487656Y307230D01*
X488058Y307220D01*
X488069D01*
X488111D01*
X488185D01*
X488280D01*
X488396Y307230D01*
X488523Y307241D01*
X488671D01*
X488840Y307262D01*
X489009Y307272D01*
X489188Y307294D01*
X489580Y307346D01*
X489970Y307421D01*
X490351Y307526D01*
X490361D01*
X490393Y307537D01*
X490446Y307558D01*
X490509Y307589D01*
X490594Y307621D01*
X490689Y307663D01*
X490900Y307769D01*
X491133Y307906D01*
X491376Y308086D01*
X491598Y308287D01*
X491703Y308403D01*
X491798Y308530D01*
Y308540D01*
X491819Y308562D01*
X491841Y308604D01*
X491872Y308657D01*
X491904Y308720D01*
X491946Y308794D01*
X491978Y308889D01*
X492020Y308995D01*
X492063Y309100D01*
X492105Y309227D01*
X492179Y309502D01*
X492232Y309819D01*
X492242Y309988D01*
X492253Y310157D01*
Y310284D01*
X492242Y310368D01*
Y310464D01*
X492221Y310580D01*
X492189Y310823D01*
Y310844D01*
X492179Y310886D01*
X492158Y310950D01*
X492136Y311045D01*
X492105Y311150D01*
X492073Y311277D01*
X491978Y311541D01*
X490087D01*
X490076D01*
X490065D01*
X490002D01*
X489907D01*
X489801Y311531D01*
X489685Y311520D01*
X489569Y311510D01*
X489474Y311488D01*
X489400Y311467D01*
X489389D01*
X489368Y311457D01*
X489347Y311436D01*
X489305Y311404D01*
X489263Y311362D01*
X489210Y311309D01*
X489167Y311245D01*
X489114Y311161D01*
X489104Y311150D01*
X489093Y311119D01*
X489072Y311066D01*
X489041Y311003D01*
X489019Y310918D01*
X488998Y310823D01*
X488988Y310717D01*
X488977Y310601D01*
Y310368D01*
X488734D01*
Y314796D01*
X488977D01*
Y314775D01*
D02*
G37*
G36*
X293875Y117866D02*
X293632D01*
Y117877D01*
X293621Y117919D01*
X293600Y117983D01*
X293568Y118067D01*
X293536Y118173D01*
X293494Y118289D01*
X293441Y118416D01*
X293378Y118564D01*
X293230Y118860D01*
X293040Y119177D01*
X292924Y119335D01*
X292797Y119483D01*
X292670Y119620D01*
X292522Y119747D01*
X292512Y119758D01*
X292490Y119779D01*
X292438Y119810D01*
X292385Y119853D01*
X292300Y119906D01*
X292216Y119958D01*
X292110Y120022D01*
X291994Y120085D01*
X291867Y120138D01*
X291719Y120201D01*
X291413Y120307D01*
X291244Y120349D01*
X291064Y120381D01*
X290884Y120402D01*
X290694Y120413D01*
X290610D01*
X290546Y120402D01*
X290472D01*
X290388Y120392D01*
X290282Y120371D01*
X290176Y120349D01*
X289933Y120296D01*
X289669Y120201D01*
X289394Y120085D01*
X289257Y120001D01*
X289120Y119916D01*
X289109Y119906D01*
X289088Y119895D01*
X289056Y119863D01*
X289004Y119832D01*
X288877Y119726D01*
X288729Y119578D01*
X288560Y119388D01*
X288380Y119177D01*
X288222Y118923D01*
X288084Y118638D01*
Y118627D01*
X288063Y118595D01*
X288042Y118532D01*
X288021Y118458D01*
X287989Y118363D01*
X287947Y118257D01*
X287915Y118130D01*
X287873Y117983D01*
X287831Y117824D01*
X287799Y117644D01*
X287757Y117465D01*
X287725Y117264D01*
X287683Y116841D01*
X287662Y116387D01*
Y116376D01*
Y116334D01*
Y116271D01*
Y116186D01*
X287672Y116070D01*
X287683Y115954D01*
Y115806D01*
X287704Y115658D01*
X287714Y115489D01*
X287736Y115309D01*
X287788Y114939D01*
X287862Y114548D01*
X287968Y114168D01*
Y114157D01*
X287979Y114126D01*
X288000Y114073D01*
X288031Y113999D01*
X288063Y113925D01*
X288095Y113819D01*
X288200Y113608D01*
X288338Y113354D01*
X288507Y113111D01*
X288697Y112868D01*
X288813Y112763D01*
X288930Y112657D01*
X288940Y112646D01*
X288961Y112636D01*
X288993Y112615D01*
X289046Y112583D01*
X289109Y112541D01*
X289194Y112499D01*
X289289Y112456D01*
X289384Y112403D01*
X289500Y112361D01*
X289638Y112308D01*
X289775Y112266D01*
X289923Y112234D01*
X290081Y112192D01*
X290261Y112171D01*
X290441Y112160D01*
X290631Y112150D01*
X290715D01*
X290779Y112160D01*
X290853D01*
X290937Y112171D01*
X291043Y112182D01*
X291148Y112192D01*
X291392Y112245D01*
X291656Y112308D01*
X291930Y112393D01*
X292205Y112520D01*
X292216D01*
X292237Y112541D01*
X292279Y112562D01*
X292332Y112594D01*
X292395Y112636D01*
X292480Y112689D01*
X292564Y112752D01*
X292659Y112826D01*
X292776Y112911D01*
X292892Y113006D01*
X293019Y113111D01*
X293146Y113228D01*
X293283Y113354D01*
X293420Y113492D01*
X293568Y113640D01*
X293716Y113809D01*
Y113027D01*
X293706Y113016D01*
X293684Y112995D01*
X293642Y112953D01*
X293579Y112900D01*
X293515Y112837D01*
X293431Y112763D01*
X293336Y112678D01*
X293230Y112583D01*
X292987Y112393D01*
X292712Y112203D01*
X292416Y112023D01*
X292110Y111875D01*
X292099D01*
X292068Y111865D01*
X292026Y111843D01*
X291962Y111822D01*
X291888Y111791D01*
X291793Y111759D01*
X291687Y111727D01*
X291561Y111695D01*
X291423Y111664D01*
X291275Y111632D01*
X291117Y111600D01*
X290948Y111569D01*
X290578Y111526D01*
X290176Y111516D01*
X290039D01*
X289933Y111526D01*
X289807Y111537D01*
X289659Y111547D01*
X289490Y111569D01*
X289310Y111590D01*
X289120Y111622D01*
X288908Y111653D01*
X288475Y111759D01*
X288253Y111833D01*
X288031Y111907D01*
X287810Y111991D01*
X287598Y112097D01*
X287588Y112107D01*
X287545Y112129D01*
X287493Y112160D01*
X287408Y112203D01*
X287313Y112266D01*
X287207Y112340D01*
X287091Y112424D01*
X286954Y112520D01*
X286816Y112636D01*
X286679Y112763D01*
X286531Y112900D01*
X286383Y113048D01*
X286246Y113207D01*
X286108Y113386D01*
X285971Y113566D01*
X285855Y113766D01*
X285844Y113777D01*
X285834Y113819D01*
X285802Y113872D01*
X285760Y113957D01*
X285717Y114062D01*
X285665Y114179D01*
X285601Y114316D01*
X285548Y114474D01*
X285495Y114633D01*
X285432Y114812D01*
X285379Y115013D01*
X285337Y115214D01*
X285295Y115425D01*
X285274Y115637D01*
X285252Y115859D01*
X285242Y116091D01*
Y116102D01*
Y116154D01*
Y116218D01*
X285252Y116313D01*
X285263Y116429D01*
X285274Y116567D01*
X285295Y116714D01*
X285326Y116884D01*
X285358Y117074D01*
X285411Y117264D01*
X285464Y117465D01*
X285527Y117676D01*
X285601Y117898D01*
X285696Y118109D01*
X285802Y118331D01*
X285918Y118553D01*
X285929Y118564D01*
X285950Y118606D01*
X285992Y118669D01*
X286045Y118743D01*
X286108Y118849D01*
X286193Y118955D01*
X286299Y119081D01*
X286404Y119219D01*
X286531Y119367D01*
X286668Y119515D01*
X286816Y119663D01*
X286985Y119810D01*
X287154Y119969D01*
X287345Y120106D01*
X287545Y120244D01*
X287757Y120371D01*
X287767Y120381D01*
X287810Y120402D01*
X287873Y120434D01*
X287957Y120476D01*
X288063Y120518D01*
X288190Y120571D01*
X288338Y120635D01*
X288507Y120698D01*
X288676Y120751D01*
X288877Y120814D01*
X289077Y120867D01*
X289289Y120920D01*
X289511Y120952D01*
X289743Y120983D01*
X289986Y121004D01*
X290229Y121015D01*
X290324D01*
X290398Y121004D01*
X290483D01*
X290588Y120994D01*
X290715Y120983D01*
X290842Y120962D01*
X290990Y120941D01*
X291148Y120909D01*
X291487Y120835D01*
X291867Y120730D01*
X292258Y120592D01*
X292269D01*
X292290Y120582D01*
X292321Y120571D01*
X292364Y120561D01*
X292469Y120518D01*
X292596Y120476D01*
X292723Y120434D01*
X292860Y120392D01*
X292966Y120371D01*
X293019Y120360D01*
X293082D01*
X293124Y120371D01*
X293177Y120381D01*
X293293Y120423D01*
X293357Y120455D01*
X293420Y120508D01*
X293431Y120518D01*
X293441Y120540D01*
X293473Y120582D01*
X293505Y120635D01*
X293547Y120698D01*
X293579Y120793D01*
X293610Y120888D01*
X293632Y121015D01*
X293875D01*
Y117866D01*
D02*
G37*
G36*
X323894Y118352D02*
X323651D01*
Y118363D01*
X323640Y118395D01*
X323630Y118437D01*
X323609Y118490D01*
X323587Y118564D01*
X323566Y118638D01*
X323503Y118817D01*
X323439Y119018D01*
X323355Y119219D01*
X323260Y119409D01*
X323218Y119494D01*
X323165Y119567D01*
X323154Y119589D01*
X323122Y119631D01*
X323059Y119694D01*
X322985Y119779D01*
X322879Y119874D01*
X322763Y119969D01*
X322615Y120075D01*
X322457Y120159D01*
X322446Y120170D01*
X322404Y120180D01*
X322341Y120201D01*
X322256Y120223D01*
X322129Y120244D01*
X321971Y120265D01*
X321791Y120286D01*
X320893D01*
Y113270D01*
Y113259D01*
Y113238D01*
Y113207D01*
Y113154D01*
Y113037D01*
X320904Y112889D01*
X320914Y112741D01*
X320925Y112594D01*
X320946Y112477D01*
X320956Y112424D01*
X320967Y112382D01*
Y112372D01*
X320977Y112351D01*
X320999Y112319D01*
X321030Y112287D01*
X321073Y112234D01*
X321125Y112182D01*
X321189Y112139D01*
X321263Y112086D01*
X321273D01*
X321305Y112065D01*
X321358Y112044D01*
X321421Y112023D01*
X321506Y112002D01*
X321611Y111981D01*
X321728Y111970D01*
X321865Y111960D01*
X322171D01*
Y111717D01*
X317427D01*
Y111960D01*
X317786D01*
X317860Y111970D01*
X317945Y111981D01*
X318050Y111991D01*
X318156Y112023D01*
X318262Y112055D01*
X318357Y112097D01*
X318368D01*
X318389Y112118D01*
X318452Y112171D01*
X318494Y112213D01*
X318547Y112266D01*
X318589Y112340D01*
X318632Y112414D01*
Y112424D01*
X318642Y112456D01*
X318653Y112509D01*
X318674Y112583D01*
X318685Y112699D01*
X318695Y112847D01*
Y112932D01*
X318706Y113037D01*
Y113143D01*
Y113270D01*
Y120286D01*
X317966D01*
X317903Y120275D01*
X317818D01*
X317734Y120265D01*
X317533Y120233D01*
X317311Y120191D01*
X317089Y120117D01*
X316888Y120022D01*
X316793Y119969D01*
X316709Y119895D01*
X316698Y119884D01*
X316688Y119874D01*
X316656Y119842D01*
X316614Y119789D01*
X316571Y119736D01*
X316518Y119673D01*
X316455Y119589D01*
X316392Y119494D01*
X316328Y119388D01*
X316265Y119282D01*
X316201Y119155D01*
X316149Y119018D01*
X316096Y118860D01*
X316043Y118701D01*
X316001Y118532D01*
X315969Y118352D01*
X315726D01*
Y120814D01*
X323894D01*
Y118352D01*
D02*
G37*
G36*
X314891Y120571D02*
X314870D01*
X314838Y120561D01*
X314796D01*
X314701Y120540D01*
X314574Y120518D01*
X314447Y120487D01*
X314321Y120455D01*
X314204Y120413D01*
X314109Y120371D01*
X314099D01*
X314078Y120349D01*
X314035Y120318D01*
X313993Y120275D01*
X313951Y120223D01*
X313898Y120159D01*
X313845Y120085D01*
X313803Y119990D01*
Y119979D01*
X313782Y119937D01*
X313771Y119874D01*
X313750Y119779D01*
X313729Y119652D01*
X313718Y119494D01*
X313697Y119303D01*
Y119081D01*
Y111516D01*
X313465D01*
X307326Y119092D01*
Y113302D01*
Y113291D01*
Y113270D01*
Y113228D01*
X307336Y113175D01*
Y113111D01*
X307347Y113037D01*
X307368Y112868D01*
X307410Y112689D01*
X307474Y112520D01*
X307558Y112361D01*
X307611Y112287D01*
X307674Y112234D01*
X307696Y112224D01*
X307738Y112192D01*
X307812Y112150D01*
X307917Y112097D01*
X308034Y112044D01*
X308171Y112002D01*
X308330Y111970D01*
X308498Y111960D01*
X308720D01*
Y111717D01*
X305498D01*
Y111960D01*
X305625D01*
X305751Y111981D01*
X305910Y112002D01*
X306079Y112034D01*
X306258Y112086D01*
X306417Y112160D01*
X306480Y112213D01*
X306544Y112266D01*
X306554Y112277D01*
X306586Y112329D01*
X306639Y112403D01*
X306692Y112509D01*
X306744Y112657D01*
X306797Y112837D01*
X306829Y113048D01*
X306840Y113302D01*
Y119715D01*
X306639Y119958D01*
X306628Y119979D01*
X306586Y120022D01*
X306533Y120075D01*
X306470Y120149D01*
X306301Y120307D01*
X306216Y120381D01*
X306132Y120434D01*
X306121Y120444D01*
X306089Y120455D01*
X306036Y120476D01*
X305973Y120497D01*
X305878Y120518D01*
X305762Y120540D01*
X305635Y120561D01*
X305487Y120571D01*
Y120814D01*
X308710D01*
X313201Y115182D01*
Y119081D01*
Y119092D01*
Y119113D01*
Y119155D01*
Y119219D01*
X313190Y119282D01*
Y119356D01*
X313169Y119525D01*
X313137Y119715D01*
X313095Y119895D01*
X313042Y120054D01*
X313000Y120127D01*
X312957Y120191D01*
X312947Y120212D01*
X312894Y120254D01*
X312820Y120318D01*
X312704Y120381D01*
X312556Y120455D01*
X312376Y120518D01*
X312155Y120561D01*
X311890Y120571D01*
Y120814D01*
X314891D01*
Y120571D01*
D02*
G37*
G36*
X401800Y120804D02*
X401937D01*
X402096Y120793D01*
X402275Y120783D01*
X402466Y120761D01*
X402666Y120740D01*
X402878Y120709D01*
X403321Y120624D01*
X403744Y120518D01*
X403955Y120444D01*
X404146Y120371D01*
X404156Y120360D01*
X404198Y120349D01*
X404262Y120318D01*
X404346Y120265D01*
X404452Y120212D01*
X404568Y120138D01*
X404695Y120054D01*
X404832Y119958D01*
X404980Y119853D01*
X405128Y119726D01*
X405287Y119589D01*
X405435Y119441D01*
X405583Y119282D01*
X405731Y119113D01*
X405857Y118923D01*
X405984Y118722D01*
X405995Y118712D01*
X406016Y118669D01*
X406048Y118617D01*
X406079Y118532D01*
X406132Y118426D01*
X406185Y118300D01*
X406238Y118162D01*
X406301Y118004D01*
X406365Y117824D01*
X406417Y117634D01*
X406470Y117422D01*
X406523Y117211D01*
X406555Y116979D01*
X406586Y116736D01*
X406608Y116482D01*
X406618Y116228D01*
Y116218D01*
Y116186D01*
Y116133D01*
Y116070D01*
X406608Y115985D01*
X406597Y115880D01*
Y115774D01*
X406576Y115647D01*
X406544Y115383D01*
X406481Y115087D01*
X406407Y114770D01*
X406301Y114464D01*
Y114453D01*
X406291Y114432D01*
X406269Y114390D01*
X406248Y114326D01*
X406217Y114263D01*
X406174Y114179D01*
X406090Y113999D01*
X405974Y113788D01*
X405836Y113566D01*
X405678Y113344D01*
X405498Y113132D01*
X405488Y113122D01*
X405477Y113111D01*
X405414Y113048D01*
X405308Y112953D01*
X405171Y112826D01*
X405012Y112699D01*
X404811Y112551D01*
X404600Y112414D01*
X404367Y112287D01*
X404357D01*
X404336Y112277D01*
X404304Y112255D01*
X404251Y112234D01*
X404188Y112213D01*
X404114Y112182D01*
X404029Y112139D01*
X403934Y112107D01*
X403829Y112065D01*
X403712Y112023D01*
X403448Y111949D01*
X403142Y111865D01*
X402814Y111791D01*
X402793D01*
X402740Y111780D01*
X402635Y111769D01*
X402497Y111759D01*
X402318Y111738D01*
X402212D01*
X402096Y111727D01*
X401969D01*
X401832Y111717D01*
X397457D01*
Y111960D01*
X397816D01*
X397890Y111970D01*
X397975D01*
X398176Y112013D01*
X398271Y112034D01*
X398355Y112076D01*
X398366Y112086D01*
X398387Y112097D01*
X398429Y112129D01*
X398471Y112171D01*
X398577Y112277D01*
X398672Y112414D01*
Y112424D01*
X398683Y112446D01*
X398693Y112499D01*
X398704Y112572D01*
X398714Y112689D01*
X398725Y112763D01*
Y112837D01*
Y112932D01*
X398736Y113027D01*
Y113143D01*
Y113270D01*
Y119261D01*
Y119272D01*
Y119293D01*
Y119324D01*
Y119377D01*
Y119494D01*
X398725Y119631D01*
X398714Y119779D01*
X398704Y119916D01*
X398683Y120043D01*
X398672Y120085D01*
X398662Y120127D01*
Y120138D01*
X398651Y120159D01*
X398630Y120191D01*
X398598Y120233D01*
X398556Y120286D01*
X398503Y120328D01*
X398440Y120381D01*
X398355Y120434D01*
X398345Y120444D01*
X398313Y120455D01*
X398260Y120476D01*
X398197Y120508D01*
X398112Y120529D01*
X398007Y120550D01*
X397890Y120561D01*
X397753Y120571D01*
X397457D01*
Y120814D01*
X401684D01*
X401800Y120804D01*
D02*
G37*
G36*
X392248D02*
X392406D01*
X392586Y120793D01*
X392766Y120783D01*
X393157Y120761D01*
X393558Y120719D01*
X393748Y120688D01*
X393938Y120656D01*
X394108Y120624D01*
X394255Y120582D01*
X394266D01*
X394287Y120571D01*
X394329Y120561D01*
X394382Y120540D01*
X394446Y120508D01*
X394530Y120476D01*
X394699Y120392D01*
X394900Y120275D01*
X395111Y120127D01*
X395323Y119948D01*
X395513Y119736D01*
X395523Y119726D01*
X395534Y119705D01*
X395555Y119673D01*
X395587Y119631D01*
X395629Y119567D01*
X395671Y119504D01*
X395714Y119419D01*
X395756Y119324D01*
X395840Y119113D01*
X395925Y118870D01*
X395978Y118595D01*
X395999Y118447D01*
Y118300D01*
Y118289D01*
Y118257D01*
Y118204D01*
X395988Y118130D01*
X395978Y118046D01*
X395957Y117951D01*
X395936Y117835D01*
X395904Y117718D01*
X395872Y117591D01*
X395819Y117454D01*
X395766Y117317D01*
X395692Y117179D01*
X395608Y117042D01*
X395513Y116905D01*
X395397Y116767D01*
X395270Y116641D01*
X395249Y116619D01*
X395217Y116598D01*
X395185Y116567D01*
X395080Y116493D01*
X394932Y116408D01*
X394752Y116302D01*
X394530Y116197D01*
X394266Y116091D01*
X393970Y116006D01*
X396157Y112932D01*
Y112921D01*
X396179Y112911D01*
X396200Y112879D01*
X396231Y112837D01*
X396305Y112731D01*
X396400Y112615D01*
X396496Y112488D01*
X396601Y112361D01*
X396696Y112255D01*
X396739Y112213D01*
X396770Y112182D01*
X396781Y112171D01*
X396823Y112150D01*
X396876Y112118D01*
X396950Y112076D01*
X397045Y112034D01*
X397161Y112002D01*
X397277Y111970D01*
X397415Y111960D01*
Y111717D01*
X394541D01*
X391614Y115859D01*
X391022D01*
Y113302D01*
Y113291D01*
Y113270D01*
Y113228D01*
Y113185D01*
Y113059D01*
X391033Y112911D01*
X391043Y112752D01*
X391054Y112594D01*
X391075Y112467D01*
X391096Y112414D01*
X391107Y112372D01*
Y112361D01*
X391128Y112340D01*
X391149Y112308D01*
X391181Y112266D01*
X391223Y112213D01*
X391276Y112160D01*
X391350Y112107D01*
X391424Y112065D01*
X391434D01*
X391466Y112044D01*
X391529Y112034D01*
X391614Y112013D01*
X391730Y111991D01*
X391878Y111981D01*
X392068Y111960D01*
X392280D01*
Y111717D01*
X387630D01*
Y111960D01*
X387736D01*
X387842Y111970D01*
X387968D01*
X388106Y111991D01*
X388254Y112013D01*
X388381Y112034D01*
X388476Y112076D01*
X388486Y112086D01*
X388507Y112097D01*
X388550Y112118D01*
X388602Y112160D01*
X388708Y112245D01*
X388750Y112308D01*
X388793Y112372D01*
Y112382D01*
X388803Y112414D01*
X388824Y112467D01*
X388845Y112562D01*
X388856Y112678D01*
X388867Y112763D01*
X388877Y112847D01*
Y112942D01*
X388888Y113048D01*
Y113175D01*
Y113302D01*
Y119229D01*
Y119240D01*
Y119261D01*
Y119303D01*
Y119346D01*
Y119472D01*
X388877Y119620D01*
X388867Y119779D01*
X388845Y119927D01*
X388824Y120054D01*
X388814Y120106D01*
X388793Y120149D01*
Y120159D01*
X388772Y120180D01*
X388750Y120212D01*
X388719Y120254D01*
X388676Y120307D01*
X388613Y120360D01*
X388550Y120413D01*
X388465Y120455D01*
X388455Y120466D01*
X388423Y120476D01*
X388359Y120497D01*
X388275Y120518D01*
X388169Y120540D01*
X388021Y120550D01*
X387842Y120571D01*
X387630D01*
Y120814D01*
X392121D01*
X392248Y120804D01*
D02*
G37*
G36*
X385771Y113534D02*
X385781Y113523D01*
X385792Y113492D01*
X385813Y113439D01*
X385855Y113365D01*
X385887Y113280D01*
X385940Y113185D01*
X386045Y112974D01*
X386172Y112741D01*
X386299Y112520D01*
X386362Y112424D01*
X386426Y112329D01*
X386489Y112255D01*
X386542Y112192D01*
X386553Y112182D01*
X386584Y112160D01*
X386637Y112129D01*
X386711Y112086D01*
X386806Y112044D01*
X386912Y112013D01*
X387039Y111981D01*
X387187Y111960D01*
Y111717D01*
X382791D01*
Y111960D01*
X383055D01*
X383150Y111970D01*
X383266Y111981D01*
X383509Y112023D01*
X383626Y112055D01*
X383721Y112107D01*
X383731D01*
X383742Y112129D01*
X383795Y112182D01*
X383848Y112277D01*
X383858Y112340D01*
X383869Y112414D01*
Y112424D01*
Y112435D01*
Y112488D01*
X383848Y112562D01*
X383826Y112657D01*
X383816Y112678D01*
Y112699D01*
X383795Y112741D01*
X383774Y112805D01*
X383731Y112900D01*
X383689Y113016D01*
X383626Y113164D01*
X383129Y114305D01*
X379938D01*
X379547Y113418D01*
X379536Y113397D01*
X379515Y113344D01*
X379484Y113259D01*
X379452Y113164D01*
X379420Y113037D01*
X379389Y112921D01*
X379367Y112794D01*
X379357Y112678D01*
Y112657D01*
Y112615D01*
X379378Y112551D01*
X379399Y112467D01*
X379431Y112372D01*
X379484Y112277D01*
X379558Y112192D01*
X379663Y112118D01*
X379674D01*
X379706Y112097D01*
X379758Y112086D01*
X379843Y112055D01*
X379959Y112034D01*
X380118Y112002D01*
X380213Y111991D01*
X380318Y111981D01*
X380435Y111970D01*
X380561Y111960D01*
Y111717D01*
X377529D01*
Y111960D01*
X377550D01*
X377613Y111981D01*
X377698Y112002D01*
X377814Y112034D01*
X377941Y112086D01*
X378078Y112160D01*
X378205Y112245D01*
X378332Y112361D01*
X378342Y112382D01*
X378385Y112435D01*
X378416Y112467D01*
X378459Y112520D01*
X378501Y112583D01*
X378554Y112657D01*
X378607Y112741D01*
X378659Y112847D01*
X378723Y112953D01*
X378797Y113080D01*
X378871Y113228D01*
X378945Y113376D01*
X379029Y113545D01*
X379114Y113735D01*
X382368Y121004D01*
X382495D01*
X385771Y113534D01*
D02*
G37*
G36*
X362609Y120804D02*
X362757D01*
X362915Y120793D01*
X363095Y120783D01*
X363454Y120740D01*
X363824Y120698D01*
X363993Y120666D01*
X364162Y120624D01*
X364310Y120582D01*
X364437Y120529D01*
X364448D01*
X364469Y120518D01*
X364500Y120497D01*
X364543Y120476D01*
X364669Y120413D01*
X364817Y120318D01*
X364976Y120201D01*
X365156Y120064D01*
X365314Y119895D01*
X365472Y119694D01*
Y119684D01*
X365494Y119673D01*
X365504Y119641D01*
X365536Y119599D01*
X365589Y119483D01*
X365663Y119346D01*
X365737Y119166D01*
X365789Y118965D01*
X365832Y118754D01*
X365853Y118521D01*
Y118511D01*
Y118490D01*
Y118458D01*
X365842Y118416D01*
Y118352D01*
X365832Y118289D01*
X365789Y118130D01*
X365737Y117951D01*
X365652Y117750D01*
X365525Y117549D01*
X365451Y117444D01*
X365367Y117348D01*
X365356Y117338D01*
X365346Y117327D01*
X365314Y117296D01*
X365272Y117264D01*
X365219Y117222D01*
X365156Y117169D01*
X365071Y117116D01*
X364976Y117053D01*
X364870Y116989D01*
X364743Y116926D01*
X364606Y116862D01*
X364458Y116789D01*
X364289Y116725D01*
X364099Y116662D01*
X363898Y116598D01*
X363676Y116535D01*
X363687D01*
X363729Y116524D01*
X363803Y116503D01*
X363888Y116482D01*
X363993Y116450D01*
X364120Y116419D01*
X364247Y116376D01*
X364395Y116334D01*
X364691Y116228D01*
X364997Y116102D01*
X365134Y116038D01*
X365272Y115964D01*
X365399Y115890D01*
X365504Y115806D01*
X365515Y115795D01*
X365536Y115774D01*
X365578Y115742D01*
X365620Y115700D01*
X365684Y115637D01*
X365747Y115563D01*
X365811Y115478D01*
X365885Y115383D01*
X365959Y115267D01*
X366022Y115151D01*
X366085Y115024D01*
X366149Y114876D01*
X366191Y114728D01*
X366233Y114570D01*
X366255Y114401D01*
X366265Y114221D01*
Y114210D01*
Y114179D01*
Y114126D01*
X366255Y114052D01*
X366244Y113967D01*
X366223Y113862D01*
X366191Y113745D01*
X366159Y113629D01*
X366117Y113492D01*
X366064Y113354D01*
X365990Y113217D01*
X365916Y113069D01*
X365821Y112932D01*
X365705Y112784D01*
X365578Y112646D01*
X365430Y112520D01*
X365420Y112509D01*
X365388Y112488D01*
X365325Y112446D01*
X365240Y112393D01*
X365134Y112329D01*
X365008Y112266D01*
X364860Y112192D01*
X364691Y112118D01*
X364490Y112044D01*
X364268Y111970D01*
X364035Y111907D01*
X363771Y111843D01*
X363486Y111791D01*
X363180Y111748D01*
X362841Y111727D01*
X362493Y111717D01*
X357875D01*
Y111960D01*
X357981D01*
X358087Y111970D01*
X358213D01*
X358351Y111991D01*
X358499Y112013D01*
X358625Y112034D01*
X358721Y112076D01*
X358731Y112086D01*
X358763Y112097D01*
X358795Y112118D01*
X358847Y112160D01*
X358953Y112245D01*
X358995Y112308D01*
X359038Y112372D01*
Y112382D01*
X359048Y112414D01*
X359069Y112467D01*
X359090Y112562D01*
X359101Y112689D01*
X359112Y112763D01*
X359122Y112847D01*
Y112942D01*
X359133Y113059D01*
Y113175D01*
Y113312D01*
Y119219D01*
Y119229D01*
Y119250D01*
Y119293D01*
Y119335D01*
Y119462D01*
X359122Y119610D01*
X359112Y119768D01*
X359090Y119927D01*
X359069Y120054D01*
X359059Y120106D01*
X359038Y120149D01*
Y120159D01*
X359016Y120180D01*
X358995Y120212D01*
X358964Y120254D01*
X358921Y120307D01*
X358868Y120360D01*
X358805Y120413D01*
X358721Y120455D01*
X358710Y120466D01*
X358678Y120476D01*
X358615Y120497D01*
X358530Y120518D01*
X358414Y120540D01*
X358266Y120550D01*
X358087Y120571D01*
X357875D01*
Y120814D01*
X362482D01*
X362609Y120804D01*
D02*
G37*
G36*
X350098Y120571D02*
X349633D01*
X349560Y120561D01*
X349464Y120550D01*
X349369Y120540D01*
X349264Y120508D01*
X349158Y120476D01*
X349063Y120423D01*
X349052D01*
X349031Y120402D01*
X348999Y120381D01*
X348957Y120349D01*
X348915Y120307D01*
X348873Y120254D01*
X348830Y120180D01*
X348788Y120106D01*
Y120096D01*
X348778Y120075D01*
X348767Y120022D01*
X348756Y119937D01*
X348735Y119821D01*
X348725Y119684D01*
Y119589D01*
X348714Y119494D01*
Y119377D01*
Y119261D01*
Y113449D01*
Y113439D01*
Y113418D01*
Y113386D01*
Y113333D01*
Y113217D01*
X348725Y113080D01*
X348735Y112932D01*
X348746Y112784D01*
X348767Y112657D01*
X348778Y112604D01*
X348788Y112562D01*
Y112551D01*
X348809Y112530D01*
X348830Y112499D01*
X348862Y112456D01*
X348904Y112414D01*
X348957Y112361D01*
X349021Y112319D01*
X349105Y112277D01*
X349116D01*
X349137Y112266D01*
X349190Y112255D01*
X349274D01*
X349380Y112245D01*
X349517Y112234D01*
X349697Y112224D01*
X350785D01*
X350849Y112234D01*
X350923D01*
X351092Y112255D01*
X351282Y112287D01*
X351472Y112329D01*
X351673Y112393D01*
X351863Y112477D01*
X351874D01*
X351884Y112488D01*
X351948Y112530D01*
X352032Y112583D01*
X352148Y112678D01*
X352286Y112784D01*
X352423Y112921D01*
X352560Y113090D01*
X352698Y113280D01*
Y113291D01*
X352719Y113302D01*
X352729Y113344D01*
X352761Y113386D01*
X352793Y113439D01*
X352825Y113513D01*
X352867Y113597D01*
X352920Y113693D01*
X352972Y113798D01*
X353025Y113914D01*
X353078Y114052D01*
X353131Y114200D01*
X353194Y114358D01*
X353258Y114527D01*
X353311Y114707D01*
X353374Y114908D01*
X353659D01*
X353321Y111717D01*
X345248D01*
Y111960D01*
X345608D01*
X345682Y111970D01*
X345766Y111981D01*
X345872Y111991D01*
X345978Y112023D01*
X346083Y112055D01*
X346178Y112097D01*
X346189D01*
X346210Y112118D01*
X346242Y112139D01*
X346284Y112171D01*
X346326Y112213D01*
X346368Y112266D01*
X346411Y112340D01*
X346453Y112414D01*
Y112424D01*
X346464Y112456D01*
X346474Y112509D01*
X346495Y112583D01*
X346506Y112699D01*
X346516Y112847D01*
Y112932D01*
X346527Y113037D01*
Y113143D01*
Y113270D01*
Y119261D01*
Y119272D01*
Y119293D01*
Y119324D01*
Y119377D01*
Y119494D01*
X346516Y119631D01*
X346506Y119779D01*
X346495Y119916D01*
X346474Y120043D01*
X346464Y120085D01*
X346453Y120127D01*
Y120138D01*
X346442Y120159D01*
X346421Y120191D01*
X346390Y120233D01*
X346347Y120286D01*
X346295Y120328D01*
X346231Y120381D01*
X346147Y120434D01*
X346136Y120444D01*
X346104Y120455D01*
X346051Y120476D01*
X345988Y120508D01*
X345904Y120529D01*
X345798Y120550D01*
X345682Y120561D01*
X345544Y120571D01*
X345248D01*
Y120814D01*
X350098D01*
Y120571D01*
D02*
G37*
G36*
X329283Y120804D02*
X329441D01*
X329621Y120793D01*
X329800Y120783D01*
X330191Y120761D01*
X330593Y120719D01*
X330783Y120688D01*
X330973Y120656D01*
X331142Y120624D01*
X331290Y120582D01*
X331301D01*
X331322Y120571D01*
X331364Y120561D01*
X331417Y120540D01*
X331480Y120508D01*
X331565Y120476D01*
X331734Y120392D01*
X331935Y120275D01*
X332146Y120127D01*
X332357Y119948D01*
X332548Y119736D01*
X332558Y119726D01*
X332569Y119705D01*
X332590Y119673D01*
X332622Y119631D01*
X332664Y119567D01*
X332706Y119504D01*
X332748Y119419D01*
X332791Y119324D01*
X332875Y119113D01*
X332960Y118870D01*
X333013Y118595D01*
X333034Y118447D01*
Y118300D01*
Y118289D01*
Y118257D01*
Y118204D01*
X333023Y118130D01*
X333013Y118046D01*
X332991Y117951D01*
X332970Y117835D01*
X332939Y117718D01*
X332907Y117591D01*
X332854Y117454D01*
X332801Y117317D01*
X332727Y117179D01*
X332643Y117042D01*
X332548Y116905D01*
X332431Y116767D01*
X332305Y116641D01*
X332284Y116619D01*
X332252Y116598D01*
X332220Y116567D01*
X332114Y116493D01*
X331967Y116408D01*
X331787Y116302D01*
X331565Y116197D01*
X331301Y116091D01*
X331005Y116006D01*
X333192Y112932D01*
Y112921D01*
X333213Y112911D01*
X333234Y112879D01*
X333266Y112837D01*
X333340Y112731D01*
X333435Y112615D01*
X333530Y112488D01*
X333636Y112361D01*
X333731Y112255D01*
X333773Y112213D01*
X333805Y112182D01*
X333816Y112171D01*
X333858Y112150D01*
X333911Y112118D01*
X333985Y112076D01*
X334080Y112034D01*
X334196Y112002D01*
X334312Y111970D01*
X334450Y111960D01*
Y111717D01*
X331576D01*
X328649Y115859D01*
X328057D01*
Y113302D01*
Y113291D01*
Y113270D01*
Y113228D01*
Y113185D01*
Y113059D01*
X328068Y112911D01*
X328078Y112752D01*
X328089Y112594D01*
X328110Y112467D01*
X328131Y112414D01*
X328142Y112372D01*
Y112361D01*
X328163Y112340D01*
X328184Y112308D01*
X328215Y112266D01*
X328258Y112213D01*
X328311Y112160D01*
X328385Y112107D01*
X328458Y112065D01*
X328469D01*
X328501Y112044D01*
X328564Y112034D01*
X328649Y112013D01*
X328765Y111991D01*
X328913Y111981D01*
X329103Y111960D01*
X329314D01*
Y111717D01*
X324665D01*
Y111960D01*
X324771D01*
X324876Y111970D01*
X325003D01*
X325141Y111991D01*
X325289Y112013D01*
X325415Y112034D01*
X325510Y112076D01*
X325521Y112086D01*
X325542Y112097D01*
X325584Y112118D01*
X325637Y112160D01*
X325743Y112245D01*
X325785Y112308D01*
X325827Y112372D01*
Y112382D01*
X325838Y112414D01*
X325859Y112467D01*
X325880Y112562D01*
X325891Y112678D01*
X325901Y112763D01*
X325912Y112847D01*
Y112942D01*
X325923Y113048D01*
Y113175D01*
Y113302D01*
Y119229D01*
Y119240D01*
Y119261D01*
Y119303D01*
Y119346D01*
Y119472D01*
X325912Y119620D01*
X325901Y119779D01*
X325880Y119927D01*
X325859Y120054D01*
X325849Y120106D01*
X325827Y120149D01*
Y120159D01*
X325806Y120180D01*
X325785Y120212D01*
X325754Y120254D01*
X325711Y120307D01*
X325648Y120360D01*
X325584Y120413D01*
X325500Y120455D01*
X325489Y120466D01*
X325458Y120476D01*
X325394Y120497D01*
X325310Y120518D01*
X325204Y120540D01*
X325056Y120550D01*
X324876Y120571D01*
X324665D01*
Y120814D01*
X329156D01*
X329283Y120804D01*
D02*
G37*
G36*
X372415Y120931D02*
X372605Y120920D01*
X372816Y120888D01*
X373049Y120857D01*
X373313Y120814D01*
X373587Y120740D01*
X373873Y120666D01*
X374158Y120561D01*
X374454Y120434D01*
X374750Y120286D01*
X375046Y120106D01*
X375320Y119895D01*
X375585Y119663D01*
X375595Y119652D01*
X375648Y119599D01*
X375711Y119525D01*
X375796Y119419D01*
X375902Y119293D01*
X376018Y119134D01*
X376145Y118944D01*
X376271Y118743D01*
X376398Y118511D01*
X376514Y118247D01*
X376631Y117972D01*
X376736Y117676D01*
X376821Y117359D01*
X376884Y117021D01*
X376937Y116662D01*
X376948Y116292D01*
Y116271D01*
Y116218D01*
X376937Y116123D01*
Y116006D01*
X376916Y115848D01*
X376895Y115679D01*
X376863Y115478D01*
X376821Y115267D01*
X376768Y115034D01*
X376705Y114791D01*
X376620Y114538D01*
X376525Y114284D01*
X376409Y114020D01*
X376271Y113756D01*
X376113Y113502D01*
X375933Y113249D01*
X375923Y113228D01*
X375870Y113175D01*
X375796Y113090D01*
X375690Y112974D01*
X375542Y112847D01*
X375384Y112699D01*
X375183Y112541D01*
X374961Y112382D01*
X374697Y112224D01*
X374422Y112065D01*
X374105Y111917D01*
X373767Y111791D01*
X373397Y111674D01*
X373006Y111590D01*
X372584Y111537D01*
X372140Y111516D01*
X372034D01*
X371971Y111526D01*
X371908D01*
X371738Y111537D01*
X371527Y111569D01*
X371295Y111600D01*
X371031Y111653D01*
X370745Y111727D01*
X370449Y111812D01*
X370132Y111917D01*
X369826Y112055D01*
X369509Y112213D01*
X369192Y112403D01*
X368896Y112625D01*
X368611Y112879D01*
X368347Y113175D01*
X368336Y113185D01*
X368304Y113238D01*
X368251Y113312D01*
X368177Y113407D01*
X368104Y113534D01*
X368008Y113682D01*
X367913Y113862D01*
X367818Y114052D01*
X367723Y114274D01*
X367628Y114517D01*
X367533Y114770D01*
X367459Y115045D01*
X367385Y115330D01*
X367332Y115637D01*
X367300Y115964D01*
X367290Y116292D01*
Y116302D01*
Y116313D01*
Y116345D01*
Y116376D01*
X367300Y116493D01*
X367311Y116630D01*
X367332Y116799D01*
X367364Y117000D01*
X367406Y117222D01*
X367459Y117475D01*
X367533Y117729D01*
X367628Y118004D01*
X367734Y118278D01*
X367871Y118564D01*
X368030Y118849D01*
X368209Y119134D01*
X368421Y119398D01*
X368664Y119663D01*
X368685Y119673D01*
X368727Y119726D01*
X368801Y119789D01*
X368907Y119874D01*
X369044Y119979D01*
X369202Y120085D01*
X369393Y120212D01*
X369604Y120328D01*
X369837Y120455D01*
X370101Y120571D01*
X370375Y120677D01*
X370671Y120772D01*
X370988Y120846D01*
X371326Y120909D01*
X371686Y120941D01*
X372267D01*
X372415Y120931D01*
D02*
G37*
G36*
X339976D02*
X340166Y120920D01*
X340377Y120888D01*
X340610Y120857D01*
X340874Y120814D01*
X341149Y120740D01*
X341434Y120666D01*
X341719Y120561D01*
X342015Y120434D01*
X342311Y120286D01*
X342607Y120106D01*
X342882Y119895D01*
X343146Y119663D01*
X343156Y119652D01*
X343209Y119599D01*
X343273Y119525D01*
X343357Y119419D01*
X343463Y119293D01*
X343579Y119134D01*
X343706Y118944D01*
X343833Y118743D01*
X343959Y118511D01*
X344076Y118247D01*
X344192Y117972D01*
X344297Y117676D01*
X344382Y117359D01*
X344445Y117021D01*
X344498Y116662D01*
X344509Y116292D01*
Y116271D01*
Y116218D01*
X344498Y116123D01*
Y116006D01*
X344477Y115848D01*
X344456Y115679D01*
X344424Y115478D01*
X344382Y115267D01*
X344329Y115034D01*
X344266Y114791D01*
X344181Y114538D01*
X344086Y114284D01*
X343970Y114020D01*
X343833Y113756D01*
X343674Y113502D01*
X343494Y113249D01*
X343484Y113228D01*
X343431Y113175D01*
X343357Y113090D01*
X343251Y112974D01*
X343103Y112847D01*
X342945Y112699D01*
X342744Y112541D01*
X342522Y112382D01*
X342258Y112224D01*
X341983Y112065D01*
X341666Y111917D01*
X341328Y111791D01*
X340959Y111674D01*
X340568Y111590D01*
X340145Y111537D01*
X339701Y111516D01*
X339595D01*
X339532Y111526D01*
X339469D01*
X339300Y111537D01*
X339088Y111569D01*
X338856Y111600D01*
X338592Y111653D01*
X338306Y111727D01*
X338010Y111812D01*
X337693Y111917D01*
X337387Y112055D01*
X337070Y112213D01*
X336753Y112403D01*
X336457Y112625D01*
X336172Y112879D01*
X335908Y113175D01*
X335897Y113185D01*
X335866Y113238D01*
X335813Y113312D01*
X335739Y113407D01*
X335665Y113534D01*
X335570Y113682D01*
X335475Y113862D01*
X335379Y114052D01*
X335284Y114274D01*
X335189Y114517D01*
X335094Y114770D01*
X335020Y115045D01*
X334946Y115330D01*
X334893Y115637D01*
X334862Y115964D01*
X334851Y116292D01*
Y116302D01*
Y116313D01*
Y116345D01*
Y116376D01*
X334862Y116493D01*
X334872Y116630D01*
X334893Y116799D01*
X334925Y117000D01*
X334967Y117222D01*
X335020Y117475D01*
X335094Y117729D01*
X335189Y118004D01*
X335295Y118278D01*
X335432Y118564D01*
X335591Y118849D01*
X335770Y119134D01*
X335982Y119398D01*
X336225Y119663D01*
X336246Y119673D01*
X336288Y119726D01*
X336362Y119789D01*
X336468Y119874D01*
X336605Y119979D01*
X336764Y120085D01*
X336954Y120212D01*
X337165Y120328D01*
X337398Y120455D01*
X337662Y120571D01*
X337937Y120677D01*
X338232Y120772D01*
X338549Y120846D01*
X338887Y120909D01*
X339247Y120941D01*
X339828D01*
X339976Y120931D01*
D02*
G37*
G36*
X300288D02*
X300479Y120920D01*
X300690Y120888D01*
X300922Y120857D01*
X301187Y120814D01*
X301461Y120740D01*
X301747Y120666D01*
X302032Y120561D01*
X302328Y120434D01*
X302624Y120286D01*
X302920Y120106D01*
X303194Y119895D01*
X303458Y119663D01*
X303469Y119652D01*
X303522Y119599D01*
X303585Y119525D01*
X303670Y119419D01*
X303775Y119293D01*
X303892Y119134D01*
X304018Y118944D01*
X304145Y118743D01*
X304272Y118511D01*
X304388Y118247D01*
X304504Y117972D01*
X304610Y117676D01*
X304695Y117359D01*
X304758Y117021D01*
X304811Y116662D01*
X304821Y116292D01*
Y116271D01*
Y116218D01*
X304811Y116123D01*
Y116006D01*
X304790Y115848D01*
X304769Y115679D01*
X304737Y115478D01*
X304695Y115267D01*
X304642Y115034D01*
X304578Y114791D01*
X304494Y114538D01*
X304399Y114284D01*
X304282Y114020D01*
X304145Y113756D01*
X303987Y113502D01*
X303807Y113249D01*
X303797Y113228D01*
X303744Y113175D01*
X303670Y113090D01*
X303564Y112974D01*
X303416Y112847D01*
X303258Y112699D01*
X303057Y112541D01*
X302835Y112382D01*
X302571Y112224D01*
X302296Y112065D01*
X301979Y111917D01*
X301641Y111791D01*
X301271Y111674D01*
X300880Y111590D01*
X300457Y111537D01*
X300014Y111516D01*
X299908D01*
X299845Y111526D01*
X299781D01*
X299612Y111537D01*
X299401Y111569D01*
X299168Y111600D01*
X298904Y111653D01*
X298619Y111727D01*
X298323Y111812D01*
X298006Y111917D01*
X297700Y112055D01*
X297383Y112213D01*
X297066Y112403D01*
X296770Y112625D01*
X296485Y112879D01*
X296220Y113175D01*
X296210Y113185D01*
X296178Y113238D01*
X296125Y113312D01*
X296051Y113407D01*
X295977Y113534D01*
X295882Y113682D01*
X295787Y113862D01*
X295692Y114052D01*
X295597Y114274D01*
X295502Y114517D01*
X295407Y114770D01*
X295333Y115045D01*
X295259Y115330D01*
X295206Y115637D01*
X295174Y115964D01*
X295164Y116292D01*
Y116302D01*
Y116313D01*
Y116345D01*
Y116376D01*
X295174Y116493D01*
X295185Y116630D01*
X295206Y116799D01*
X295238Y117000D01*
X295280Y117222D01*
X295333Y117475D01*
X295407Y117729D01*
X295502Y118004D01*
X295607Y118278D01*
X295745Y118564D01*
X295903Y118849D01*
X296083Y119134D01*
X296294Y119398D01*
X296537Y119663D01*
X296558Y119673D01*
X296601Y119726D01*
X296675Y119789D01*
X296780Y119874D01*
X296918Y119979D01*
X297076Y120085D01*
X297266Y120212D01*
X297478Y120328D01*
X297710Y120455D01*
X297974Y120571D01*
X298249Y120677D01*
X298545Y120772D01*
X298862Y120846D01*
X299200Y120909D01*
X299559Y120941D01*
X300140D01*
X300288Y120931D01*
D02*
G37*
G36*
X257824Y297752D02*
X257581D01*
Y297763D01*
X257570Y297795D01*
X257560Y297847D01*
X257549Y297911D01*
X257528Y297995D01*
X257496Y298090D01*
X257433Y298302D01*
X257359Y298524D01*
X257264Y298756D01*
X257148Y298978D01*
X257084Y299073D01*
X257021Y299158D01*
X257000Y299179D01*
X256958Y299232D01*
X256873Y299305D01*
X256768Y299401D01*
X256630Y299506D01*
X256451Y299612D01*
X256260Y299707D01*
X256028Y299792D01*
X256007Y299802D01*
X255954Y299813D01*
X255912Y299823D01*
X255859Y299834D01*
X255795Y299844D01*
X255711Y299855D01*
X255626Y299866D01*
X255521Y299876D01*
X255404Y299887D01*
X255278Y299897D01*
X255140Y299908D01*
X254982Y299918D01*
X253671D01*
Y296220D01*
X253936D01*
X253988Y296231D01*
X254062Y296241D01*
X254147Y296252D01*
X254337Y296284D01*
X254538Y296347D01*
X254749Y296453D01*
X254844Y296506D01*
X254939Y296579D01*
X255035Y296664D01*
X255109Y296759D01*
Y296770D01*
X255130Y296780D01*
X255151Y296812D01*
X255172Y296865D01*
X255204Y296917D01*
X255235Y296981D01*
X255278Y297066D01*
X255320Y297161D01*
X255362Y297266D01*
X255404Y297393D01*
X255447Y297520D01*
X255489Y297668D01*
X255531Y297816D01*
X255563Y297995D01*
X255595Y298175D01*
X255616Y298365D01*
X255859D01*
Y293600D01*
X255616D01*
Y293610D01*
Y293631D01*
X255605Y293674D01*
X255595Y293727D01*
X255584Y293790D01*
X255574Y293874D01*
X255542Y294044D01*
X255489Y294244D01*
X255436Y294456D01*
X255362Y294667D01*
X255267Y294868D01*
Y294878D01*
X255257Y294889D01*
X255225Y294952D01*
X255172Y295037D01*
X255098Y295142D01*
X255013Y295248D01*
X254908Y295354D01*
X254792Y295459D01*
X254665Y295533D01*
X254644Y295544D01*
X254601Y295565D01*
X254517Y295586D01*
X254411Y295628D01*
X254274Y295660D01*
X254094Y295681D01*
X253904Y295702D01*
X253671Y295713D01*
Y293145D01*
Y293135D01*
Y293114D01*
Y293071D01*
Y293029D01*
Y292902D01*
X253682Y292754D01*
Y292596D01*
X253703Y292437D01*
X253714Y292311D01*
X253724Y292268D01*
X253735Y292226D01*
Y292215D01*
X253745Y292205D01*
X253788Y292131D01*
X253862Y292046D01*
X253967Y291962D01*
X253978D01*
X253999Y291941D01*
X254041Y291930D01*
X254105Y291909D01*
X254189Y291888D01*
X254284Y291877D01*
X254401Y291856D01*
X255204D01*
X255288Y291867D01*
X255394Y291877D01*
X255521Y291888D01*
X255658Y291909D01*
X255816Y291930D01*
X256133Y291994D01*
X256482Y292099D01*
X256641Y292173D01*
X256810Y292247D01*
X256968Y292332D01*
X257116Y292437D01*
X257127Y292448D01*
X257148Y292469D01*
X257190Y292501D01*
X257243Y292554D01*
X257306Y292607D01*
X257380Y292691D01*
X257454Y292775D01*
X257549Y292881D01*
X257634Y293008D01*
X257729Y293135D01*
X257813Y293283D01*
X257909Y293441D01*
X257993Y293621D01*
X258078Y293811D01*
X258162Y294012D01*
X258226Y294234D01*
X258479D01*
X258067Y291349D01*
X250206D01*
Y291592D01*
X250565D01*
X250639Y291603D01*
X250723Y291613D01*
X250829Y291624D01*
X250935Y291656D01*
X251040Y291687D01*
X251136Y291729D01*
X251146D01*
X251167Y291751D01*
X251199Y291772D01*
X251241Y291803D01*
X251283Y291846D01*
X251326Y291898D01*
X251368Y291973D01*
X251410Y292046D01*
Y292057D01*
X251421Y292089D01*
X251431Y292141D01*
X251453Y292215D01*
X251463Y292332D01*
X251474Y292480D01*
Y292564D01*
X251484Y292670D01*
Y292775D01*
Y292902D01*
Y298894D01*
Y298904D01*
Y298925D01*
Y298946D01*
Y298989D01*
Y299094D01*
Y299221D01*
X251474Y299348D01*
X251463Y299464D01*
X251453Y299570D01*
Y299612D01*
X251442Y299644D01*
Y299654D01*
X251431Y299686D01*
X251410Y299728D01*
X251389Y299781D01*
X251315Y299908D01*
X251262Y299961D01*
X251199Y300014D01*
X251188Y300024D01*
X251157Y300045D01*
X251093Y300077D01*
X251019Y300109D01*
X250914Y300140D01*
X250797Y300172D01*
X250660Y300193D01*
X250502Y300204D01*
X250206D01*
Y300447D01*
X257824D01*
Y297752D01*
D02*
G37*
G36*
X287938Y300204D02*
X287917D01*
X287864Y300193D01*
X287790Y300172D01*
X287685Y300151D01*
X287579Y300109D01*
X287463Y300066D01*
X287347Y300014D01*
X287251Y299939D01*
X287241Y299929D01*
X287220Y299908D01*
X287188Y299876D01*
X287156Y299834D01*
X287104Y299781D01*
X287051Y299718D01*
X286998Y299644D01*
X286924Y299549D01*
X286850Y299443D01*
X286755Y299316D01*
X286660Y299168D01*
X286565Y299010D01*
X286448Y298820D01*
X286322Y298619D01*
X286195Y298397D01*
X284219Y295100D01*
Y292902D01*
Y292892D01*
Y292871D01*
Y292839D01*
Y292786D01*
Y292670D01*
X284230Y292522D01*
X284240Y292374D01*
X284251Y292226D01*
X284272Y292110D01*
X284282Y292057D01*
X284293Y292015D01*
Y292004D01*
X284303Y291983D01*
X284325Y291951D01*
X284356Y291920D01*
X284399Y291867D01*
X284441Y291814D01*
X284504Y291772D01*
X284578Y291719D01*
X284589D01*
X284620Y291698D01*
X284663Y291677D01*
X284737Y291656D01*
X284821Y291634D01*
X284916Y291613D01*
X285033Y291603D01*
X285159Y291592D01*
X285677D01*
Y291349D01*
X280574D01*
Y291592D01*
X281112D01*
X281186Y291603D01*
X281282Y291613D01*
X281377Y291624D01*
X281482Y291656D01*
X281588Y291687D01*
X281683Y291729D01*
X281694D01*
X281715Y291751D01*
X281778Y291803D01*
X281820Y291846D01*
X281873Y291898D01*
X281915Y291973D01*
X281958Y292046D01*
Y292057D01*
X281968Y292089D01*
X281979Y292141D01*
X282000Y292215D01*
X282011Y292332D01*
X282021Y292480D01*
Y292564D01*
X282032Y292670D01*
Y292775D01*
Y292902D01*
Y294720D01*
X279897Y298629D01*
X279887Y298640D01*
X279866Y298682D01*
X279834Y298735D01*
X279792Y298809D01*
X279739Y298904D01*
X279675Y299010D01*
X279538Y299232D01*
X279390Y299464D01*
X279242Y299686D01*
X279168Y299781D01*
X279105Y299866D01*
X279041Y299929D01*
X278989Y299982D01*
X278978Y299992D01*
X278946Y300014D01*
X278883Y300045D01*
X278809Y300088D01*
X278714Y300130D01*
X278587Y300161D01*
X278460Y300193D01*
X278302Y300204D01*
Y300447D01*
X282655D01*
Y300204D01*
X282402D01*
X282338Y300193D01*
X282254D01*
X282063Y300151D01*
X281989Y300130D01*
X281915Y300088D01*
X281905D01*
X281894Y300066D01*
X281842Y300014D01*
X281778Y299939D01*
X281768Y299887D01*
X281757Y299844D01*
Y299834D01*
X281768Y299792D01*
X281789Y299718D01*
X281799Y299665D01*
X281820Y299601D01*
X281852Y299527D01*
X281884Y299443D01*
X281937Y299337D01*
X281989Y299221D01*
X282042Y299094D01*
X282116Y298957D01*
X282201Y298798D01*
X282296Y298619D01*
X283934Y295618D01*
X285571Y298355D01*
X285582Y298365D01*
X285603Y298397D01*
X285624Y298450D01*
X285667Y298513D01*
X285709Y298598D01*
X285762Y298693D01*
X285878Y298904D01*
X285994Y299126D01*
X286089Y299348D01*
X286131Y299443D01*
X286163Y299538D01*
X286174Y299622D01*
X286184Y299697D01*
Y299707D01*
Y299728D01*
X286174Y299760D01*
X286163Y299802D01*
X286142Y299844D01*
X286110Y299897D01*
X286068Y299950D01*
X286005Y299992D01*
X285994Y300003D01*
X285962Y300024D01*
X285899Y300045D01*
X285814Y300088D01*
X285709Y300119D01*
X285561Y300151D01*
X285381Y300183D01*
X285170Y300204D01*
Y300447D01*
X287938D01*
Y300204D01*
D02*
G37*
G36*
X335741Y300436D02*
X335878D01*
X336037Y300426D01*
X336216Y300415D01*
X336406Y300394D01*
X336607Y300373D01*
X336819Y300341D01*
X337262Y300257D01*
X337685Y300151D01*
X337896Y300077D01*
X338087Y300003D01*
X338097Y299992D01*
X338139Y299982D01*
X338203Y299950D01*
X338287Y299897D01*
X338393Y299844D01*
X338509Y299771D01*
X338636Y299686D01*
X338773Y299591D01*
X338921Y299485D01*
X339069Y299358D01*
X339228Y299221D01*
X339376Y299073D01*
X339524Y298915D01*
X339671Y298745D01*
X339798Y298555D01*
X339925Y298355D01*
X339936Y298344D01*
X339957Y298302D01*
X339988Y298249D01*
X340020Y298164D01*
X340073Y298059D01*
X340126Y297932D01*
X340179Y297795D01*
X340242Y297636D01*
X340305Y297456D01*
X340358Y297266D01*
X340411Y297055D01*
X340464Y296844D01*
X340496Y296611D01*
X340527Y296368D01*
X340548Y296115D01*
X340559Y295861D01*
Y295850D01*
Y295819D01*
Y295766D01*
Y295702D01*
X340548Y295618D01*
X340538Y295512D01*
Y295406D01*
X340517Y295280D01*
X340485Y295016D01*
X340422Y294720D01*
X340348Y294403D01*
X340242Y294096D01*
Y294086D01*
X340232Y294065D01*
X340210Y294022D01*
X340189Y293959D01*
X340158Y293896D01*
X340115Y293811D01*
X340031Y293631D01*
X339915Y293420D01*
X339777Y293198D01*
X339619Y292976D01*
X339439Y292765D01*
X339428Y292754D01*
X339418Y292744D01*
X339354Y292680D01*
X339249Y292585D01*
X339111Y292458D01*
X338953Y292332D01*
X338752Y292184D01*
X338541Y292046D01*
X338308Y291920D01*
X338298D01*
X338277Y291909D01*
X338245Y291888D01*
X338192Y291867D01*
X338129Y291846D01*
X338055Y291814D01*
X337970Y291772D01*
X337875Y291740D01*
X337770Y291698D01*
X337653Y291656D01*
X337389Y291581D01*
X337083Y291497D01*
X336755Y291423D01*
X336734D01*
X336681Y291412D01*
X336576Y291402D01*
X336438Y291391D01*
X336259Y291370D01*
X336153D01*
X336037Y291360D01*
X335910D01*
X335772Y291349D01*
X331398D01*
Y291592D01*
X331757D01*
X331831Y291603D01*
X331916D01*
X332117Y291645D01*
X332212Y291666D01*
X332296Y291708D01*
X332307Y291719D01*
X332328Y291729D01*
X332370Y291761D01*
X332412Y291803D01*
X332518Y291909D01*
X332613Y292046D01*
Y292057D01*
X332624Y292078D01*
X332634Y292131D01*
X332645Y292205D01*
X332655Y292321D01*
X332666Y292395D01*
Y292469D01*
Y292564D01*
X332677Y292659D01*
Y292775D01*
Y292902D01*
Y298894D01*
Y298904D01*
Y298925D01*
Y298957D01*
Y299010D01*
Y299126D01*
X332666Y299263D01*
X332655Y299411D01*
X332645Y299549D01*
X332624Y299675D01*
X332613Y299718D01*
X332603Y299760D01*
Y299771D01*
X332592Y299792D01*
X332571Y299823D01*
X332539Y299866D01*
X332497Y299918D01*
X332444Y299961D01*
X332381Y300014D01*
X332296Y300066D01*
X332285Y300077D01*
X332254Y300088D01*
X332201Y300109D01*
X332138Y300140D01*
X332053Y300161D01*
X331947Y300183D01*
X331831Y300193D01*
X331694Y300204D01*
X331398D01*
Y300447D01*
X335625D01*
X335741Y300436D01*
D02*
G37*
G36*
X326189D02*
X326347D01*
X326527Y300426D01*
X326707Y300415D01*
X327097Y300394D01*
X327499Y300352D01*
X327689Y300320D01*
X327879Y300288D01*
X328048Y300257D01*
X328196Y300214D01*
X328207D01*
X328228Y300204D01*
X328270Y300193D01*
X328323Y300172D01*
X328386Y300140D01*
X328471Y300109D01*
X328640Y300024D01*
X328841Y299908D01*
X329052Y299760D01*
X329263Y299580D01*
X329454Y299369D01*
X329464Y299358D01*
X329475Y299337D01*
X329496Y299305D01*
X329528Y299263D01*
X329570Y299200D01*
X329612Y299137D01*
X329655Y299052D01*
X329697Y298957D01*
X329781Y298745D01*
X329866Y298503D01*
X329919Y298228D01*
X329940Y298080D01*
Y297932D01*
Y297921D01*
Y297890D01*
Y297837D01*
X329929Y297763D01*
X329919Y297678D01*
X329897Y297583D01*
X329876Y297467D01*
X329845Y297351D01*
X329813Y297224D01*
X329760Y297087D01*
X329707Y296949D01*
X329633Y296812D01*
X329549Y296674D01*
X329454Y296537D01*
X329338Y296400D01*
X329211Y296273D01*
X329190Y296252D01*
X329158Y296231D01*
X329126Y296199D01*
X329021Y296125D01*
X328873Y296040D01*
X328693Y295935D01*
X328471Y295829D01*
X328207Y295723D01*
X327911Y295639D01*
X330098Y292564D01*
Y292554D01*
X330119Y292543D01*
X330140Y292511D01*
X330172Y292469D01*
X330246Y292363D01*
X330341Y292247D01*
X330436Y292120D01*
X330542Y291994D01*
X330637Y291888D01*
X330679Y291846D01*
X330711Y291814D01*
X330722Y291803D01*
X330764Y291782D01*
X330817Y291751D01*
X330891Y291708D01*
X330986Y291666D01*
X331102Y291634D01*
X331218Y291603D01*
X331356Y291592D01*
Y291349D01*
X328482D01*
X325555Y295491D01*
X324963D01*
Y292934D01*
Y292923D01*
Y292902D01*
Y292860D01*
Y292818D01*
Y292691D01*
X324974Y292543D01*
X324984Y292385D01*
X324995Y292226D01*
X325016Y292099D01*
X325037Y292046D01*
X325047Y292004D01*
Y291994D01*
X325069Y291973D01*
X325090Y291941D01*
X325121Y291898D01*
X325164Y291846D01*
X325217Y291793D01*
X325291Y291740D01*
X325364Y291698D01*
X325375D01*
X325407Y291677D01*
X325470Y291666D01*
X325555Y291645D01*
X325671Y291624D01*
X325819Y291613D01*
X326009Y291592D01*
X326220D01*
Y291349D01*
X321571D01*
Y291592D01*
X321677D01*
X321782Y291603D01*
X321909D01*
X322047Y291624D01*
X322195Y291645D01*
X322321Y291666D01*
X322416Y291708D01*
X322427Y291719D01*
X322448Y291729D01*
X322491Y291751D01*
X322543Y291793D01*
X322649Y291877D01*
X322691Y291941D01*
X322733Y292004D01*
Y292015D01*
X322744Y292046D01*
X322765Y292099D01*
X322786Y292194D01*
X322797Y292311D01*
X322808Y292395D01*
X322818Y292480D01*
Y292575D01*
X322829Y292680D01*
Y292807D01*
Y292934D01*
Y298862D01*
Y298872D01*
Y298894D01*
Y298936D01*
Y298978D01*
Y299105D01*
X322818Y299253D01*
X322808Y299411D01*
X322786Y299559D01*
X322765Y299686D01*
X322755Y299739D01*
X322733Y299781D01*
Y299792D01*
X322712Y299813D01*
X322691Y299844D01*
X322659Y299887D01*
X322617Y299939D01*
X322554Y299992D01*
X322491Y300045D01*
X322406Y300088D01*
X322395Y300098D01*
X322364Y300109D01*
X322300Y300130D01*
X322216Y300151D01*
X322110Y300172D01*
X321962Y300183D01*
X321782Y300204D01*
X321571D01*
Y300447D01*
X326062D01*
X326189Y300436D01*
D02*
G37*
G36*
X319711Y293167D02*
X319722Y293156D01*
X319733Y293124D01*
X319754Y293071D01*
X319796Y292997D01*
X319828Y292913D01*
X319881Y292818D01*
X319986Y292607D01*
X320113Y292374D01*
X320240Y292152D01*
X320303Y292057D01*
X320367Y291962D01*
X320430Y291888D01*
X320483Y291824D01*
X320493Y291814D01*
X320525Y291793D01*
X320578Y291761D01*
X320652Y291719D01*
X320747Y291677D01*
X320853Y291645D01*
X320979Y291613D01*
X321127Y291592D01*
Y291349D01*
X316732D01*
Y291592D01*
X316996D01*
X317091Y291603D01*
X317207Y291613D01*
X317450Y291656D01*
X317567Y291687D01*
X317662Y291740D01*
X317672D01*
X317683Y291761D01*
X317736Y291814D01*
X317788Y291909D01*
X317799Y291973D01*
X317810Y292046D01*
Y292057D01*
Y292068D01*
Y292120D01*
X317788Y292194D01*
X317767Y292290D01*
X317757Y292311D01*
Y292332D01*
X317736Y292374D01*
X317715Y292437D01*
X317672Y292533D01*
X317630Y292649D01*
X317567Y292797D01*
X317070Y293938D01*
X313879D01*
X313488Y293050D01*
X313477Y293029D01*
X313456Y292976D01*
X313424Y292892D01*
X313393Y292797D01*
X313361Y292670D01*
X313329Y292554D01*
X313308Y292427D01*
X313298Y292311D01*
Y292290D01*
Y292247D01*
X313319Y292184D01*
X313340Y292099D01*
X313372Y292004D01*
X313424Y291909D01*
X313498Y291824D01*
X313604Y291751D01*
X313615D01*
X313646Y291729D01*
X313699Y291719D01*
X313784Y291687D01*
X313900Y291666D01*
X314058Y291634D01*
X314154Y291624D01*
X314259Y291613D01*
X314375Y291603D01*
X314502Y291592D01*
Y291349D01*
X311470D01*
Y291592D01*
X311491D01*
X311554Y291613D01*
X311639Y291634D01*
X311755Y291666D01*
X311882Y291719D01*
X312019Y291793D01*
X312146Y291877D01*
X312273Y291994D01*
X312283Y292015D01*
X312326Y292068D01*
X312357Y292099D01*
X312400Y292152D01*
X312442Y292215D01*
X312495Y292290D01*
X312547Y292374D01*
X312600Y292480D01*
X312664Y292585D01*
X312738Y292712D01*
X312812Y292860D01*
X312886Y293008D01*
X312970Y293177D01*
X313055Y293367D01*
X316309Y300637D01*
X316436D01*
X319711Y293167D01*
D02*
G37*
G36*
X296550Y300436D02*
X296698D01*
X296856Y300426D01*
X297036Y300415D01*
X297395Y300373D01*
X297765Y300331D01*
X297934Y300299D01*
X298103Y300257D01*
X298251Y300214D01*
X298378Y300161D01*
X298389D01*
X298410Y300151D01*
X298441Y300130D01*
X298484Y300109D01*
X298610Y300045D01*
X298758Y299950D01*
X298917Y299834D01*
X299097Y299697D01*
X299255Y299527D01*
X299413Y299327D01*
Y299316D01*
X299435Y299305D01*
X299445Y299274D01*
X299477Y299232D01*
X299530Y299115D01*
X299604Y298978D01*
X299678Y298798D01*
X299730Y298598D01*
X299773Y298386D01*
X299794Y298154D01*
Y298143D01*
Y298122D01*
Y298090D01*
X299783Y298048D01*
Y297985D01*
X299773Y297921D01*
X299730Y297763D01*
X299678Y297583D01*
X299593Y297383D01*
X299466Y297182D01*
X299392Y297076D01*
X299308Y296981D01*
X299297Y296970D01*
X299287Y296960D01*
X299255Y296928D01*
X299213Y296896D01*
X299160Y296854D01*
X299097Y296801D01*
X299012Y296749D01*
X298917Y296685D01*
X298811Y296622D01*
X298684Y296558D01*
X298547Y296495D01*
X298399Y296421D01*
X298230Y296357D01*
X298040Y296294D01*
X297839Y296231D01*
X297617Y296167D01*
X297628D01*
X297670Y296157D01*
X297744Y296136D01*
X297829Y296115D01*
X297934Y296083D01*
X298061Y296051D01*
X298188Y296009D01*
X298336Y295967D01*
X298631Y295861D01*
X298938Y295734D01*
X299075Y295671D01*
X299213Y295597D01*
X299340Y295523D01*
X299445Y295438D01*
X299456Y295428D01*
X299477Y295406D01*
X299519Y295375D01*
X299561Y295333D01*
X299625Y295269D01*
X299688Y295195D01*
X299752Y295111D01*
X299825Y295016D01*
X299900Y294899D01*
X299963Y294783D01*
X300026Y294656D01*
X300090Y294508D01*
X300132Y294361D01*
X300174Y294202D01*
X300195Y294033D01*
X300206Y293853D01*
Y293843D01*
Y293811D01*
Y293758D01*
X300195Y293684D01*
X300185Y293600D01*
X300164Y293494D01*
X300132Y293378D01*
X300100Y293262D01*
X300058Y293124D01*
X300005Y292987D01*
X299931Y292850D01*
X299857Y292701D01*
X299762Y292564D01*
X299646Y292416D01*
X299519Y292279D01*
X299371Y292152D01*
X299361Y292141D01*
X299329Y292120D01*
X299265Y292078D01*
X299181Y292025D01*
X299075Y291962D01*
X298948Y291898D01*
X298801Y291824D01*
X298631Y291751D01*
X298431Y291677D01*
X298209Y291603D01*
X297976Y291539D01*
X297712Y291476D01*
X297427Y291423D01*
X297120Y291381D01*
X296782Y291360D01*
X296434Y291349D01*
X291816D01*
Y291592D01*
X291922D01*
X292027Y291603D01*
X292154D01*
X292292Y291624D01*
X292440Y291645D01*
X292566Y291666D01*
X292661Y291708D01*
X292672Y291719D01*
X292704Y291729D01*
X292736Y291751D01*
X292788Y291793D01*
X292894Y291877D01*
X292936Y291941D01*
X292978Y292004D01*
Y292015D01*
X292989Y292046D01*
X293010Y292099D01*
X293031Y292194D01*
X293042Y292321D01*
X293053Y292395D01*
X293063Y292480D01*
Y292575D01*
X293074Y292691D01*
Y292807D01*
Y292945D01*
Y298851D01*
Y298862D01*
Y298883D01*
Y298925D01*
Y298967D01*
Y299094D01*
X293063Y299242D01*
X293053Y299401D01*
X293031Y299559D01*
X293010Y299686D01*
X293000Y299739D01*
X292978Y299781D01*
Y299792D01*
X292957Y299813D01*
X292936Y299844D01*
X292904Y299887D01*
X292862Y299939D01*
X292809Y299992D01*
X292746Y300045D01*
X292661Y300088D01*
X292651Y300098D01*
X292619Y300109D01*
X292556Y300130D01*
X292471Y300151D01*
X292355Y300172D01*
X292207Y300183D01*
X292027Y300204D01*
X291816D01*
Y300447D01*
X296423D01*
X296550Y300436D01*
D02*
G37*
G36*
X276590Y293167D02*
X276601Y293156D01*
X276611Y293124D01*
X276632Y293071D01*
X276675Y292997D01*
X276706Y292913D01*
X276759Y292818D01*
X276865Y292607D01*
X276992Y292374D01*
X277118Y292152D01*
X277182Y292057D01*
X277245Y291962D01*
X277309Y291888D01*
X277361Y291824D01*
X277372Y291814D01*
X277404Y291793D01*
X277456Y291761D01*
X277530Y291719D01*
X277626Y291677D01*
X277731Y291645D01*
X277858Y291613D01*
X278006Y291592D01*
Y291349D01*
X273610D01*
Y291592D01*
X273874D01*
X273970Y291603D01*
X274086Y291613D01*
X274329Y291656D01*
X274445Y291687D01*
X274540Y291740D01*
X274551D01*
X274561Y291761D01*
X274614Y291814D01*
X274667Y291909D01*
X274678Y291973D01*
X274688Y292046D01*
Y292057D01*
Y292068D01*
Y292120D01*
X274667Y292194D01*
X274646Y292290D01*
X274635Y292311D01*
Y292332D01*
X274614Y292374D01*
X274593Y292437D01*
X274551Y292533D01*
X274508Y292649D01*
X274445Y292797D01*
X273948Y293938D01*
X270757D01*
X270366Y293050D01*
X270356Y293029D01*
X270335Y292976D01*
X270303Y292892D01*
X270271Y292797D01*
X270240Y292670D01*
X270208Y292554D01*
X270187Y292427D01*
X270176Y292311D01*
Y292290D01*
Y292247D01*
X270197Y292184D01*
X270219Y292099D01*
X270250Y292004D01*
X270303Y291909D01*
X270377Y291824D01*
X270483Y291751D01*
X270493D01*
X270525Y291729D01*
X270578Y291719D01*
X270662Y291687D01*
X270779Y291666D01*
X270937Y291634D01*
X271032Y291624D01*
X271138Y291613D01*
X271254Y291603D01*
X271381Y291592D01*
Y291349D01*
X268348D01*
Y291592D01*
X268369D01*
X268433Y291613D01*
X268517Y291634D01*
X268633Y291666D01*
X268760Y291719D01*
X268898Y291793D01*
X269025Y291877D01*
X269151Y291994D01*
X269162Y292015D01*
X269204Y292068D01*
X269236Y292099D01*
X269278Y292152D01*
X269320Y292215D01*
X269373Y292290D01*
X269426Y292374D01*
X269479Y292480D01*
X269542Y292585D01*
X269616Y292712D01*
X269690Y292860D01*
X269764Y293008D01*
X269849Y293177D01*
X269933Y293367D01*
X273188Y300637D01*
X273314D01*
X276590Y293167D01*
D02*
G37*
G36*
X264196Y300204D02*
X263731D01*
X263657Y300193D01*
X263562Y300183D01*
X263467Y300172D01*
X263361Y300140D01*
X263255Y300109D01*
X263160Y300056D01*
X263150D01*
X263128Y300035D01*
X263097Y300014D01*
X263055Y299982D01*
X263012Y299939D01*
X262970Y299887D01*
X262928Y299813D01*
X262885Y299739D01*
Y299728D01*
X262875Y299707D01*
X262864Y299654D01*
X262854Y299570D01*
X262833Y299454D01*
X262822Y299316D01*
Y299221D01*
X262811Y299126D01*
Y299010D01*
Y298894D01*
Y293082D01*
Y293071D01*
Y293050D01*
Y293018D01*
Y292966D01*
Y292850D01*
X262822Y292712D01*
X262833Y292564D01*
X262843Y292416D01*
X262864Y292290D01*
X262875Y292237D01*
X262885Y292194D01*
Y292184D01*
X262906Y292163D01*
X262928Y292131D01*
X262959Y292089D01*
X263002Y292046D01*
X263055Y291994D01*
X263118Y291951D01*
X263202Y291909D01*
X263213D01*
X263234Y291898D01*
X263287Y291888D01*
X263372D01*
X263477Y291877D01*
X263615Y291867D01*
X263794Y291856D01*
X264883D01*
X264946Y291867D01*
X265020D01*
X265189Y291888D01*
X265379Y291920D01*
X265569Y291962D01*
X265770Y292025D01*
X265960Y292110D01*
X265971D01*
X265981Y292120D01*
X266045Y292163D01*
X266129Y292215D01*
X266245Y292311D01*
X266383Y292416D01*
X266520Y292554D01*
X266658Y292723D01*
X266795Y292913D01*
Y292923D01*
X266816Y292934D01*
X266827Y292976D01*
X266858Y293018D01*
X266890Y293071D01*
X266922Y293145D01*
X266964Y293230D01*
X267017Y293325D01*
X267070Y293431D01*
X267122Y293547D01*
X267175Y293684D01*
X267228Y293832D01*
X267292Y293991D01*
X267355Y294160D01*
X267408Y294339D01*
X267471Y294540D01*
X267757D01*
X267418Y291349D01*
X259346D01*
Y291592D01*
X259705D01*
X259779Y291603D01*
X259863Y291613D01*
X259969Y291624D01*
X260075Y291656D01*
X260180Y291687D01*
X260275Y291729D01*
X260286D01*
X260307Y291751D01*
X260339Y291772D01*
X260381Y291803D01*
X260423Y291846D01*
X260466Y291898D01*
X260508Y291973D01*
X260550Y292046D01*
Y292057D01*
X260561Y292089D01*
X260571Y292141D01*
X260592Y292215D01*
X260603Y292332D01*
X260614Y292480D01*
Y292564D01*
X260624Y292670D01*
Y292775D01*
Y292902D01*
Y298894D01*
Y298904D01*
Y298925D01*
Y298957D01*
Y299010D01*
Y299126D01*
X260614Y299263D01*
X260603Y299411D01*
X260592Y299549D01*
X260571Y299675D01*
X260561Y299718D01*
X260550Y299760D01*
Y299771D01*
X260540Y299792D01*
X260518Y299823D01*
X260487Y299866D01*
X260445Y299918D01*
X260392Y299961D01*
X260328Y300014D01*
X260244Y300066D01*
X260233Y300077D01*
X260201Y300088D01*
X260149Y300109D01*
X260085Y300140D01*
X260001Y300161D01*
X259895Y300183D01*
X259779Y300193D01*
X259641Y300204D01*
X259346D01*
Y300447D01*
X264196D01*
Y300204D01*
D02*
G37*
G36*
X244901Y300436D02*
X245060D01*
X245240Y300426D01*
X245419Y300415D01*
X245810Y300394D01*
X246212Y300352D01*
X246402Y300320D01*
X246592Y300288D01*
X246761Y300257D01*
X246909Y300214D01*
X246920D01*
X246941Y300204D01*
X246983Y300193D01*
X247036Y300172D01*
X247099Y300140D01*
X247184Y300109D01*
X247353Y300024D01*
X247554Y299908D01*
X247765Y299760D01*
X247976Y299580D01*
X248166Y299369D01*
X248177Y299358D01*
X248188Y299337D01*
X248209Y299305D01*
X248240Y299263D01*
X248283Y299200D01*
X248325Y299137D01*
X248367Y299052D01*
X248409Y298957D01*
X248494Y298745D01*
X248578Y298503D01*
X248631Y298228D01*
X248652Y298080D01*
Y297932D01*
Y297921D01*
Y297890D01*
Y297837D01*
X248642Y297763D01*
X248631Y297678D01*
X248610Y297583D01*
X248589Y297467D01*
X248557Y297351D01*
X248526Y297224D01*
X248473Y297087D01*
X248420Y296949D01*
X248346Y296812D01*
X248262Y296674D01*
X248166Y296537D01*
X248050Y296400D01*
X247923Y296273D01*
X247902Y296252D01*
X247871Y296231D01*
X247839Y296199D01*
X247733Y296125D01*
X247585Y296040D01*
X247406Y295935D01*
X247184Y295829D01*
X246920Y295723D01*
X246624Y295639D01*
X248811Y292564D01*
Y292554D01*
X248832Y292543D01*
X248853Y292511D01*
X248885Y292469D01*
X248959Y292363D01*
X249054Y292247D01*
X249149Y292120D01*
X249255Y291994D01*
X249350Y291888D01*
X249392Y291846D01*
X249424Y291814D01*
X249434Y291803D01*
X249477Y291782D01*
X249529Y291751D01*
X249603Y291708D01*
X249699Y291666D01*
X249815Y291634D01*
X249931Y291603D01*
X250068Y291592D01*
Y291349D01*
X247194D01*
X244267Y295491D01*
X243676D01*
Y292934D01*
Y292923D01*
Y292902D01*
Y292860D01*
Y292818D01*
Y292691D01*
X243686Y292543D01*
X243697Y292385D01*
X243707Y292226D01*
X243729Y292099D01*
X243750Y292046D01*
X243760Y292004D01*
Y291994D01*
X243781Y291973D01*
X243803Y291941D01*
X243834Y291898D01*
X243876Y291846D01*
X243929Y291793D01*
X244003Y291740D01*
X244077Y291698D01*
X244088D01*
X244119Y291677D01*
X244183Y291666D01*
X244267Y291645D01*
X244384Y291624D01*
X244532Y291613D01*
X244722Y291592D01*
X244933D01*
Y291349D01*
X240284D01*
Y291592D01*
X240389D01*
X240495Y291603D01*
X240622D01*
X240759Y291624D01*
X240907Y291645D01*
X241034Y291666D01*
X241129Y291708D01*
X241140Y291719D01*
X241161Y291729D01*
X241203Y291751D01*
X241256Y291793D01*
X241362Y291877D01*
X241404Y291941D01*
X241446Y292004D01*
Y292015D01*
X241457Y292046D01*
X241478Y292099D01*
X241499Y292194D01*
X241510Y292311D01*
X241520Y292395D01*
X241531Y292480D01*
Y292575D01*
X241541Y292680D01*
Y292807D01*
Y292934D01*
Y298862D01*
Y298872D01*
Y298894D01*
Y298936D01*
Y298978D01*
Y299105D01*
X241531Y299253D01*
X241520Y299411D01*
X241499Y299559D01*
X241478Y299686D01*
X241467Y299739D01*
X241446Y299781D01*
Y299792D01*
X241425Y299813D01*
X241404Y299844D01*
X241372Y299887D01*
X241330Y299939D01*
X241266Y299992D01*
X241203Y300045D01*
X241119Y300088D01*
X241108Y300098D01*
X241076Y300109D01*
X241013Y300130D01*
X240928Y300151D01*
X240823Y300172D01*
X240675Y300183D01*
X240495Y300204D01*
X240284D01*
Y300447D01*
X244775D01*
X244901Y300436D01*
D02*
G37*
G36*
X306356Y300563D02*
X306546Y300552D01*
X306757Y300521D01*
X306990Y300489D01*
X307254Y300447D01*
X307528Y300373D01*
X307814Y300299D01*
X308099Y300193D01*
X308395Y300066D01*
X308691Y299918D01*
X308987Y299739D01*
X309261Y299527D01*
X309526Y299295D01*
X309536Y299284D01*
X309589Y299232D01*
X309652Y299158D01*
X309737Y299052D01*
X309842Y298925D01*
X309959Y298767D01*
X310086Y298577D01*
X310212Y298376D01*
X310339Y298143D01*
X310455Y297879D01*
X310572Y297604D01*
X310677Y297309D01*
X310762Y296992D01*
X310825Y296653D01*
X310878Y296294D01*
X310889Y295924D01*
Y295903D01*
Y295850D01*
X310878Y295755D01*
Y295639D01*
X310857Y295480D01*
X310836Y295311D01*
X310804Y295111D01*
X310762Y294899D01*
X310709Y294667D01*
X310646Y294424D01*
X310561Y294170D01*
X310466Y293917D01*
X310350Y293652D01*
X310212Y293388D01*
X310054Y293135D01*
X309874Y292881D01*
X309864Y292860D01*
X309811Y292807D01*
X309737Y292723D01*
X309631Y292607D01*
X309483Y292480D01*
X309325Y292332D01*
X309124Y292173D01*
X308902Y292015D01*
X308638Y291856D01*
X308363Y291698D01*
X308046Y291550D01*
X307708Y291423D01*
X307338Y291307D01*
X306947Y291222D01*
X306525Y291169D01*
X306081Y291148D01*
X305975D01*
X305912Y291159D01*
X305848D01*
X305679Y291169D01*
X305468Y291201D01*
X305236Y291233D01*
X304971Y291286D01*
X304686Y291360D01*
X304390Y291444D01*
X304073Y291550D01*
X303767Y291687D01*
X303450Y291846D01*
X303133Y292036D01*
X302837Y292258D01*
X302552Y292511D01*
X302288Y292807D01*
X302277Y292818D01*
X302245Y292871D01*
X302192Y292945D01*
X302118Y293040D01*
X302045Y293167D01*
X301949Y293314D01*
X301854Y293494D01*
X301759Y293684D01*
X301664Y293906D01*
X301569Y294149D01*
X301474Y294403D01*
X301400Y294678D01*
X301326Y294963D01*
X301273Y295269D01*
X301241Y295597D01*
X301231Y295924D01*
Y295935D01*
Y295945D01*
Y295977D01*
Y296009D01*
X301241Y296125D01*
X301252Y296262D01*
X301273Y296432D01*
X301305Y296632D01*
X301347Y296854D01*
X301400Y297108D01*
X301474Y297361D01*
X301569Y297636D01*
X301675Y297911D01*
X301812Y298196D01*
X301971Y298481D01*
X302150Y298767D01*
X302362Y299031D01*
X302605Y299295D01*
X302626Y299305D01*
X302668Y299358D01*
X302742Y299422D01*
X302847Y299506D01*
X302985Y299612D01*
X303143Y299718D01*
X303334Y299844D01*
X303545Y299961D01*
X303777Y300088D01*
X304042Y300204D01*
X304316Y300309D01*
X304612Y300404D01*
X304929Y300478D01*
X305267Y300542D01*
X305627Y300574D01*
X306208D01*
X306356Y300563D01*
D02*
G37*
%LPC*%
G36*
X568862Y232328D02*
X568840D01*
X568788D01*
X568693D01*
X568566Y232317D01*
X568418Y232307D01*
X568249Y232296D01*
X568059Y232286D01*
X567858Y232254D01*
X567636Y232233D01*
X567403Y232190D01*
X566939Y232095D01*
X566706Y232032D01*
X566484Y231958D01*
X566262Y231863D01*
X566062Y231768D01*
X566051D01*
X566030Y231747D01*
X565988Y231726D01*
X565924Y231694D01*
X565861Y231652D01*
X565787Y231599D01*
X565618Y231462D01*
X565428Y231303D01*
X565248Y231113D01*
X565079Y230891D01*
X565015Y230775D01*
X564952Y230648D01*
X564941Y230627D01*
X564931Y230595D01*
X564920Y230553D01*
X564899Y230500D01*
X564889Y230436D01*
X564868Y230363D01*
X564846Y230268D01*
X564825Y230162D01*
X564804Y230046D01*
X564794Y229919D01*
X564772Y229771D01*
X564762Y229612D01*
X564751Y229443D01*
X564741Y229253D01*
Y229052D01*
X571841D01*
X571852D01*
X571862D01*
X571926D01*
X572021D01*
X572137Y229063D01*
X572253D01*
X572370Y229074D01*
X572465Y229084D01*
X572539Y229105D01*
X572560Y229116D01*
X572613Y229147D01*
X572676Y229200D01*
X572729Y229285D01*
Y229295D01*
X572739Y229317D01*
X572761Y229359D01*
X572771Y229422D01*
X572792Y229485D01*
X572813Y229581D01*
X572824Y229686D01*
Y229855D01*
X572813Y229908D01*
Y229982D01*
X572803Y230077D01*
X572782Y230194D01*
X572761Y230310D01*
X572729Y230436D01*
X572687Y230574D01*
X572634Y230711D01*
X572581Y230859D01*
X572507Y230996D01*
X572412Y231134D01*
X572317Y231271D01*
X572201Y231398D01*
X572063Y231514D01*
X572053Y231525D01*
X572010Y231546D01*
X571958Y231588D01*
X571862Y231641D01*
X571757Y231705D01*
X571619Y231768D01*
X571461Y231842D01*
X571271Y231926D01*
X571059Y232000D01*
X570827Y232074D01*
X570563Y232138D01*
X570277Y232201D01*
X569961Y232254D01*
X569622Y232296D01*
X569253Y232317D01*
X568862Y232328D01*
D02*
G37*
G36*
X566769Y221920D02*
X566759D01*
X566727D01*
X566674D01*
X566600Y221909D01*
X566516D01*
X566410Y221899D01*
X566188Y221857D01*
X565945Y221804D01*
X565681Y221719D01*
X565449Y221592D01*
X565332Y221518D01*
X565237Y221434D01*
X565227Y221423D01*
X565216Y221413D01*
X565195Y221381D01*
X565163Y221339D01*
X565121Y221286D01*
X565079Y221223D01*
X565037Y221149D01*
X564984Y221054D01*
X564941Y220948D01*
X564899Y220832D01*
X564857Y220705D01*
X564815Y220567D01*
X564783Y220409D01*
X564762Y220240D01*
X564741Y220060D01*
Y219152D01*
X568714D01*
Y219680D01*
X568703Y219764D01*
Y219849D01*
X568693Y220050D01*
X568671Y220282D01*
X568640Y220504D01*
X568597Y220726D01*
X568576Y220821D01*
X568545Y220916D01*
Y220927D01*
X568534Y220937D01*
X568513Y220990D01*
X568471Y221075D01*
X568407Y221180D01*
X568323Y221297D01*
X568217Y221423D01*
X568090Y221540D01*
X567932Y221645D01*
X567911Y221656D01*
X567847Y221688D01*
X567752Y221730D01*
X567615Y221783D01*
X567456Y221835D01*
X567256Y221878D01*
X567023Y221909D01*
X566769Y221920D01*
D02*
G37*
G36*
X570246Y211047D02*
X567139Y209684D01*
X570246Y208289D01*
Y211047D01*
D02*
G37*
G36*
X569147Y202658D02*
X568872D01*
X568862D01*
X568851D01*
X568788D01*
X568703D01*
X568576D01*
X568428Y202647D01*
X568249Y202636D01*
X568059Y202626D01*
X567858Y202615D01*
X567425Y202573D01*
X566970Y202520D01*
X566759Y202478D01*
X566548Y202436D01*
X566357Y202383D01*
X566178Y202319D01*
X566167D01*
X566135Y202309D01*
X566093Y202288D01*
X566030Y202256D01*
X565956Y202224D01*
X565871Y202182D01*
X565681Y202087D01*
X565470Y201960D01*
X565258Y201812D01*
X565068Y201654D01*
X564984Y201559D01*
X564910Y201464D01*
Y201453D01*
X564889Y201442D01*
X564878Y201411D01*
X564846Y201368D01*
X564794Y201263D01*
X564720Y201115D01*
X564656Y200946D01*
X564593Y200734D01*
X564551Y200513D01*
X564540Y200259D01*
Y200206D01*
X564551Y200143D01*
X564561Y200058D01*
X564582Y199953D01*
X564603Y199826D01*
X564646Y199699D01*
X564698Y199551D01*
X564772Y199403D01*
X564857Y199244D01*
X564952Y199097D01*
X565079Y198938D01*
X565227Y198780D01*
X565396Y198632D01*
X565597Y198494D01*
X565818Y198368D01*
X565829Y198357D01*
X565871Y198346D01*
X565924Y198315D01*
X566009Y198283D01*
X566125Y198241D01*
X566252Y198198D01*
X566410Y198156D01*
X566590Y198103D01*
X566791Y198050D01*
X567012Y198008D01*
X567256Y197966D01*
X567530Y197924D01*
X567816Y197892D01*
X568133Y197860D01*
X568460Y197850D01*
X568819Y197839D01*
X568830D01*
X568840D01*
X568872D01*
X568925D01*
X568978D01*
X569041Y197850D01*
X569200D01*
X569390Y197860D01*
X569612Y197881D01*
X569855Y197903D01*
X570119Y197945D01*
X570394Y197987D01*
X570679Y198040D01*
X570964Y198103D01*
X571250Y198188D01*
X571524Y198272D01*
X571788Y198389D01*
X572032Y198505D01*
X572253Y198653D01*
X572264Y198663D01*
X572285Y198685D01*
X572327Y198716D01*
X572370Y198759D01*
X572433Y198822D01*
X572496Y198885D01*
X572570Y198970D01*
X572634Y199065D01*
X572708Y199170D01*
X572782Y199297D01*
X572845Y199424D01*
X572909Y199572D01*
X572951Y199720D01*
X572993Y199889D01*
X573014Y200058D01*
X573025Y200248D01*
Y200312D01*
X573014Y200364D01*
Y200428D01*
X573004Y200491D01*
X572982Y200650D01*
X572940Y200840D01*
X572887Y201030D01*
X572803Y201220D01*
X572697Y201400D01*
X572687Y201411D01*
X572676Y201421D01*
X572655Y201453D01*
X572613Y201495D01*
X572570Y201548D01*
X572507Y201601D01*
X572444Y201664D01*
X572359Y201738D01*
X572275Y201812D01*
X572169Y201886D01*
X572063Y201960D01*
X571936Y202034D01*
X571799Y202108D01*
X571651Y202182D01*
X571493Y202256D01*
X571324Y202319D01*
X571313D01*
X571281Y202330D01*
X571228Y202351D01*
X571155Y202372D01*
X571059Y202393D01*
X570943Y202425D01*
X570816Y202457D01*
X570668Y202488D01*
X570499Y202520D01*
X570309Y202552D01*
X570108Y202584D01*
X569897Y202605D01*
X569654Y202626D01*
X569411Y202647D01*
X569147Y202658D01*
D02*
G37*
G36*
X570901Y191975D02*
X570890D01*
X570869D01*
X570838D01*
X570795D01*
X570668Y191964D01*
X570521Y191943D01*
X570341Y191911D01*
X570151Y191859D01*
X569950Y191795D01*
X569760Y191711D01*
X569749D01*
X569739Y191700D01*
X569675Y191658D01*
X569591Y191594D01*
X569485Y191510D01*
X569369Y191404D01*
X569242Y191267D01*
X569136Y191108D01*
X569052Y190918D01*
Y190908D01*
X569041Y190897D01*
X569031Y190865D01*
X569020Y190823D01*
X569010Y190770D01*
X568988Y190696D01*
X568967Y190622D01*
X568946Y190527D01*
X568936Y190432D01*
X568914Y190316D01*
X568893Y190189D01*
X568883Y190041D01*
X568872Y189893D01*
X568862Y189724D01*
X568851Y189555D01*
Y189365D01*
X571778D01*
X572105D01*
X572116D01*
X572169D01*
X572232Y189375D01*
X572306Y189386D01*
X572391Y189407D01*
X572486Y189439D01*
X572570Y189481D01*
X572644Y189545D01*
X572655Y189555D01*
X572676Y189576D01*
X572697Y189618D01*
X572729Y189682D01*
X572771Y189756D01*
X572792Y189851D01*
X572813Y189957D01*
X572824Y190083D01*
Y190179D01*
X572813Y190274D01*
X572792Y190400D01*
X572771Y190548D01*
X572729Y190717D01*
X572665Y190886D01*
X572592Y191056D01*
X572581Y191077D01*
X572549Y191129D01*
X572496Y191203D01*
X572422Y191309D01*
X572317Y191415D01*
X572201Y191531D01*
X572063Y191637D01*
X571905Y191732D01*
X571894D01*
X571884Y191742D01*
X571820Y191774D01*
X571736Y191806D01*
X571609Y191859D01*
X571461Y191901D01*
X571292Y191933D01*
X571102Y191964D01*
X570901Y191975D01*
D02*
G37*
G36*
X566516Y191732D02*
X566505D01*
X566484D01*
X566452D01*
X566410D01*
X566305Y191721D01*
X566167Y191700D01*
X566009Y191668D01*
X565850Y191626D01*
X565681Y191573D01*
X565533Y191489D01*
X565512Y191478D01*
X565470Y191446D01*
X565396Y191394D01*
X565311Y191309D01*
X565216Y191214D01*
X565121Y191098D01*
X565026Y190961D01*
X564941Y190802D01*
X564931Y190781D01*
X564920Y190760D01*
X564910Y190717D01*
X564899Y190665D01*
X564878Y190612D01*
X564857Y190538D01*
X564836Y190453D01*
X564825Y190369D01*
X564804Y190263D01*
X564783Y190147D01*
X564772Y190009D01*
X564762Y189872D01*
X564751Y189724D01*
X564741Y189555D01*
Y189375D01*
X568323Y189365D01*
Y189523D01*
X568312Y189597D01*
Y189692D01*
X568291Y189904D01*
X568270Y190136D01*
X568238Y190369D01*
X568185Y190591D01*
X568143Y190686D01*
X568111Y190781D01*
Y190791D01*
X568101Y190802D01*
X568069Y190855D01*
X568027Y190939D01*
X567953Y191045D01*
X567868Y191161D01*
X567763Y191277D01*
X567646Y191394D01*
X567509Y191489D01*
X567488Y191499D01*
X567435Y191531D01*
X567351Y191563D01*
X567234Y191616D01*
X567097Y191658D01*
X566928Y191689D01*
X566727Y191721D01*
X566516Y191732D01*
D02*
G37*
G36*
X566769Y178799D02*
X566759D01*
X566727D01*
X566674D01*
X566600Y178788D01*
X566516D01*
X566410Y178777D01*
X566188Y178735D01*
X565945Y178682D01*
X565681Y178598D01*
X565449Y178471D01*
X565332Y178397D01*
X565237Y178312D01*
X565227Y178302D01*
X565216Y178291D01*
X565195Y178260D01*
X565163Y178217D01*
X565121Y178165D01*
X565079Y178101D01*
X565037Y178027D01*
X564984Y177932D01*
X564941Y177826D01*
X564899Y177710D01*
X564857Y177583D01*
X564815Y177446D01*
X564783Y177288D01*
X564762Y177118D01*
X564741Y176939D01*
Y176030D01*
X568714D01*
Y176558D01*
X568703Y176643D01*
Y176728D01*
X568693Y176928D01*
X568671Y177161D01*
X568640Y177383D01*
X568597Y177605D01*
X568576Y177700D01*
X568545Y177795D01*
Y177805D01*
X568534Y177816D01*
X568513Y177869D01*
X568471Y177953D01*
X568407Y178059D01*
X568323Y178175D01*
X568217Y178302D01*
X568090Y178418D01*
X567932Y178524D01*
X567911Y178534D01*
X567847Y178566D01*
X567752Y178608D01*
X567615Y178661D01*
X567456Y178714D01*
X567256Y178756D01*
X567023Y178788D01*
X566769Y178799D01*
D02*
G37*
G36*
Y144447D02*
X566759D01*
X566727D01*
X566674D01*
X566600Y144437D01*
X566516D01*
X566410Y144426D01*
X566188Y144384D01*
X565945Y144331D01*
X565681Y144246D01*
X565449Y144120D01*
X565332Y144046D01*
X565237Y143961D01*
X565227Y143951D01*
X565216Y143940D01*
X565195Y143908D01*
X565163Y143866D01*
X565121Y143813D01*
X565079Y143750D01*
X565037Y143676D01*
X564984Y143581D01*
X564941Y143475D01*
X564899Y143359D01*
X564857Y143232D01*
X564815Y143095D01*
X564783Y142936D01*
X564762Y142767D01*
X564741Y142587D01*
Y141679D01*
X568714D01*
Y142207D01*
X568703Y142292D01*
Y142376D01*
X568693Y142577D01*
X568671Y142809D01*
X568640Y143031D01*
X568597Y143253D01*
X568576Y143348D01*
X568545Y143443D01*
Y143454D01*
X568534Y143464D01*
X568513Y143517D01*
X568471Y143602D01*
X568407Y143708D01*
X568323Y143824D01*
X568217Y143951D01*
X568090Y144067D01*
X567932Y144172D01*
X567911Y144183D01*
X567847Y144215D01*
X567752Y144257D01*
X567615Y144310D01*
X567456Y144363D01*
X567256Y144405D01*
X567023Y144437D01*
X566769Y144447D01*
D02*
G37*
G36*
X568862Y135011D02*
X568840D01*
X568788D01*
X568693D01*
X568566Y135001D01*
X568418Y134990D01*
X568249Y134980D01*
X568059Y134969D01*
X567858Y134937D01*
X567636Y134916D01*
X567403Y134874D01*
X566939Y134779D01*
X566706Y134715D01*
X566484Y134642D01*
X566262Y134546D01*
X566062Y134451D01*
X566051D01*
X566030Y134430D01*
X565988Y134409D01*
X565924Y134377D01*
X565861Y134335D01*
X565787Y134282D01*
X565618Y134145D01*
X565428Y133986D01*
X565248Y133796D01*
X565079Y133574D01*
X565015Y133458D01*
X564952Y133331D01*
X564941Y133310D01*
X564931Y133279D01*
X564920Y133236D01*
X564899Y133183D01*
X564889Y133120D01*
X564868Y133046D01*
X564846Y132951D01*
X564825Y132845D01*
X564804Y132729D01*
X564794Y132602D01*
X564772Y132454D01*
X564762Y132296D01*
X564751Y132127D01*
X564741Y131937D01*
Y131736D01*
X571841D01*
X571852D01*
X571862D01*
X571926D01*
X572021D01*
X572137Y131746D01*
X572253D01*
X572370Y131757D01*
X572465Y131768D01*
X572539Y131789D01*
X572560Y131799D01*
X572613Y131831D01*
X572676Y131884D01*
X572729Y131968D01*
Y131979D01*
X572739Y132000D01*
X572761Y132042D01*
X572771Y132106D01*
X572792Y132169D01*
X572813Y132264D01*
X572824Y132370D01*
Y132539D01*
X572813Y132592D01*
Y132666D01*
X572803Y132761D01*
X572782Y132877D01*
X572761Y132993D01*
X572729Y133120D01*
X572687Y133257D01*
X572634Y133395D01*
X572581Y133543D01*
X572507Y133680D01*
X572412Y133817D01*
X572317Y133955D01*
X572201Y134081D01*
X572063Y134198D01*
X572053Y134208D01*
X572010Y134229D01*
X571958Y134272D01*
X571862Y134325D01*
X571757Y134388D01*
X571619Y134451D01*
X571461Y134525D01*
X571271Y134610D01*
X571059Y134684D01*
X570827Y134758D01*
X570563Y134821D01*
X570277Y134885D01*
X569961Y134937D01*
X569622Y134980D01*
X569253Y135001D01*
X568862Y135011D01*
D02*
G37*
G36*
X518627Y331928D02*
X518352D01*
X518341D01*
X518331D01*
X518267D01*
X518183D01*
X518056D01*
X517908Y331917D01*
X517728Y331907D01*
X517538Y331896D01*
X517337Y331886D01*
X516904Y331843D01*
X516450Y331791D01*
X516239Y331748D01*
X516027Y331706D01*
X515837Y331653D01*
X515657Y331590D01*
X515647D01*
X515615Y331579D01*
X515573Y331558D01*
X515509Y331526D01*
X515435Y331495D01*
X515351Y331452D01*
X515161Y331357D01*
X514949Y331231D01*
X514738Y331083D01*
X514548Y330924D01*
X514463Y330829D01*
X514389Y330734D01*
Y330723D01*
X514368Y330713D01*
X514358Y330681D01*
X514326Y330639D01*
X514273Y330533D01*
X514199Y330385D01*
X514136Y330216D01*
X514072Y330005D01*
X514030Y329783D01*
X514020Y329529D01*
Y329477D01*
X514030Y329413D01*
X514041Y329329D01*
X514062Y329223D01*
X514083Y329096D01*
X514125Y328969D01*
X514178Y328821D01*
X514252Y328674D01*
X514337Y328515D01*
X514432Y328367D01*
X514558Y328209D01*
X514706Y328050D01*
X514875Y327902D01*
X515076Y327765D01*
X515298Y327638D01*
X515309Y327627D01*
X515351Y327617D01*
X515404Y327585D01*
X515488Y327553D01*
X515605Y327511D01*
X515731Y327469D01*
X515890Y327427D01*
X516069Y327374D01*
X516270Y327321D01*
X516492Y327279D01*
X516735Y327237D01*
X517010Y327194D01*
X517295Y327163D01*
X517612Y327131D01*
X517940Y327120D01*
X518299Y327110D01*
X518310D01*
X518320D01*
X518352D01*
X518405D01*
X518457D01*
X518521Y327120D01*
X518679D01*
X518870Y327131D01*
X519091Y327152D01*
X519334Y327173D01*
X519599Y327215D01*
X519873Y327258D01*
X520159Y327310D01*
X520444Y327374D01*
X520729Y327458D01*
X521004Y327543D01*
X521268Y327659D01*
X521511Y327775D01*
X521733Y327923D01*
X521744Y327934D01*
X521765Y327955D01*
X521807Y327987D01*
X521849Y328029D01*
X521913Y328092D01*
X521976Y328156D01*
X522050Y328240D01*
X522113Y328335D01*
X522187Y328441D01*
X522261Y328568D01*
X522325Y328695D01*
X522388Y328843D01*
X522430Y328991D01*
X522473Y329160D01*
X522494Y329329D01*
X522504Y329519D01*
Y329582D01*
X522494Y329635D01*
Y329698D01*
X522483Y329762D01*
X522462Y329920D01*
X522420Y330111D01*
X522367Y330301D01*
X522282Y330491D01*
X522177Y330671D01*
X522166Y330681D01*
X522156Y330692D01*
X522135Y330723D01*
X522092Y330766D01*
X522050Y330818D01*
X521987Y330871D01*
X521923Y330935D01*
X521839Y331009D01*
X521754Y331083D01*
X521648Y331157D01*
X521543Y331231D01*
X521416Y331305D01*
X521279Y331379D01*
X521131Y331452D01*
X520972Y331526D01*
X520803Y331590D01*
X520793D01*
X520761Y331600D01*
X520708Y331622D01*
X520634Y331643D01*
X520539Y331664D01*
X520423Y331696D01*
X520296Y331727D01*
X520148Y331759D01*
X519979Y331791D01*
X519789Y331822D01*
X519588Y331854D01*
X519377Y331875D01*
X519134Y331896D01*
X518891Y331917D01*
X518627Y331928D01*
D02*
G37*
G36*
X518341Y301296D02*
X518320D01*
X518267D01*
X518172D01*
X518045Y301285D01*
X517897Y301275D01*
X517728Y301264D01*
X517538Y301254D01*
X517337Y301222D01*
X517116Y301201D01*
X516883Y301159D01*
X516418Y301064D01*
X516186Y301000D01*
X515964Y300926D01*
X515742Y300831D01*
X515541Y300736D01*
X515531D01*
X515509Y300715D01*
X515467Y300694D01*
X515404Y300662D01*
X515340Y300620D01*
X515266Y300567D01*
X515097Y300430D01*
X514907Y300271D01*
X514728Y300081D01*
X514558Y299859D01*
X514495Y299743D01*
X514432Y299616D01*
X514421Y299595D01*
X514411Y299563D01*
X514400Y299521D01*
X514379Y299468D01*
X514368Y299405D01*
X514347Y299331D01*
X514326Y299236D01*
X514305Y299130D01*
X514284Y299014D01*
X514273Y298887D01*
X514252Y298739D01*
X514241Y298580D01*
X514231Y298411D01*
X514220Y298221D01*
Y298020D01*
X521321D01*
X521331D01*
X521342D01*
X521405D01*
X521501D01*
X521617Y298031D01*
X521733D01*
X521849Y298042D01*
X521944Y298052D01*
X522018Y298073D01*
X522039Y298084D01*
X522092Y298116D01*
X522156Y298168D01*
X522209Y298253D01*
Y298263D01*
X522219Y298285D01*
X522240Y298327D01*
X522251Y298390D01*
X522272Y298454D01*
X522293Y298549D01*
X522304Y298654D01*
Y298824D01*
X522293Y298876D01*
Y298950D01*
X522282Y299045D01*
X522261Y299162D01*
X522240Y299278D01*
X522209Y299405D01*
X522166Y299542D01*
X522113Y299679D01*
X522061Y299827D01*
X521987Y299965D01*
X521892Y300102D01*
X521796Y300239D01*
X521680Y300366D01*
X521543Y300482D01*
X521532Y300493D01*
X521490Y300514D01*
X521437Y300556D01*
X521342Y300609D01*
X521236Y300673D01*
X521099Y300736D01*
X520941Y300810D01*
X520750Y300895D01*
X520539Y300968D01*
X520307Y301042D01*
X520042Y301106D01*
X519757Y301169D01*
X519440Y301222D01*
X519102Y301264D01*
X518732Y301285D01*
X518341Y301296D01*
D02*
G37*
G36*
X488090Y331776D02*
X488069D01*
X488016D01*
X487920D01*
X487794Y331766D01*
X487646Y331755D01*
X487477Y331744D01*
X487287Y331734D01*
X487086Y331702D01*
X486864Y331681D01*
X486631Y331639D01*
X486166Y331544D01*
X485934Y331480D01*
X485712Y331406D01*
X485490Y331311D01*
X485289Y331216D01*
X485279D01*
X485258Y331195D01*
X485215Y331174D01*
X485152Y331142D01*
X485089Y331100D01*
X485015Y331047D01*
X484846Y330910D01*
X484655Y330751D01*
X484476Y330561D01*
X484307Y330339D01*
X484243Y330223D01*
X484180Y330096D01*
X484170Y330075D01*
X484159Y330043D01*
X484148Y330001D01*
X484127Y329948D01*
X484117Y329885D01*
X484095Y329811D01*
X484074Y329716D01*
X484053Y329610D01*
X484032Y329494D01*
X484021Y329367D01*
X484000Y329219D01*
X483990Y329061D01*
X483979Y328891D01*
X483969Y328701D01*
Y328500D01*
X491069D01*
X491080D01*
X491091D01*
X491154D01*
X491249D01*
X491365Y328511D01*
X491481D01*
X491598Y328522D01*
X491693Y328532D01*
X491767Y328553D01*
X491788Y328564D01*
X491841Y328596D01*
X491904Y328648D01*
X491957Y328733D01*
Y328744D01*
X491968Y328765D01*
X491989Y328807D01*
X491999Y328870D01*
X492020Y328934D01*
X492041Y329029D01*
X492052Y329134D01*
Y329304D01*
X492041Y329356D01*
Y329430D01*
X492031Y329525D01*
X492010Y329642D01*
X491989Y329758D01*
X491957Y329885D01*
X491915Y330022D01*
X491862Y330159D01*
X491809Y330307D01*
X491735Y330445D01*
X491640Y330582D01*
X491545Y330719D01*
X491429Y330846D01*
X491291Y330962D01*
X491281Y330973D01*
X491238Y330994D01*
X491186Y331036D01*
X491091Y331089D01*
X490985Y331153D01*
X490847Y331216D01*
X490689Y331290D01*
X490499Y331375D01*
X490287Y331449D01*
X490055Y331522D01*
X489791Y331586D01*
X489506Y331649D01*
X489188Y331702D01*
X488850Y331744D01*
X488481Y331766D01*
X488090Y331776D01*
D02*
G37*
G36*
X401124Y120307D02*
X400923D01*
Y113207D01*
Y113196D01*
Y113185D01*
Y113122D01*
Y113027D01*
X400933Y112911D01*
Y112794D01*
X400944Y112678D01*
X400955Y112583D01*
X400976Y112509D01*
X400986Y112488D01*
X401018Y112435D01*
X401071Y112372D01*
X401155Y112319D01*
X401166D01*
X401187Y112308D01*
X401229Y112287D01*
X401293Y112277D01*
X401356Y112255D01*
X401451Y112234D01*
X401557Y112224D01*
X401726D01*
X401779Y112234D01*
X401853D01*
X401948Y112245D01*
X402064Y112266D01*
X402180Y112287D01*
X402307Y112319D01*
X402444Y112361D01*
X402582Y112414D01*
X402730Y112467D01*
X402867Y112541D01*
X403004Y112636D01*
X403142Y112731D01*
X403269Y112847D01*
X403385Y112985D01*
X403395Y112995D01*
X403416Y113037D01*
X403459Y113090D01*
X403512Y113185D01*
X403575Y113291D01*
X403638Y113428D01*
X403712Y113587D01*
X403797Y113777D01*
X403871Y113988D01*
X403945Y114221D01*
X404008Y114485D01*
X404072Y114770D01*
X404124Y115087D01*
X404167Y115425D01*
X404188Y115795D01*
X404198Y116186D01*
Y116207D01*
Y116260D01*
Y116355D01*
X404188Y116482D01*
X404177Y116630D01*
X404167Y116799D01*
X404156Y116989D01*
X404124Y117190D01*
X404103Y117412D01*
X404061Y117644D01*
X403966Y118109D01*
X403903Y118342D01*
X403829Y118564D01*
X403733Y118785D01*
X403638Y118986D01*
Y118997D01*
X403617Y119018D01*
X403596Y119060D01*
X403564Y119124D01*
X403522Y119187D01*
X403469Y119261D01*
X403332Y119430D01*
X403173Y119620D01*
X402983Y119800D01*
X402761Y119969D01*
X402645Y120032D01*
X402518Y120096D01*
X402497Y120106D01*
X402466Y120117D01*
X402423Y120127D01*
X402370Y120149D01*
X402307Y120159D01*
X402233Y120180D01*
X402138Y120201D01*
X402032Y120223D01*
X401916Y120244D01*
X401789Y120254D01*
X401641Y120275D01*
X401483Y120286D01*
X401314Y120296D01*
X401124Y120307D01*
D02*
G37*
G36*
X391931D02*
X391022D01*
Y116334D01*
X391550D01*
X391635Y116345D01*
X391720D01*
X391920Y116355D01*
X392153Y116376D01*
X392375Y116408D01*
X392597Y116450D01*
X392692Y116472D01*
X392787Y116503D01*
X392797D01*
X392808Y116514D01*
X392861Y116535D01*
X392945Y116577D01*
X393051Y116641D01*
X393167Y116725D01*
X393294Y116831D01*
X393410Y116958D01*
X393516Y117116D01*
X393526Y117137D01*
X393558Y117201D01*
X393600Y117296D01*
X393653Y117433D01*
X393706Y117591D01*
X393748Y117792D01*
X393780Y118025D01*
X393791Y118278D01*
Y118289D01*
Y118321D01*
Y118373D01*
X393780Y118447D01*
Y118532D01*
X393769Y118638D01*
X393727Y118860D01*
X393674Y119102D01*
X393590Y119367D01*
X393463Y119599D01*
X393389Y119715D01*
X393304Y119810D01*
X393294Y119821D01*
X393283Y119832D01*
X393252Y119853D01*
X393209Y119884D01*
X393157Y119927D01*
X393093Y119969D01*
X393019Y120011D01*
X392924Y120064D01*
X392818Y120106D01*
X392702Y120149D01*
X392575Y120191D01*
X392438Y120233D01*
X392280Y120265D01*
X392110Y120286D01*
X391931Y120307D01*
D02*
G37*
G36*
X381555Y117908D02*
X380160Y114802D01*
X382918D01*
X381555Y117908D01*
D02*
G37*
G36*
X361426Y120307D02*
X361246D01*
X361235Y116725D01*
X361394D01*
X361468Y116736D01*
X361563D01*
X361774Y116757D01*
X362007Y116778D01*
X362239Y116810D01*
X362461Y116862D01*
X362556Y116905D01*
X362651Y116936D01*
X362662D01*
X362673Y116947D01*
X362725Y116979D01*
X362810Y117021D01*
X362915Y117095D01*
X363032Y117179D01*
X363148Y117285D01*
X363264Y117401D01*
X363359Y117539D01*
X363370Y117560D01*
X363401Y117613D01*
X363433Y117697D01*
X363486Y117813D01*
X363528Y117951D01*
X363560Y118120D01*
X363592Y118321D01*
X363602Y118532D01*
Y118542D01*
Y118564D01*
Y118595D01*
Y118638D01*
X363592Y118743D01*
X363571Y118881D01*
X363539Y119039D01*
X363497Y119198D01*
X363444Y119367D01*
X363359Y119515D01*
X363349Y119536D01*
X363317Y119578D01*
X363264Y119652D01*
X363180Y119736D01*
X363084Y119832D01*
X362968Y119927D01*
X362831Y120022D01*
X362673Y120106D01*
X362651Y120117D01*
X362630Y120127D01*
X362588Y120138D01*
X362535Y120149D01*
X362482Y120170D01*
X362408Y120191D01*
X362324Y120212D01*
X362239Y120223D01*
X362134Y120244D01*
X362017Y120265D01*
X361880Y120275D01*
X361743Y120286D01*
X361595Y120296D01*
X361426Y120307D01*
D02*
G37*
G36*
Y116197D02*
X361235D01*
Y113270D01*
Y112942D01*
Y112932D01*
Y112879D01*
X361246Y112816D01*
X361257Y112741D01*
X361278Y112657D01*
X361309Y112562D01*
X361352Y112477D01*
X361415Y112403D01*
X361426Y112393D01*
X361447Y112372D01*
X361489Y112351D01*
X361552Y112319D01*
X361626Y112277D01*
X361721Y112255D01*
X361827Y112234D01*
X361954Y112224D01*
X362049D01*
X362144Y112234D01*
X362271Y112255D01*
X362419Y112277D01*
X362588Y112319D01*
X362757Y112382D01*
X362926Y112456D01*
X362947Y112467D01*
X363000Y112499D01*
X363074Y112551D01*
X363180Y112625D01*
X363285Y112731D01*
X363401Y112847D01*
X363507Y112985D01*
X363602Y113143D01*
Y113154D01*
X363613Y113164D01*
X363645Y113228D01*
X363676Y113312D01*
X363729Y113439D01*
X363771Y113587D01*
X363803Y113756D01*
X363835Y113946D01*
X363845Y114147D01*
Y114157D01*
Y114179D01*
Y114210D01*
Y114253D01*
X363835Y114379D01*
X363814Y114527D01*
X363782Y114707D01*
X363729Y114897D01*
X363666Y115098D01*
X363581Y115288D01*
Y115299D01*
X363571Y115309D01*
X363528Y115373D01*
X363465Y115457D01*
X363380Y115563D01*
X363275Y115679D01*
X363137Y115806D01*
X362979Y115912D01*
X362789Y115996D01*
X362778D01*
X362767Y116006D01*
X362736Y116017D01*
X362694Y116028D01*
X362641Y116038D01*
X362567Y116059D01*
X362493Y116081D01*
X362398Y116102D01*
X362303Y116112D01*
X362186Y116133D01*
X362060Y116154D01*
X361912Y116165D01*
X361764Y116176D01*
X361595Y116186D01*
X361426Y116197D01*
D02*
G37*
G36*
X328966Y120307D02*
X328057D01*
Y116334D01*
X328585D01*
X328670Y116345D01*
X328754D01*
X328955Y116355D01*
X329188Y116376D01*
X329409Y116408D01*
X329631Y116450D01*
X329726Y116472D01*
X329822Y116503D01*
X329832D01*
X329843Y116514D01*
X329896Y116535D01*
X329980Y116577D01*
X330086Y116641D01*
X330202Y116725D01*
X330329Y116831D01*
X330445Y116958D01*
X330551Y117116D01*
X330561Y117137D01*
X330593Y117201D01*
X330635Y117296D01*
X330688Y117433D01*
X330741Y117591D01*
X330783Y117792D01*
X330815Y118025D01*
X330825Y118278D01*
Y118289D01*
Y118321D01*
Y118373D01*
X330815Y118447D01*
Y118532D01*
X330804Y118638D01*
X330762Y118860D01*
X330709Y119102D01*
X330625Y119367D01*
X330498Y119599D01*
X330424Y119715D01*
X330339Y119810D01*
X330329Y119821D01*
X330318Y119832D01*
X330286Y119853D01*
X330244Y119884D01*
X330191Y119927D01*
X330128Y119969D01*
X330054Y120011D01*
X329959Y120064D01*
X329853Y120106D01*
X329737Y120149D01*
X329610Y120191D01*
X329473Y120233D01*
X329314Y120265D01*
X329145Y120286D01*
X328966Y120307D01*
D02*
G37*
G36*
X372129Y120508D02*
X372076D01*
X372013Y120497D01*
X371929Y120487D01*
X371823Y120466D01*
X371696Y120444D01*
X371569Y120402D01*
X371421Y120349D01*
X371273Y120275D01*
X371115Y120191D01*
X370967Y120096D01*
X370809Y119969D01*
X370650Y119821D01*
X370502Y119652D01*
X370365Y119451D01*
X370238Y119229D01*
X370227Y119219D01*
X370217Y119177D01*
X370185Y119124D01*
X370154Y119039D01*
X370111Y118923D01*
X370069Y118796D01*
X370027Y118638D01*
X369974Y118458D01*
X369921Y118257D01*
X369879Y118035D01*
X369837Y117792D01*
X369794Y117517D01*
X369762Y117232D01*
X369731Y116915D01*
X369720Y116588D01*
X369710Y116228D01*
Y116218D01*
Y116207D01*
Y116176D01*
Y116123D01*
Y116070D01*
X369720Y116006D01*
Y115848D01*
X369731Y115658D01*
X369752Y115436D01*
X369773Y115193D01*
X369815Y114929D01*
X369858Y114654D01*
X369910Y114369D01*
X369974Y114083D01*
X370058Y113798D01*
X370143Y113523D01*
X370259Y113259D01*
X370375Y113016D01*
X370523Y112794D01*
X370534Y112784D01*
X370555Y112763D01*
X370587Y112720D01*
X370629Y112678D01*
X370692Y112615D01*
X370756Y112551D01*
X370840Y112477D01*
X370935Y112414D01*
X371041Y112340D01*
X371168Y112266D01*
X371295Y112203D01*
X371443Y112139D01*
X371590Y112097D01*
X371760Y112055D01*
X371929Y112034D01*
X372119Y112023D01*
X372182D01*
X372235Y112034D01*
X372298D01*
X372362Y112044D01*
X372520Y112065D01*
X372710Y112107D01*
X372901Y112160D01*
X373091Y112245D01*
X373271Y112351D01*
X373281Y112361D01*
X373292Y112372D01*
X373323Y112393D01*
X373366Y112435D01*
X373419Y112477D01*
X373471Y112541D01*
X373535Y112604D01*
X373609Y112689D01*
X373683Y112773D01*
X373757Y112879D01*
X373831Y112985D01*
X373904Y113111D01*
X373979Y113249D01*
X374053Y113397D01*
X374126Y113555D01*
X374190Y113724D01*
Y113735D01*
X374200Y113766D01*
X374221Y113819D01*
X374243Y113893D01*
X374264Y113988D01*
X374296Y114105D01*
X374327Y114231D01*
X374359Y114379D01*
X374391Y114548D01*
X374422Y114739D01*
X374454Y114939D01*
X374475Y115151D01*
X374496Y115394D01*
X374517Y115637D01*
X374528Y115901D01*
Y116176D01*
Y116186D01*
Y116197D01*
Y116260D01*
Y116345D01*
Y116472D01*
X374517Y116619D01*
X374507Y116799D01*
X374496Y116989D01*
X374486Y117190D01*
X374443Y117623D01*
X374391Y118078D01*
X374348Y118289D01*
X374306Y118500D01*
X374253Y118690D01*
X374190Y118870D01*
Y118881D01*
X374179Y118912D01*
X374158Y118955D01*
X374126Y119018D01*
X374095Y119092D01*
X374053Y119177D01*
X373957Y119367D01*
X373831Y119578D01*
X373683Y119789D01*
X373524Y119979D01*
X373429Y120064D01*
X373334Y120138D01*
X373323D01*
X373313Y120159D01*
X373281Y120170D01*
X373239Y120201D01*
X373133Y120254D01*
X372985Y120328D01*
X372816Y120392D01*
X372605Y120455D01*
X372383Y120497D01*
X372129Y120508D01*
D02*
G37*
G36*
X339691D02*
X339638D01*
X339574Y120497D01*
X339490Y120487D01*
X339384Y120466D01*
X339257Y120444D01*
X339131Y120402D01*
X338983Y120349D01*
X338835Y120275D01*
X338676Y120191D01*
X338528Y120096D01*
X338370Y119969D01*
X338211Y119821D01*
X338063Y119652D01*
X337926Y119451D01*
X337799Y119229D01*
X337789Y119219D01*
X337778Y119177D01*
X337746Y119124D01*
X337715Y119039D01*
X337672Y118923D01*
X337630Y118796D01*
X337588Y118638D01*
X337535Y118458D01*
X337482Y118257D01*
X337440Y118035D01*
X337398Y117792D01*
X337355Y117517D01*
X337324Y117232D01*
X337292Y116915D01*
X337281Y116588D01*
X337271Y116228D01*
Y116218D01*
Y116207D01*
Y116176D01*
Y116123D01*
Y116070D01*
X337281Y116006D01*
Y115848D01*
X337292Y115658D01*
X337313Y115436D01*
X337334Y115193D01*
X337377Y114929D01*
X337419Y114654D01*
X337472Y114369D01*
X337535Y114083D01*
X337620Y113798D01*
X337704Y113523D01*
X337820Y113259D01*
X337937Y113016D01*
X338084Y112794D01*
X338095Y112784D01*
X338116Y112763D01*
X338148Y112720D01*
X338190Y112678D01*
X338254Y112615D01*
X338317Y112551D01*
X338401Y112477D01*
X338497Y112414D01*
X338602Y112340D01*
X338729Y112266D01*
X338856Y112203D01*
X339004Y112139D01*
X339152Y112097D01*
X339321Y112055D01*
X339490Y112034D01*
X339680Y112023D01*
X339743D01*
X339796Y112034D01*
X339860D01*
X339923Y112044D01*
X340081Y112065D01*
X340272Y112107D01*
X340462Y112160D01*
X340652Y112245D01*
X340832Y112351D01*
X340842Y112361D01*
X340853Y112372D01*
X340885Y112393D01*
X340927Y112435D01*
X340980Y112477D01*
X341032Y112541D01*
X341096Y112604D01*
X341170Y112689D01*
X341244Y112773D01*
X341318Y112879D01*
X341392Y112985D01*
X341466Y113111D01*
X341540Y113249D01*
X341614Y113397D01*
X341688Y113555D01*
X341751Y113724D01*
Y113735D01*
X341762Y113766D01*
X341783Y113819D01*
X341804Y113893D01*
X341825Y113988D01*
X341857Y114105D01*
X341888Y114231D01*
X341920Y114379D01*
X341952Y114548D01*
X341983Y114739D01*
X342015Y114939D01*
X342036Y115151D01*
X342057Y115394D01*
X342079Y115637D01*
X342089Y115901D01*
Y116176D01*
Y116186D01*
Y116197D01*
Y116260D01*
Y116345D01*
Y116472D01*
X342079Y116619D01*
X342068Y116799D01*
X342057Y116989D01*
X342047Y117190D01*
X342005Y117623D01*
X341952Y118078D01*
X341909Y118289D01*
X341867Y118500D01*
X341814Y118690D01*
X341751Y118870D01*
Y118881D01*
X341740Y118912D01*
X341719Y118955D01*
X341688Y119018D01*
X341656Y119092D01*
X341614Y119177D01*
X341519Y119367D01*
X341392Y119578D01*
X341244Y119789D01*
X341085Y119979D01*
X340990Y120064D01*
X340895Y120138D01*
X340885D01*
X340874Y120159D01*
X340842Y120170D01*
X340800Y120201D01*
X340694Y120254D01*
X340546Y120328D01*
X340377Y120392D01*
X340166Y120455D01*
X339944Y120497D01*
X339691Y120508D01*
D02*
G37*
G36*
X300003D02*
X299950D01*
X299887Y120497D01*
X299802Y120487D01*
X299697Y120466D01*
X299570Y120444D01*
X299443Y120402D01*
X299295Y120349D01*
X299147Y120275D01*
X298989Y120191D01*
X298841Y120096D01*
X298682Y119969D01*
X298524Y119821D01*
X298376Y119652D01*
X298239Y119451D01*
X298112Y119229D01*
X298101Y119219D01*
X298091Y119177D01*
X298059Y119124D01*
X298027Y119039D01*
X297985Y118923D01*
X297943Y118796D01*
X297900Y118638D01*
X297848Y118458D01*
X297795Y118257D01*
X297752Y118035D01*
X297710Y117792D01*
X297668Y117517D01*
X297636Y117232D01*
X297605Y116915D01*
X297594Y116588D01*
X297583Y116228D01*
Y116218D01*
Y116207D01*
Y116176D01*
Y116123D01*
Y116070D01*
X297594Y116006D01*
Y115848D01*
X297605Y115658D01*
X297626Y115436D01*
X297647Y115193D01*
X297689Y114929D01*
X297731Y114654D01*
X297784Y114369D01*
X297848Y114083D01*
X297932Y113798D01*
X298017Y113523D01*
X298133Y113259D01*
X298249Y113016D01*
X298397Y112794D01*
X298408Y112784D01*
X298429Y112763D01*
X298460Y112720D01*
X298503Y112678D01*
X298566Y112615D01*
X298629Y112551D01*
X298714Y112477D01*
X298809Y112414D01*
X298915Y112340D01*
X299042Y112266D01*
X299168Y112203D01*
X299316Y112139D01*
X299464Y112097D01*
X299633Y112055D01*
X299802Y112034D01*
X299993Y112023D01*
X300056D01*
X300109Y112034D01*
X300172D01*
X300236Y112044D01*
X300394Y112065D01*
X300584Y112107D01*
X300774Y112160D01*
X300965Y112245D01*
X301144Y112351D01*
X301155Y112361D01*
X301165Y112372D01*
X301197Y112393D01*
X301239Y112435D01*
X301292Y112477D01*
X301345Y112541D01*
X301409Y112604D01*
X301482Y112689D01*
X301556Y112773D01*
X301630Y112879D01*
X301704Y112985D01*
X301778Y113111D01*
X301852Y113249D01*
X301926Y113397D01*
X302000Y113555D01*
X302064Y113724D01*
Y113735D01*
X302074Y113766D01*
X302095Y113819D01*
X302116Y113893D01*
X302138Y113988D01*
X302169Y114105D01*
X302201Y114231D01*
X302233Y114379D01*
X302264Y114548D01*
X302296Y114739D01*
X302328Y114939D01*
X302349Y115151D01*
X302370Y115394D01*
X302391Y115637D01*
X302402Y115901D01*
Y116176D01*
Y116186D01*
Y116197D01*
Y116260D01*
Y116345D01*
Y116472D01*
X302391Y116619D01*
X302381Y116799D01*
X302370Y116989D01*
X302359Y117190D01*
X302317Y117623D01*
X302264Y118078D01*
X302222Y118289D01*
X302180Y118500D01*
X302127Y118690D01*
X302064Y118870D01*
Y118881D01*
X302053Y118912D01*
X302032Y118955D01*
X302000Y119018D01*
X301968Y119092D01*
X301926Y119177D01*
X301831Y119367D01*
X301704Y119578D01*
X301556Y119789D01*
X301398Y119979D01*
X301303Y120064D01*
X301208Y120138D01*
X301197D01*
X301187Y120159D01*
X301155Y120170D01*
X301113Y120201D01*
X301007Y120254D01*
X300859Y120328D01*
X300690Y120392D01*
X300479Y120455D01*
X300257Y120497D01*
X300003Y120508D01*
D02*
G37*
G36*
X335065Y299939D02*
X334864D01*
Y292839D01*
Y292828D01*
Y292818D01*
Y292754D01*
Y292659D01*
X334874Y292543D01*
Y292427D01*
X334885Y292311D01*
X334895Y292215D01*
X334917Y292141D01*
X334927Y292120D01*
X334959Y292068D01*
X335012Y292004D01*
X335096Y291951D01*
X335107D01*
X335128Y291941D01*
X335170Y291920D01*
X335233Y291909D01*
X335297Y291888D01*
X335392Y291867D01*
X335498Y291856D01*
X335667D01*
X335720Y291867D01*
X335794D01*
X335889Y291877D01*
X336005Y291898D01*
X336121Y291920D01*
X336248Y291951D01*
X336385Y291994D01*
X336523Y292046D01*
X336671Y292099D01*
X336808Y292173D01*
X336945Y292268D01*
X337083Y292363D01*
X337210Y292480D01*
X337326Y292617D01*
X337336Y292628D01*
X337357Y292670D01*
X337400Y292723D01*
X337453Y292818D01*
X337516Y292923D01*
X337579Y293061D01*
X337653Y293219D01*
X337738Y293410D01*
X337812Y293621D01*
X337886Y293853D01*
X337949Y294117D01*
X338013Y294403D01*
X338065Y294720D01*
X338108Y295058D01*
X338129Y295428D01*
X338139Y295819D01*
Y295840D01*
Y295893D01*
Y295988D01*
X338129Y296115D01*
X338118Y296262D01*
X338108Y296432D01*
X338097Y296622D01*
X338065Y296822D01*
X338044Y297044D01*
X338002Y297277D01*
X337907Y297742D01*
X337843Y297974D01*
X337770Y298196D01*
X337674Y298418D01*
X337579Y298619D01*
Y298629D01*
X337558Y298650D01*
X337537Y298693D01*
X337505Y298756D01*
X337463Y298820D01*
X337410Y298894D01*
X337273Y299062D01*
X337114Y299253D01*
X336924Y299432D01*
X336702Y299601D01*
X336586Y299665D01*
X336459Y299728D01*
X336438Y299739D01*
X336406Y299749D01*
X336364Y299760D01*
X336311Y299781D01*
X336248Y299792D01*
X336174Y299813D01*
X336079Y299834D01*
X335973Y299855D01*
X335857Y299876D01*
X335730Y299887D01*
X335582Y299908D01*
X335424Y299918D01*
X335255Y299929D01*
X335065Y299939D01*
D02*
G37*
G36*
X325872D02*
X324963D01*
Y295967D01*
X325491D01*
X325576Y295977D01*
X325660D01*
X325861Y295988D01*
X326094Y296009D01*
X326315Y296040D01*
X326537Y296083D01*
X326632Y296104D01*
X326728Y296136D01*
X326738D01*
X326749Y296146D01*
X326802Y296167D01*
X326886Y296210D01*
X326992Y296273D01*
X327108Y296357D01*
X327235Y296463D01*
X327351Y296590D01*
X327457Y296749D01*
X327467Y296770D01*
X327499Y296833D01*
X327541Y296928D01*
X327594Y297066D01*
X327647Y297224D01*
X327689Y297425D01*
X327721Y297657D01*
X327731Y297911D01*
Y297921D01*
Y297953D01*
Y298006D01*
X327721Y298080D01*
Y298164D01*
X327710Y298270D01*
X327668Y298492D01*
X327615Y298735D01*
X327531Y298999D01*
X327404Y299232D01*
X327330Y299348D01*
X327245Y299443D01*
X327235Y299454D01*
X327224Y299464D01*
X327192Y299485D01*
X327150Y299517D01*
X327097Y299559D01*
X327034Y299601D01*
X326960Y299644D01*
X326865Y299697D01*
X326759Y299739D01*
X326643Y299781D01*
X326516Y299823D01*
X326379Y299866D01*
X326220Y299897D01*
X326051Y299918D01*
X325872Y299939D01*
D02*
G37*
G36*
X315495Y297541D02*
X314101Y294434D01*
X316859D01*
X315495Y297541D01*
D02*
G37*
G36*
X295366Y299939D02*
X295187D01*
X295176Y296357D01*
X295335D01*
X295409Y296368D01*
X295504D01*
X295715Y296389D01*
X295948Y296410D01*
X296180Y296442D01*
X296402Y296495D01*
X296497Y296537D01*
X296592Y296569D01*
X296603D01*
X296613Y296579D01*
X296666Y296611D01*
X296751Y296653D01*
X296856Y296727D01*
X296973Y296812D01*
X297089Y296917D01*
X297205Y297034D01*
X297300Y297171D01*
X297311Y297192D01*
X297342Y297245D01*
X297374Y297330D01*
X297427Y297446D01*
X297469Y297583D01*
X297501Y297752D01*
X297533Y297953D01*
X297543Y298164D01*
Y298175D01*
Y298196D01*
Y298228D01*
Y298270D01*
X297533Y298376D01*
X297512Y298513D01*
X297480Y298672D01*
X297437Y298830D01*
X297385Y298999D01*
X297300Y299147D01*
X297290Y299168D01*
X297258Y299210D01*
X297205Y299284D01*
X297120Y299369D01*
X297025Y299464D01*
X296909Y299559D01*
X296772Y299654D01*
X296613Y299739D01*
X296592Y299749D01*
X296571Y299760D01*
X296529Y299771D01*
X296476Y299781D01*
X296423Y299802D01*
X296349Y299823D01*
X296265Y299844D01*
X296180Y299855D01*
X296075Y299876D01*
X295958Y299897D01*
X295821Y299908D01*
X295683Y299918D01*
X295536Y299929D01*
X295366Y299939D01*
D02*
G37*
G36*
Y295829D02*
X295176D01*
Y292902D01*
Y292575D01*
Y292564D01*
Y292511D01*
X295187Y292448D01*
X295198Y292374D01*
X295219Y292290D01*
X295250Y292194D01*
X295293Y292110D01*
X295356Y292036D01*
X295366Y292025D01*
X295388Y292004D01*
X295430Y291983D01*
X295493Y291951D01*
X295567Y291909D01*
X295662Y291888D01*
X295768Y291867D01*
X295895Y291856D01*
X295990D01*
X296085Y291867D01*
X296212Y291888D01*
X296360Y291909D01*
X296529Y291951D01*
X296698Y292015D01*
X296867Y292089D01*
X296888Y292099D01*
X296941Y292131D01*
X297015Y292184D01*
X297120Y292258D01*
X297226Y292363D01*
X297342Y292480D01*
X297448Y292617D01*
X297543Y292775D01*
Y292786D01*
X297554Y292797D01*
X297586Y292860D01*
X297617Y292945D01*
X297670Y293071D01*
X297712Y293219D01*
X297744Y293388D01*
X297776Y293579D01*
X297786Y293779D01*
Y293790D01*
Y293811D01*
Y293843D01*
Y293885D01*
X297776Y294012D01*
X297754Y294160D01*
X297723Y294339D01*
X297670Y294529D01*
X297607Y294730D01*
X297522Y294921D01*
Y294931D01*
X297512Y294942D01*
X297469Y295005D01*
X297406Y295090D01*
X297321Y295195D01*
X297216Y295311D01*
X297078Y295438D01*
X296920Y295544D01*
X296730Y295628D01*
X296719D01*
X296708Y295639D01*
X296677Y295650D01*
X296635Y295660D01*
X296582Y295671D01*
X296508Y295692D01*
X296434Y295713D01*
X296339Y295734D01*
X296243Y295745D01*
X296127Y295766D01*
X296000Y295787D01*
X295853Y295798D01*
X295705Y295808D01*
X295536Y295819D01*
X295366Y295829D01*
D02*
G37*
G36*
X272374Y297541D02*
X270979Y294434D01*
X273737D01*
X272374Y297541D01*
D02*
G37*
G36*
X244584Y299939D02*
X243676D01*
Y295967D01*
X244204D01*
X244289Y295977D01*
X244373D01*
X244574Y295988D01*
X244806Y296009D01*
X245028Y296040D01*
X245250Y296083D01*
X245345Y296104D01*
X245440Y296136D01*
X245451D01*
X245461Y296146D01*
X245514Y296167D01*
X245599Y296210D01*
X245704Y296273D01*
X245821Y296357D01*
X245947Y296463D01*
X246064Y296590D01*
X246169Y296749D01*
X246180Y296770D01*
X246212Y296833D01*
X246254Y296928D01*
X246307Y297066D01*
X246360Y297224D01*
X246402Y297425D01*
X246434Y297657D01*
X246444Y297911D01*
Y297921D01*
Y297953D01*
Y298006D01*
X246434Y298080D01*
Y298164D01*
X246423Y298270D01*
X246381Y298492D01*
X246328Y298735D01*
X246243Y298999D01*
X246117Y299232D01*
X246043Y299348D01*
X245958Y299443D01*
X245947Y299454D01*
X245937Y299464D01*
X245905Y299485D01*
X245863Y299517D01*
X245810Y299559D01*
X245747Y299601D01*
X245673Y299644D01*
X245578Y299697D01*
X245472Y299739D01*
X245356Y299781D01*
X245229Y299823D01*
X245092Y299866D01*
X244933Y299897D01*
X244764Y299918D01*
X244584Y299939D01*
D02*
G37*
G36*
X306070Y300140D02*
X306017D01*
X305954Y300130D01*
X305870Y300119D01*
X305764Y300098D01*
X305637Y300077D01*
X305510Y300035D01*
X305362Y299982D01*
X305214Y299908D01*
X305056Y299823D01*
X304908Y299728D01*
X304750Y299601D01*
X304591Y299454D01*
X304443Y299284D01*
X304306Y299084D01*
X304179Y298862D01*
X304168Y298851D01*
X304158Y298809D01*
X304126Y298756D01*
X304094Y298672D01*
X304052Y298555D01*
X304010Y298428D01*
X303968Y298270D01*
X303915Y298090D01*
X303862Y297890D01*
X303820Y297668D01*
X303777Y297425D01*
X303735Y297150D01*
X303703Y296865D01*
X303672Y296548D01*
X303661Y296220D01*
X303651Y295861D01*
Y295850D01*
Y295840D01*
Y295808D01*
Y295755D01*
Y295702D01*
X303661Y295639D01*
Y295480D01*
X303672Y295290D01*
X303693Y295068D01*
X303714Y294825D01*
X303756Y294561D01*
X303799Y294286D01*
X303851Y294001D01*
X303915Y293716D01*
X303999Y293431D01*
X304084Y293156D01*
X304200Y292892D01*
X304316Y292649D01*
X304464Y292427D01*
X304475Y292416D01*
X304496Y292395D01*
X304528Y292353D01*
X304570Y292311D01*
X304633Y292247D01*
X304697Y292184D01*
X304781Y292110D01*
X304876Y292046D01*
X304982Y291973D01*
X305109Y291898D01*
X305236Y291835D01*
X305383Y291772D01*
X305531Y291729D01*
X305700Y291687D01*
X305870Y291666D01*
X306060Y291656D01*
X306123D01*
X306176Y291666D01*
X306239D01*
X306303Y291677D01*
X306461Y291698D01*
X306651Y291740D01*
X306842Y291793D01*
X307032Y291877D01*
X307211Y291983D01*
X307222Y291994D01*
X307233Y292004D01*
X307264Y292025D01*
X307306Y292068D01*
X307359Y292110D01*
X307412Y292173D01*
X307476Y292237D01*
X307550Y292321D01*
X307624Y292406D01*
X307698Y292511D01*
X307771Y292617D01*
X307845Y292744D01*
X307919Y292881D01*
X307993Y293029D01*
X308067Y293188D01*
X308131Y293357D01*
Y293367D01*
X308141Y293399D01*
X308162Y293452D01*
X308184Y293526D01*
X308205Y293621D01*
X308236Y293737D01*
X308268Y293864D01*
X308300Y294012D01*
X308332Y294181D01*
X308363Y294371D01*
X308395Y294572D01*
X308416Y294783D01*
X308437Y295026D01*
X308458Y295269D01*
X308469Y295533D01*
Y295808D01*
Y295819D01*
Y295829D01*
Y295893D01*
Y295977D01*
Y296104D01*
X308458Y296252D01*
X308448Y296432D01*
X308437Y296622D01*
X308427Y296822D01*
X308384Y297256D01*
X308332Y297710D01*
X308289Y297921D01*
X308247Y298133D01*
X308194Y298323D01*
X308131Y298503D01*
Y298513D01*
X308120Y298545D01*
X308099Y298587D01*
X308067Y298650D01*
X308036Y298724D01*
X307993Y298809D01*
X307898Y298999D01*
X307771Y299210D01*
X307624Y299422D01*
X307465Y299612D01*
X307370Y299697D01*
X307275Y299771D01*
X307264D01*
X307254Y299792D01*
X307222Y299802D01*
X307180Y299834D01*
X307074Y299887D01*
X306926Y299961D01*
X306757Y300024D01*
X306546Y300088D01*
X306324Y300130D01*
X306070Y300140D01*
D02*
G37*
%LPD*%
D10*
X381205Y201250D02*
G03*
X381205Y201250I-43180J0D01*
G01*
D11*
X533146Y346964D02*
Y466090D01*
X477774D02*
X533146D01*
X477774Y346964D02*
X533146D01*
X477774D02*
Y466090D01*
D12*
X416560Y309030D02*
Y423838D01*
X152908D02*
X416560D01*
X152908Y309030D02*
Y423838D01*
Y309030D02*
X416560D01*
X583560Y94742D02*
Y256794D01*
X698368D01*
Y94742D02*
Y256794D01*
X583560Y94742D02*
X698368D01*
X11334Y140498D02*
X9667Y138832D01*
Y135500D01*
X11334Y133834D01*
X17998D01*
X19664Y135500D01*
Y138832D01*
X17998Y140498D01*
X9667Y148829D02*
Y145497D01*
X11334Y143831D01*
X17998D01*
X19664Y145497D01*
Y148829D01*
X17998Y150495D01*
X11334D01*
X9667Y148829D01*
X19664Y153827D02*
X9667D01*
X19664Y160492D01*
X9667D01*
X19664Y163824D02*
X9667D01*
X19664Y170489D01*
X9667D01*
Y180485D02*
Y173821D01*
X19664D01*
Y180485D01*
X14666Y173821D02*
Y177153D01*
X11334Y190482D02*
X9667Y188816D01*
Y185484D01*
X11334Y183818D01*
X17998D01*
X19664Y185484D01*
Y188816D01*
X17998Y190482D01*
X9667Y193815D02*
Y200479D01*
Y197147D01*
X19664D01*
X9667Y208810D02*
Y205477D01*
X11334Y203811D01*
X17998D01*
X19664Y205477D01*
Y208810D01*
X17998Y210476D01*
X11334D01*
X9667Y208810D01*
X19664Y213808D02*
X9667D01*
Y218806D01*
X11334Y220473D01*
X14666D01*
X16332Y218806D01*
Y213808D01*
Y217140D02*
X19664Y220473D01*
X9667Y233802D02*
X19664D01*
Y238800D01*
X17998Y240466D01*
X16332D01*
X14666Y238800D01*
Y233802D01*
Y238800D01*
X13000Y240466D01*
X11334D01*
X9667Y238800D01*
Y233802D01*
Y248797D02*
Y245465D01*
X11334Y243798D01*
X17998D01*
X19664Y245465D01*
Y248797D01*
X17998Y250463D01*
X11334D01*
X9667Y248797D01*
X19664Y253795D02*
X13000D01*
X9667Y257127D01*
X13000Y260460D01*
X19664D01*
X14666D01*
Y253795D01*
X19664Y263792D02*
X9667D01*
Y268790D01*
X11334Y270457D01*
X14666D01*
X16332Y268790D01*
Y263792D01*
Y267124D02*
X19664Y270457D01*
X9667Y273789D02*
X19664D01*
Y278787D01*
X17998Y280453D01*
X11334D01*
X9667Y278787D01*
Y273789D01*
D13*
X516382Y-45466D02*
Y101854D01*
X181102Y-45466D02*
X516382D01*
X181102Y101854D02*
X516382D01*
X181102Y-45466D02*
Y101854D01*
X617539Y274322D02*
Y401066D01*
X721360D01*
X617539Y274322D02*
X721360D01*
Y401066D01*
D14*
X567349Y304035D02*
X565656Y305728D01*
X562271D01*
X560578Y304035D01*
Y297264D01*
X562271Y295571D01*
X565656D01*
X567349Y297264D01*
X570735Y295571D02*
Y302342D01*
X574120Y305728D01*
X577506Y302342D01*
Y295571D01*
Y300649D01*
X570735D01*
X580891Y295571D02*
Y305728D01*
X587663Y295571D01*
Y305728D01*
X591048Y293878D02*
X597819D01*
X601205Y305728D02*
Y295571D01*
Y300649D01*
X607976D01*
Y305728D01*
Y295571D01*
X567349Y342135D02*
X565656Y343828D01*
X562271D01*
X560578Y342135D01*
Y335364D01*
X562271Y333671D01*
X565656D01*
X567349Y335364D01*
X570735Y333671D02*
Y340442D01*
X574120Y343828D01*
X577506Y340442D01*
Y333671D01*
Y338749D01*
X570735D01*
X580891Y333671D02*
Y343828D01*
X587663Y333671D01*
Y343828D01*
X591048Y331978D02*
X597819D01*
X601205Y343828D02*
Y333671D01*
X607976D01*
X604603Y374145D02*
X603333Y372875D01*
Y370336D01*
X604603Y369066D01*
X609681D01*
X610951Y370336D01*
Y372875D01*
X609681Y374145D01*
X603333Y380493D02*
Y377953D01*
X604603Y376684D01*
X609681D01*
X610951Y377953D01*
Y380493D01*
X609681Y381762D01*
X604603D01*
X603333Y380493D01*
X610951Y384301D02*
X603333D01*
X610951Y389380D01*
X603333D01*
Y396997D02*
Y391919D01*
X607142D01*
X605872Y394458D01*
Y395728D01*
X607142Y396997D01*
X609681D01*
X610951Y395728D01*
Y393189D01*
X609681Y391919D01*
X158073Y299719D02*
X156803Y300989D01*
X154264D01*
X152995Y299719D01*
Y294641D01*
X154264Y293371D01*
X156803D01*
X158073Y294641D01*
X164421Y300989D02*
X161882D01*
X160612Y299719D01*
Y294641D01*
X161882Y293371D01*
X164421D01*
X165690Y294641D01*
Y299719D01*
X164421Y300989D01*
X168230Y293371D02*
Y300989D01*
X173308Y293371D01*
Y300989D01*
X179656Y293371D02*
Y300989D01*
X175847Y297180D01*
X180926D01*
X464821Y354333D02*
X463551Y353063D01*
Y350524D01*
X464821Y349254D01*
X469899D01*
X471169Y350524D01*
Y353063D01*
X469899Y354333D01*
X463551Y360681D02*
Y358142D01*
X464821Y356872D01*
X469899D01*
X471169Y358142D01*
Y360681D01*
X469899Y361950D01*
X464821D01*
X463551Y360681D01*
X471169Y364490D02*
X463551D01*
X471169Y369568D01*
X463551D01*
X464821Y372107D02*
X463551Y373377D01*
Y375916D01*
X464821Y377186D01*
X466090D01*
X467360Y375916D01*
Y374646D01*
Y375916D01*
X468630Y377186D01*
X469899D01*
X471169Y375916D01*
Y373377D01*
X469899Y372107D01*
X187197Y115622D02*
X185927Y116891D01*
X183388D01*
X182118Y115622D01*
Y110543D01*
X183388Y109274D01*
X185927D01*
X187197Y110543D01*
X193544Y116891D02*
X191005D01*
X189736Y115622D01*
Y110543D01*
X191005Y109274D01*
X193544D01*
X194814Y110543D01*
Y115622D01*
X193544Y116891D01*
X197353Y109274D02*
Y116891D01*
X202432Y109274D01*
Y116891D01*
X210049Y109274D02*
X204971D01*
X210049Y114352D01*
Y115622D01*
X208780Y116891D01*
X206240D01*
X204971Y115622D01*
X589365Y88137D02*
X588095Y89407D01*
X585556D01*
X584286Y88137D01*
Y83059D01*
X585556Y81789D01*
X588095D01*
X589365Y83059D01*
X595713Y89407D02*
X593173D01*
X591904Y88137D01*
Y83059D01*
X593173Y81789D01*
X595713D01*
X596982Y83059D01*
Y88137D01*
X595713Y89407D01*
X599521Y81789D02*
Y89407D01*
X604600Y81789D01*
Y89407D01*
X607139Y81789D02*
X609678D01*
X608408D01*
Y89407D01*
X607139Y88137D01*
M02*
