G04*
G04 #@! TF.GenerationSoftware,Altium Limited,Altium Designer,23.8.1 (32)*
G04*
G04 Layer_Color=16711935*
%FSLAX44Y44*%
%MOMM*%
G71*
G04*
G04 #@! TF.SameCoordinates,372F65C9-6F4F-413F-B500-709901E0D80A*
G04*
G04*
G04 #@! TF.FilePolarity,Positive*
G04*
G01*
G75*
%ADD40C,0.1000*%
D40*
X678000Y403000D02*
G03*
X677500Y403500I-500J0D01*
G01*
X678000Y403000D02*
G03*
X677500Y403500I-500J0D01*
G01*
X677500Y-500D02*
G03*
X678000Y-0I0J500D01*
G01*
X677500Y-500D02*
G03*
X678000Y-0I0J500D01*
G01*
X0Y403501D02*
G03*
X-500Y403000I0J-500D01*
G01*
X0Y403501D02*
G03*
X-500Y403000I0J-500D01*
G01*
Y0D02*
G03*
X0Y-500I500J0D01*
G01*
X-500Y0D02*
G03*
X0Y-500I500J0D01*
G01*
Y0D02*
X615420Y-0D01*
X677500D01*
X677500Y79000D02*
X677500Y-0D01*
X677500Y79000D02*
Y403000D01*
X95420Y403000D02*
X677500Y403000D01*
X0Y403000D02*
X95420D01*
X-0Y324000D02*
X0Y403000D01*
X-0Y324000D02*
X0Y0D01*
X678000Y79000D02*
Y403000D01*
Y79000D02*
X678000Y-0D01*
X615420Y-500D02*
X677500D01*
X95420Y403501D02*
X677500Y403500D01*
X0Y403501D02*
X95420D01*
X0Y-500D02*
X615420Y-500D01*
X-500Y324000D02*
X-500Y403000D01*
X-500Y324000D02*
X-500Y0D01*
M02*
