M48
;Layer_Color=9474304
;FILE_FORMAT=4:4
METRIC,LZ
;TYPE=PLATED
T01F00S00C0.3000
T02F00S00C1.0200
T03F00S00C1.1000
T04F00S00C1.4000
T05F00S00C1.9000
;TYPE=NON_PLATED
T06F00S00C1.5500
T07F00S00C1.6000
T08F00S00C2.5000
%
T01
X0051816Y0020574
X0053594Y0022098
X00541274Y00194818
X00550672Y0018161
X0062227Y00144018
Y00131318
X00622302Y00220186
X00379984Y0034774
X00367284
X00354584
X00341884
X00329184
X00316484
X00265684
X00240284
X00227584
X00214884
X00202184
X00189484
X00252984Y0037822
T02
X00234442Y00063754
Y00089154
X00259842
X00285242
X00310642
X00336042
X00361442
X00386842
X00412242
X00437642
Y00063754
X00412242
X00386842
X00361442
X00336042
X00310642
X00285242
X00259842
X00463042
Y00089154
T03
X0049276Y0036576
X0051816
T04
X0063754Y0029972
Y0033782
Y0037592
T05
X001263Y00034
X005512Y00369
T06
X00167384Y003525
X00402084
T07
X0062703Y00109218
Y00242318
T08
X006437Y00034
X000337Y00369
M30
